<svg width="355" height="450" viewBox="0 0 355 450" fill="none" xmlns="http://www.w3.org/2000/svg">
<path d="M108.053 140.314C108.113 138.977 108.373 137.656 108.824 136.396C109.255 135.126 109.757 133.882 110.327 132.668C111.477 130.244 112.78 127.896 114.227 125.636C114.268 125.571 114.284 125.493 114.27 125.417C114.257 125.341 114.215 125.273 114.154 125.226L114.148 125.222C112.035 123.507 110.285 121.389 109 118.99C107.647 116.613 106.475 114.137 105.494 111.584C103.501 106.467 102.048 101.165 100.449 95.8632C100.237 95.2008 100.043 94.5378 99.802 93.8749C99.5915 93.168 99.2922 92.4907 98.9112 91.8591C98.0986 90.6414 97.072 89.581 95.8813 88.7293C93.5768 87.1077 91.0884 85.7647 88.4681 84.7284C85.8941 83.6533 83.2572 82.7602 80.6317 81.9055L78.6888 81.2552C78.1462 81.1272 77.6595 80.8271 77.3015 80.3996C76.6424 79.3723 76.299 78.1744 76.3137 76.954L76.3127 76.9255C76.3073 76.7628 76.2487 76.6065 76.1461 76.4803C76.0434 76.354 75.9022 76.2649 75.7441 76.2265L72.4197 75.4233L70.7573 75.0219L70.3416 74.9213C70.1977 74.8857 70.4006 74.9236 70.427 74.9648C70.4507 74.976 70.4707 74.9939 70.4845 75.0162C70.4886 75.0177 70.4923 75.0201 70.4953 75.0232C70.4301 74.8671 70.3901 74.7016 70.3767 74.533C70.2984 73.4622 70.3257 72.3863 70.4581 71.3208C70.5678 70.2186 70.7283 69.1014 70.9042 68.0109L70.1369 68.6678C72.3136 68.6698 74.4749 68.3035 76.5294 67.5843C77.5928 67.1905 78.5762 66.6074 79.4318 65.8631C80.2975 65.0996 80.9868 64.157 81.4518 63.1006C83.2464 58.7849 81.7272 54.3035 81.4785 50.4645C81.4009 48.3247 81.0512 46.2035 80.4378 44.1521C79.8668 42.1786 79.4276 40.1694 79.1232 38.1376C78.9017 36.0274 78.4328 33.9504 77.7263 31.9496C77.0435 29.9529 76.2171 28.0082 75.2536 26.1308L74.7958 26.8854C75.6105 26.872 76.4237 26.8086 77.2306 26.6954C78.0611 26.5811 78.8708 26.3484 79.6353 26.0044C80.4643 25.647 81.145 25.0151 81.5632 24.215C81.9453 23.3747 81.9869 22.4191 81.6792 21.5488C81.6499 21.4627 81.5927 21.3887 81.5168 21.3385C81.4409 21.2883 81.3506 21.2647 81.2598 21.2714L81.2458 21.2728C80.4326 21.3297 79.6224 21.1276 78.9312 20.6955C78.2095 20.2273 77.5516 19.6675 76.974 19.03C75.7916 17.6623 74.4986 16.3943 73.1081 15.2387C71.6154 14.1667 69.924 13.403 68.1328 12.9922C66.3818 12.535 64.5922 12.241 62.7869 12.1141C59.1632 11.747 55.5046 12.2687 52.1279 13.6341C50.4842 14.4156 48.9625 15.4314 47.6105 16.6497C46.9229 17.2641 46.3251 17.972 45.8344 18.7526C45.5847 19.1545 45.3928 19.5894 45.2644 20.0448C45.1123 20.529 45.0941 21.0453 45.2118 21.539L45.321 21.2055C43.3019 22.6184 41.4513 24.2581 39.8055 26.0925C38.1088 27.9042 36.7665 30.0179 35.8482 32.324C35.6186 32.9052 35.4417 33.5058 35.3193 34.1186C35.2606 34.4259 35.1684 34.7277 35.1382 35.0397L35.0639 35.9791C35.0258 36.6072 35.0469 37.2375 35.127 37.8617C35.1855 38.4877 35.3712 39.0864 35.4889 39.7007C36.1964 42.0736 37.2283 44.3375 38.5553 46.4281C41.1741 50.5815 44.2095 54.4573 47.6143 57.9952L48.2498 58.66C48.4625 58.8577 48.659 59.0722 48.8375 59.3013C49.1435 59.7451 49.366 60.2411 49.494 60.7647C49.7919 61.9128 49.9917 63.0841 50.0912 64.2659C50.3087 66.6686 50.3858 69.0819 50.3224 71.4935L50.9261 70.904L47.2948 70.8806C47.1339 70.8795 46.9788 70.9406 46.862 71.0513C46.7453 71.162 46.6759 71.3136 46.6684 71.4743L46.667 71.5084C46.5443 73.6618 46.0742 75.7812 45.2747 77.7844C44.8889 78.7849 44.4067 79.7455 43.8349 80.6526C43.2274 81.5359 42.5457 82.3659 41.7973 83.1335C38.7412 86.2914 35.2919 89.1438 31.9443 92.0944C30.2648 93.5694 28.5874 95.0539 26.9481 96.5972C26.1285 97.3687 25.3246 98.1641 24.5365 98.9836C23.7433 99.8332 23.0285 100.656 22.2729 101.449C21.5209 102.249 20.7246 103.018 19.9354 103.839C19.0848 104.671 18.3452 105.61 17.735 106.632C17.1401 107.709 16.7704 108.895 16.6484 110.119C16.5155 111.28 16.4868 112.45 16.5626 113.615C16.6299 114.767 16.7226 115.879 16.8961 117.025L17.2603 118.776C17.4222 119.341 17.6388 119.881 17.8271 120.434C18.0109 120.983 18.2354 121.518 18.4989 122.034C18.749 122.552 18.9782 123.084 19.247 123.589C19.8236 124.571 20.3366 125.602 20.9768 126.536C23.445 130.313 26.1887 133.902 29.1855 137.274C32.1216 140.668 35.2037 143.921 38.2193 147.194C38.9655 148.015 39.7129 148.835 40.417 149.666C40.7819 150.08 41.0597 150.501 41.3882 150.916C41.6672 151.337 41.9144 151.779 42.1278 152.237C42.5526 153.05 42.6896 153.984 42.5166 154.885C42.4003 155.296 42.2013 155.678 41.9318 156.009C41.6536 156.338 41.3187 156.614 40.943 156.824L40.9047 156.844C40.8009 156.9 40.709 156.975 40.6343 157.065C40.5595 157.156 40.5033 157.261 40.469 157.373C40.4347 157.486 40.4228 157.604 40.4341 157.721C40.4454 157.838 40.4796 157.951 40.5349 158.055L40.555 158.091L43.9376 163.799C44.0205 163.939 44.1403 164.054 44.284 164.13C44.4277 164.207 44.5897 164.243 44.7523 164.234L44.7842 164.232C46.306 164.095 47.8332 164.429 49.1598 165.187C49.7343 165.562 50.1807 166.104 50.4398 166.739L50.6103 167.238L50.7525 167.842C50.8416 168.248 50.9263 168.659 51.0014 169.073C51.5929 172.396 51.9286 175.824 52.192 179.22L52.1939 179.246C52.2083 179.431 52.2871 179.604 52.4165 179.736C52.5458 179.869 52.7176 179.952 52.9017 179.97C57.6775 180.452 62.4641 180.85 67.2629 180.909C72.0589 181.046 76.8581 180.875 81.6407 180.557C86.4247 180.23 91.1854 179.622 95.9123 178.84C100.65 178.076 105.334 177.01 109.936 175.65L109.947 175.647C110 175.63 110.049 175.602 110.09 175.563C110.13 175.525 110.162 175.478 110.181 175.426C110.872 173.502 111.385 171.519 111.716 169.502C112.063 167.502 112.275 165.481 112.35 163.452C112.446 161.42 112.289 159.383 111.884 157.389C111.511 155.398 110.991 153.444 110.439 151.503C110.432 151.481 110.417 151.462 110.397 151.45C110.377 151.439 110.353 151.436 110.331 151.442C110.308 151.448 110.289 151.463 110.277 151.483C110.266 151.503 110.262 151.527 110.268 151.55C111.251 155.441 112.201 159.426 111.867 163.427C111.741 165.428 111.481 167.418 111.088 169.384C110.716 171.341 110.168 173.26 109.451 175.119L109.695 174.895C105.112 176.159 100.453 177.132 95.7474 177.808C91.041 178.501 86.3066 179.022 81.5563 179.263C76.8087 179.508 72.0509 179.64 67.3008 179.449C62.5479 179.34 57.813 178.893 53.0937 178.367L53.8035 179.117C53.5717 175.656 53.276 172.226 52.7003 168.769C52.6266 168.337 52.5424 167.904 52.4521 167.47L52.3054 166.818C52.2414 166.586 52.1506 166.333 52.0699 166.093C51.6872 165.123 51.0148 164.294 50.1443 163.72C49.3224 163.189 48.4042 162.825 47.4419 162.647C46.5143 162.462 45.5664 162.4 44.6225 162.461L45.4688 162.894L42.0995 157.178L41.7117 158.445C42.3232 158.128 42.8661 157.693 43.3091 157.165C43.7498 156.632 44.0734 156.012 44.2588 155.345C44.543 154.044 44.3734 152.685 43.7781 151.494C43.5227 150.939 43.225 150.405 42.8876 149.896C42.5292 149.432 42.1826 148.923 41.8099 148.499C41.0736 147.625 40.3192 146.794 39.5655 145.962C36.5394 142.663 33.4865 139.425 30.5888 136.059C27.6696 132.741 24.9763 129.231 22.5272 125.552C21.8982 124.647 21.4123 123.674 20.8514 122.737C20.5934 122.259 20.3791 121.764 20.1401 121.279C19.8913 120.803 19.6799 120.309 19.5078 119.8C19.3354 119.298 19.1296 118.8 18.981 118.296L18.654 116.771C18.4856 115.714 18.385 114.598 18.3163 113.522C18.2396 112.46 18.258 111.394 18.3712 110.335C18.459 109.329 18.7531 108.352 19.2351 107.465C20.2091 105.734 21.971 104.268 23.491 102.6C24.2704 101.772 25.0154 100.905 25.7417 100.119C26.4944 99.3243 27.2722 98.5453 28.075 97.7823C29.6768 96.2558 31.3341 94.7713 32.9996 93.2907C36.32 90.3106 39.7223 87.4105 42.8411 84.1118C43.6399 83.27 44.3645 82.3608 45.0067 81.3942C45.6139 80.4046 46.1232 79.3581 46.5271 78.2696C47.359 76.1074 47.8305 73.8234 47.9226 71.5085L47.2948 72.1359L50.9261 72.1125H50.9409C51.0969 72.1112 51.2462 72.0487 51.3564 71.9383C51.4667 71.8279 51.5292 71.6786 51.5303 71.5225C51.5634 69.06 51.4523 66.5977 51.1977 64.1481C51.0759 62.902 50.8475 61.6687 50.5151 60.4616C50.3425 59.8022 50.0447 59.1821 49.6379 58.6352C49.4377 58.3874 49.2194 58.1547 48.9848 57.9391L48.3486 57.2911C44.9431 53.8442 41.8954 50.0612 39.2524 46.0001C37.9346 43.9882 36.9005 41.8042 36.1794 39.5099C36.0622 38.9307 35.8737 38.3571 35.8122 37.7719C35.729 37.1887 35.7011 36.5989 35.7289 36.0105L35.7895 35.1272C35.8157 34.8334 35.9036 34.5466 35.9572 34.2561C36.0697 33.673 36.235 33.1013 36.451 32.5481C37.3311 30.3105 38.6224 28.2576 40.2582 26.4953C41.8617 24.6902 43.6662 23.0741 45.6366 21.6786C45.684 21.6449 45.7203 21.598 45.741 21.5437C45.7617 21.4894 45.7658 21.4302 45.7528 21.3736L45.7459 21.3446C45.6476 20.5318 45.8487 19.711 46.3117 19.0358C46.7714 18.2985 47.3322 17.6292 47.9776 17.0475C49.278 15.8584 50.7533 14.8762 52.3521 14.1353C55.6497 12.8325 59.2148 12.3519 62.7396 12.7349C64.5038 12.8708 66.2515 13.1701 67.9603 13.6289C69.6641 14.0287 71.2709 14.7642 72.6868 15.7926C74.0353 16.9395 75.2814 18.2014 76.411 19.5643C77.0253 20.264 77.7285 20.8803 78.5027 21.3977C79.3351 21.9328 80.3147 22.1924 81.3029 22.1397L80.8696 21.8642C81.0725 22.5074 81.0284 23.2031 80.7459 23.8155C80.4081 24.4201 79.872 24.8897 79.2282 25.1451C78.5446 25.4356 77.8231 25.6273 77.0854 25.7144C76.3257 25.807 75.5611 25.8532 74.7958 25.8529C74.6569 25.8563 74.525 25.9147 74.4291 26.0154C74.3333 26.116 74.2813 26.2506 74.2847 26.3895C74.2869 26.4653 74.305 26.5397 74.338 26.608C75.2424 28.4503 76.0136 30.355 76.6458 32.3075C77.296 34.2455 77.7139 36.2537 77.8905 38.2901C78.3113 42.5436 80.0785 46.487 80.0285 50.4678C80.0756 51.543 80.1931 52.6139 80.3801 53.6738C80.534 54.7002 80.6751 55.7121 80.7536 56.7203C80.9968 58.6697 80.7604 60.649 80.065 62.4863C79.6655 63.3404 79.0968 64.1044 78.3932 64.7322C77.6897 65.3599 76.8659 65.8382 75.972 66.1381C74.0853 66.7796 72.1042 67.0997 70.1115 67.085C69.9271 67.0883 69.7497 67.1557 69.6097 67.2757C69.4696 67.3957 69.3758 67.5607 69.3443 67.7423C69.1501 68.8871 69.0079 70.0173 68.8965 71.1701C68.7574 72.3555 68.7398 73.5521 68.8441 74.7411C68.8808 75.1384 69.0044 75.5229 69.2063 75.8671C69.2486 75.9289 69.2911 75.9883 69.34 76.0468C69.4081 76.1156 69.4815 76.179 69.5595 76.2363C69.7074 76.3265 69.8692 76.3917 70.0383 76.4295L70.449 76.5258L72.093 76.9123L75.3812 77.6842L74.8118 76.9576C74.8318 77.712 74.94 78.4614 75.1344 79.1906C75.3238 79.9616 75.6688 80.6858 76.1482 81.3187C76.417 81.6614 76.7481 81.9501 77.1241 82.1698C77.4657 82.3617 77.8267 82.5169 78.201 82.6329L80.1865 83.2832C82.8115 84.1183 85.4107 84.9809 87.9361 86.0163C90.4585 86.9936 92.8569 88.2649 95.0817 89.8038C96.1439 90.5545 97.0666 91.4854 97.808 92.5542C98.1479 93.1004 98.4159 93.6881 98.6054 94.3029C98.8461 94.9326 99.0505 95.5909 99.2695 96.2383C100.94 101.471 102.494 106.805 104.592 111.944C105.631 114.526 106.865 117.026 108.281 119.422C109.679 121.867 111.551 124.007 113.787 125.719L113.708 125.306C112.31 127.624 111.06 130.029 109.966 132.506C109.424 133.747 108.951 135.017 108.551 136.311C108.128 137.604 107.9 138.953 107.877 140.314C107.877 140.337 107.886 140.36 107.903 140.376C107.919 140.393 107.942 140.402 107.965 140.402C107.988 140.401 108.01 140.392 108.027 140.376C108.043 140.359 108.052 140.337 108.053 140.314V140.314Z" fill="#121212"/>
<path d="M70.7711 37.5282C70.0428 37.0514 69.2295 36.7191 68.3756 36.5495C67.5175 36.3654 66.6364 36.3129 65.7625 36.3938C64.8804 36.4736 64.0201 36.7125 63.2231 37.0987C62.4284 37.4705 61.7276 38.0164 61.1726 38.6959C61.9396 38.3828 62.7236 38.113 63.5209 37.888C64.2888 37.6781 65.0742 37.538 65.8673 37.4693C67.5002 37.3387 69.1418 37.3585 70.7711 37.5282V37.5282ZM81.9258 38.6959C81.4948 38.3823 81.01 38.1502 80.4954 38.011C79.9932 37.8645 79.475 37.7801 78.9522 37.7598C78.4219 37.7437 77.892 37.8027 77.3782 37.9353C76.8485 38.0646 76.3603 38.3263 75.9593 38.6959L77.4753 38.7731C77.9588 38.8045 78.4362 38.8185 78.9179 38.8396C79.9228 38.894 80.9306 38.8459 81.9258 38.6959V38.6959ZM65.5827 44.2083C65.1625 44.1937 64.7643 44.0165 64.4721 43.7141C64.18 43.4116 64.0167 43.0075 64.0167 42.587C64.0167 42.1664 64.18 41.7624 64.4721 41.4599C64.7643 41.1574 65.1625 40.9802 65.5827 40.9656C66.003 40.9802 66.4012 41.1574 66.6933 41.4599C66.9855 41.7624 67.1488 42.1664 67.1488 42.587C67.1488 43.0075 66.9855 43.4116 66.6933 43.7141C66.4012 44.0165 66.003 44.1937 65.5827 44.2083V44.2083ZM47.6833 52.8986C47.263 52.884 46.8648 52.7068 46.5727 52.4044C46.2805 52.1019 46.1172 51.6978 46.1172 51.2773C46.1172 50.8568 46.2805 50.4527 46.5727 50.1502C46.8648 49.8477 47.263 49.6705 47.6833 49.656C48.1036 49.6705 48.5018 49.8477 48.7939 50.1502C49.0861 50.4527 49.2494 50.8568 49.2494 51.2773C49.2494 51.6978 49.0861 52.1019 48.7939 52.4044C48.5018 52.7068 48.1036 52.884 47.6833 52.8986ZM78.2939 45.1162C77.8736 45.1017 77.4754 44.9245 77.1832 44.6221C76.891 44.3196 76.7277 43.9155 76.7277 43.4949C76.7277 43.0744 76.891 42.6702 77.1832 42.3678C77.4754 42.0653 77.8736 41.8881 78.2939 41.8736C78.7142 41.8881 79.1124 42.0653 79.4046 42.3678C79.6968 42.6702 79.8601 43.0744 79.8601 43.4949C79.8601 43.9155 79.6968 44.3196 79.4046 44.6221C79.1124 44.9245 78.7142 45.1017 78.2939 45.1162V45.1162ZM78.294 56.5951C77.9539 56.9339 77.5965 57.2549 77.2234 57.5569C76.8854 57.8291 76.5265 58.0742 76.15 58.29C75.7699 58.5086 75.3766 58.7035 74.9724 58.8734C74.5539 59.0592 74.1093 59.2103 73.6246 59.4489C74.3758 59.7526 75.2093 59.785 75.9818 59.5404C76.7543 59.2959 77.4173 58.7897 77.8568 58.109C78.1622 57.6648 78.3156 57.1337 78.294 56.5951V56.5951ZM49.2137 59.8653C50.439 60.7944 51.6916 61.6229 52.9826 62.4163C54.2742 63.2013 55.5942 63.9386 56.9568 64.5908C59.6454 65.9709 62.5734 66.8232 65.5826 67.1016C62.6246 66.6493 59.7807 65.634 57.205 64.1108C55.9028 63.3885 54.6478 62.5847 53.4258 61.7375C52.2108 60.8875 51.0121 59.9841 49.9029 59.0325L49.8928 59.0236C49.839 58.9767 49.7764 58.941 49.7087 58.9184C49.641 58.8958 49.5695 58.8868 49.4983 58.892C49.4271 58.8972 49.3577 58.9164 49.2939 58.9485C49.2302 58.9807 49.1735 59.0251 49.127 59.0793C49.0805 59.1334 49.0452 59.1963 49.0232 59.2642C49.0011 59.332 48.9927 59.4036 48.9984 59.4747C49.0041 59.5459 49.0238 59.6152 49.0565 59.6787C49.0891 59.7422 49.1339 59.7986 49.1885 59.8446L49.2137 59.8653ZM74.273 42.5869C73.9634 43.6612 74.0021 44.806 74.3834 45.857C74.5714 46.3967 74.8355 46.9068 75.1678 47.3719C75.5021 47.7552 75.8128 48.1586 76.098 48.5798C76.579 49.3587 76.6917 50.2579 75.9879 50.7374C75.596 50.9985 75.1447 51.1565 74.6756 51.1968C74.1551 51.2635 73.6303 51.2904 73.1058 51.2773C73.6042 51.5107 74.1368 51.6626 74.6833 51.7274C75.2771 51.8151 75.8836 51.7218 76.4236 51.4598C76.7306 51.3064 76.9921 51.0754 77.1822 50.7897C77.3723 50.5041 77.4843 50.1736 77.5071 49.8312C77.53 49.1925 77.3609 48.5615 77.0218 48.0198C76.7068 47.5683 76.3564 47.1425 75.9741 46.7464C75.6602 46.3694 75.3861 45.961 75.1563 45.5277C74.6855 44.6093 74.3862 43.6127 74.273 42.5869V42.5869Z" fill="#121212"/>
<path d="M44.033 53.2385C42.4579 50.271 43.1438 49.2019 44.83 45.9593C46.5162 42.7166 53.5203 49.4613 53.5203 49.4613V37.785C50.2777 35.8367 50.0183 28.838 53.5203 25.0766C57.0224 21.3152 74.7921 26.3737 74.7921 26.3737L74.7959 26.3693C83.0903 26.3693 81.2745 21.7064 81.2745 21.7064C77.3873 21.9621 75.8271 17.0348 71.6755 14.6989C67.5327 12.3631 56.8936 10.8117 50.6706 14.6989C44.4387 18.5949 45.4789 21.442 45.4789 21.442C45.4789 21.442 35.3598 28.1939 35.3598 36.4883C35.3598 41.5679 39.7307 48.0066 43.5989 52.7147L44.033 53.2385ZM75.0868 76.5503C74.1369 78.7056 73.2635 80.8857 72.4312 83.0793C71.594 85.2711 70.7911 87.474 70.0224 89.6879L71.4011 89.4577C70.4558 88.116 69.4927 86.7875 68.5117 85.4723C67.5459 84.146 66.5618 82.8332 65.5595 81.5341C64.5733 80.2228 63.5621 78.9301 62.5434 77.6431C61.5383 76.3463 60.4875 75.0836 59.4564 73.806L59.4264 73.7686C59.3583 73.6836 59.2653 73.6221 59.1605 73.5927C55.978 72.6926 52.7898 71.8107 49.5584 71.0594C52.6012 72.3815 55.6868 73.574 58.7784 74.7477L58.4828 74.5349C59.4187 75.8836 60.3347 77.2474 61.2965 78.5769C62.2448 79.9167 63.2004 81.2505 64.1812 82.5661C65.1491 83.891 66.132 85.2046 67.1297 86.5071C68.1173 87.8174 69.1211 89.1155 70.1411 90.4013L70.1652 90.4317C70.2537 90.5429 70.371 90.6278 70.5043 90.6771C70.6376 90.7264 70.7819 90.7383 70.9215 90.7114C71.0611 90.6846 71.1907 90.6201 71.2962 90.5248C71.4017 90.4296 71.4791 90.3072 71.52 90.1711C72.1949 87.9269 72.8255 85.6682 73.4267 83.4002C74.033 81.1341 74.5979 78.8544 75.0868 76.5503ZM76.5313 81.833L81.018 88.5679L78.0962 81.0213C78.0541 80.9127 77.9911 80.8135 77.9107 80.7293C77.8303 80.645 77.734 80.5775 77.6275 80.5304C77.521 80.4834 77.4063 80.4578 77.2898 80.4551C77.1734 80.4524 77.0576 80.4726 76.949 80.5147C76.8404 80.5567 76.7412 80.6197 76.657 80.7002C76.5727 80.7806 76.5052 80.8768 76.4581 80.9833C76.4111 81.0898 76.3855 81.2046 76.3828 81.321C76.3801 81.4374 76.4003 81.5532 76.4424 81.6618C76.466 81.7218 76.4958 81.7792 76.5313 81.833V81.833Z" fill="#121212"/>
<path d="M58.9697 74.1704C58.5788 75.6034 58.2745 77.0476 57.9618 78.4908C57.6682 79.9364 57.3885 81.3839 57.1386 82.8351C56.6273 85.7366 56.2036 88.6488 55.8299 91.5681L57.2926 91.0376C56.279 90.1281 55.2853 89.1971 54.2554 88.3059C53.2278 87.4119 52.2075 86.5099 51.1553 85.6421C49.066 83.891 46.94 82.1792 44.7005 80.5909C46.46 82.6985 48.3334 84.6835 50.2433 86.6292C51.1906 87.6098 52.1698 88.5562 53.142 89.5106C54.1115 90.4673 55.1179 91.3847 56.1038 92.3236C56.22 92.4343 56.3644 92.5106 56.5213 92.5442C56.6782 92.5777 56.8412 92.5672 56.9925 92.5138C57.1437 92.4603 57.2773 92.3661 57.3782 92.2415C57.4792 92.1168 57.5437 91.9667 57.5646 91.8076L57.5665 91.7931C57.9499 88.8753 58.2834 85.9514 58.5293 83.0157C58.6579 81.5486 58.7566 80.0777 58.8418 78.605C58.9077 77.13 58.9819 75.6558 58.9697 74.1704ZM107.976 140.883C107.9 136.522 107.517 132.172 106.829 127.866C106.211 123.506 105.113 119.229 103.556 115.111L97.867 103.371C95.999 99.458 94.1176 95.5451 92.108 91.6808C93.4406 95.8281 94.9718 99.8982 96.6087 103.927C97.4143 105.948 98.2932 107.938 99.1739 109.932C100.045 111.916 101.133 113.897 101.929 115.785C103.446 119.793 104.635 123.918 105.482 128.119C106.396 132.34 107.195 136.599 107.976 140.883ZM40.2879 107.108L45.125 114.243C46.7428 116.606 48.3034 119.002 49.8379 121.407L52.1675 125C52.9076 126.218 53.6727 127.428 54.3401 128.69C55.7594 131.168 56.7495 133.869 57.2687 136.677C57.2804 136.75 57.3186 136.816 57.3762 136.863C57.4337 136.91 57.5064 136.934 57.5805 136.93L57.5978 136.929C59.4762 136.887 61.3435 137.227 63.0857 137.931C63.9204 138.287 64.7032 138.754 65.4129 139.319C66.0949 139.877 66.6789 140.544 67.1406 141.295L67.0248 140.799C66.5404 143.33 65.6738 145.773 64.4548 148.044C63.8587 149.191 63.195 150.301 62.4672 151.368L61.3379 152.945L60.0843 154.426C59.6848 154.938 59.1964 155.367 58.748 155.836C58.3054 156.312 57.8312 156.757 57.3286 157.169L55.84 158.439L54.2442 159.58C53.1691 160.341 52.0484 161.036 50.8882 161.66C49.739 162.319 48.5067 162.816 47.3187 163.447L47.31 163.452C47.2908 163.462 47.276 163.479 47.2685 163.5C47.2611 163.52 47.2615 163.542 47.2696 163.563C47.2777 163.583 47.2931 163.599 47.3126 163.609C47.3322 163.618 47.3546 163.62 47.3755 163.614C48.019 163.43 48.6623 163.235 49.3053 163.03C49.9562 162.847 50.5973 162.631 51.2262 162.383C52.4838 161.87 53.7088 161.282 54.8945 160.62C57.3003 159.295 59.4907 157.612 61.3903 155.628C65.2481 151.607 67.752 146.48 68.5514 140.966L68.5553 140.933C68.5763 140.769 68.5335 140.603 68.4356 140.47C67.8292 139.606 67.0809 138.852 66.2223 138.239C65.3715 137.662 64.4394 137.214 63.4567 136.912C61.5401 136.347 59.5347 136.145 57.544 136.318L57.8732 136.57C57.1957 133.746 56.2631 130.988 55.087 128.332C53.9856 125.647 52.6743 123.052 51.1654 120.572C49.635 118.116 47.9674 115.748 46.1704 113.479C44.3911 111.2 42.4714 109.034 40.4224 106.994C40.4142 106.986 40.4044 106.979 40.3936 106.975C40.3828 106.97 40.3713 106.968 40.3597 106.968C40.348 106.968 40.3365 106.971 40.3258 106.975C40.3151 106.98 40.3054 106.986 40.2973 106.995C40.283 107.01 40.2743 107.029 40.2726 107.05C40.2708 107.07 40.2763 107.091 40.2879 107.108V107.108Z" fill="#121212"/>
<path d="M43.4986 154.512C45.2286 153.574 46.8713 152.483 48.4071 151.252C49.9624 150.033 51.4108 148.684 52.7366 147.219C53.4094 146.492 54.0105 145.698 54.618 144.913C55.1947 144.099 55.7132 143.245 56.1695 142.358C57.1363 140.605 57.6198 138.626 57.5704 136.624C57.2114 138.52 56.4857 140.328 55.4339 141.945C54.4157 143.571 53.2436 145.095 51.9338 146.496C50.6559 147.934 49.2772 149.292 47.8595 150.615C46.4326 151.928 44.9927 153.24 43.4986 154.512ZM58.9693 166.781C60.2852 164.87 61.5034 162.894 62.6191 160.86C63.7519 158.826 64.7729 156.731 65.6773 154.585C67.6551 150.262 68.6745 145.561 68.6658 140.807C68.6567 140.574 68.5554 140.354 68.3842 140.195C68.2131 140.036 67.9859 139.951 67.7526 139.96C67.5192 139.968 67.2987 140.069 67.1393 140.239C66.9799 140.41 66.8947 140.637 66.9023 140.87C66.903 140.889 66.9044 140.908 66.9063 140.927L66.9096 140.959C67.1069 143.192 67.0067 145.443 66.6116 147.65C66.1989 149.899 65.6114 152.113 64.8542 154.27C64.0952 156.446 63.2181 158.579 62.2268 160.659C61.2451 162.754 60.1578 164.797 58.9693 166.781V166.781ZM113.963 125.469C113.245 125.232 112.493 125.114 111.737 125.119C110.977 125.11 110.219 125.205 109.484 125.403C108.722 125.595 108.01 125.949 107.397 126.44C107.082 126.68 106.818 126.978 106.619 127.32C106.42 127.662 106.29 128.039 106.237 128.431C106.685 127.892 107.24 127.454 107.866 127.142C108.474 126.839 109.113 126.606 109.772 126.444C111.103 126.064 112.501 125.851 113.963 125.469Z" fill="#121212"/>
<path d="M67.8513 142.548C72.2375 143.113 76.6243 143.54 81.0153 143.885C83.2106 144.063 85.4071 144.214 87.6045 144.353L88.4281 144.408C88.7279 144.432 89.0288 144.441 89.3296 144.434C89.9089 144.418 90.487 144.371 91.0613 144.293C92.1885 144.153 93.2809 143.917 94.3676 143.681C96.5332 143.177 98.6598 142.586 100.792 142.036C102.903 141.44 105.05 140.982 107.221 140.664C107.757 140.601 108.297 140.57 108.836 140.57C109.344 140.545 109.85 140.639 110.315 140.843C110.406 140.891 110.488 140.956 110.555 141.033C110.628 141.128 110.699 141.249 110.771 141.356C110.924 141.568 111.031 141.82 111.164 142.05C111.867 143.505 112.274 145.086 112.359 146.7C112.446 147.726 112.25 148.755 111.794 149.677C111.553 150.083 111.219 150.427 110.819 150.678C110.419 150.93 109.965 151.082 109.494 151.122C109.012 151.213 108.519 151.23 108.032 151.172C107.533 151.1 107.043 150.969 106.574 150.782C105.986 150.566 105.366 150.45 104.739 150.438C104.118 150.44 103.499 150.527 102.901 150.696C101.794 151.033 100.722 151.475 99.6988 152.016C97.7505 152.982 95.7541 153.847 93.7173 154.609C91.6813 155.4 89.622 156.139 87.5525 156.846C83.4213 158.281 79.2133 159.485 74.948 160.451C70.7041 161.525 66.3171 161.922 61.9494 161.626L61.944 161.625C61.9218 161.623 61.8995 161.629 61.8818 161.643C61.8641 161.657 61.8522 161.676 61.8486 161.699C61.845 161.721 61.8499 161.743 61.8623 161.762C61.8747 161.78 61.8937 161.794 61.9154 161.799C66.3031 162.652 70.8139 162.654 75.2025 161.806C79.591 161.073 83.9183 160.011 88.1479 158.63C92.3918 157.256 96.5151 155.534 100.476 153.482C101.392 152.971 102.349 152.539 103.338 152.189C104.244 151.85 105.238 151.825 106.16 152.117C106.728 152.309 107.316 152.433 107.912 152.487C108.525 152.518 109.139 152.455 109.733 152.301C110.032 152.239 110.324 152.146 110.604 152.024C110.907 151.92 111.191 151.766 111.444 151.569C111.573 151.472 111.71 151.384 111.828 151.277L112.145 150.914C112.35 150.673 112.52 150.406 112.652 150.119C113.122 149.026 113.283 147.825 113.116 146.646C112.986 145.521 112.724 144.414 112.334 143.35C112.137 142.821 111.912 142.303 111.66 141.798C111.515 141.552 111.402 141.294 111.23 141.059C111.147 140.939 111.077 140.821 110.982 140.699C110.87 140.568 110.734 140.458 110.581 140.378C110.037 140.133 109.445 140.013 108.848 140.025C108.285 140.015 107.722 140.039 107.163 140.096C102.733 140.568 98.4029 141.526 94.0811 142.242C93.0055 142.436 91.9279 142.596 90.868 142.735C90.3492 142.801 89.8272 142.839 89.3043 142.851C89.0388 142.861 88.8271 142.842 88.5537 142.835L87.7266 142.797C85.5219 142.688 83.3161 142.592 81.1091 142.522C76.6956 142.372 72.2784 142.304 67.8599 142.372C67.8375 142.373 67.816 142.382 67.7999 142.397C67.7837 142.413 67.7741 142.434 67.773 142.456C67.7719 142.479 67.7794 142.501 67.7939 142.518C67.8085 142.535 67.829 142.546 67.8513 142.548L67.8513 142.548ZM76.7374 99.1386C76.3171 99.1241 75.919 98.9469 75.6268 98.6444C75.3347 98.3419 75.1714 97.9378 75.1714 97.5173C75.1714 97.0968 75.3347 96.6927 75.6268 96.3902C75.919 96.0878 76.3171 95.9106 76.7374 95.896C77.1577 95.9106 77.5559 96.0878 77.848 96.3902C78.1402 96.6927 78.3035 97.0968 78.3035 97.5173C78.3035 97.9378 78.1402 98.3419 77.848 98.6444C77.5559 98.9469 77.1577 99.1241 76.7374 99.1386V99.1386ZM85.1035 115.482C84.6832 115.467 84.2849 115.29 83.9927 114.987C83.7006 114.685 83.5373 114.281 83.5373 113.86C83.5373 113.44 83.7006 113.036 83.9927 112.733C84.2849 112.431 84.6832 112.254 85.1035 112.239C85.5238 112.254 85.922 112.431 86.2142 112.733C86.5064 113.036 86.6697 113.44 86.6697 113.86C86.6697 114.281 86.5064 114.685 86.2142 114.987C85.922 115.29 85.5238 115.467 85.1035 115.482V115.482ZM90.162 130.074C89.7417 130.059 89.3435 129.882 89.0513 129.579C88.7591 129.277 88.5958 128.873 88.5958 128.452C88.5958 128.032 88.7591 127.628 89.0513 127.325C89.3435 127.023 89.7417 126.845 90.162 126.831C90.5823 126.845 90.9805 127.023 91.2727 127.325C91.5649 127.628 91.7282 128.032 91.7282 128.452C91.7282 128.873 91.5649 129.277 91.2727 129.579C90.9805 129.882 90.5823 130.059 90.162 130.074V130.074Z" fill="#121212"/>
<path d="M94.2313 142.959C94.1915 142.582 94.0102 142.234 93.7239 141.985C93.4377 141.737 93.0677 141.606 92.6888 141.619C92.4563 141.616 92.226 141.665 92.015 141.763C91.804 141.861 91.6176 142.004 91.4696 142.184C91.3216 142.363 91.2156 142.573 91.1597 142.799C91.1037 143.025 91.0992 143.26 91.1463 143.488L94.2313 142.959ZM95.4149 165.095C94.9946 165.08 94.5964 164.903 94.3042 164.6C94.012 164.298 93.8487 163.894 93.8487 163.473C93.8487 163.053 94.012 162.649 94.3042 162.346C94.5964 162.044 94.9946 161.867 95.4149 161.852C95.8352 161.867 96.2335 162.044 96.5257 162.346C96.8178 162.649 96.9811 163.053 96.9811 163.473C96.9811 163.894 96.8178 164.298 96.5257 164.6C96.2335 164.903 95.8352 165.08 95.4149 165.095V165.095ZM109.096 175.486C109.336 175.419 109.518 175.371 109.633 175.332L109.096 175.486ZM108.224 175.735C108.569 175.639 108.866 175.553 109.096 175.486L108.224 175.735ZM94.4274 215.104C94.3699 215.344 94.3317 215.583 94.2838 215.813C95.3925 215.253 96.3367 214.414 97.0239 213.38C97.8173 212.159 98.4123 210.82 98.7869 209.413C99.1658 207.987 99.4443 206.537 99.6203 205.072C99.8217 203.597 99.9366 202.112 99.9941 200.617C100.099 199.123 100.109 197.618 100.109 196.114C100.128 194.61 100.08 193.096 100.052 191.583L99.7546 183.007C98.3654 183.362 96.9666 183.668 95.5675 183.955C96.0084 187.002 96.334 190.059 96.5163 193.125C96.8693 198.05 96.7087 202.998 96.0372 207.889C95.9317 208.503 95.8454 209.116 95.7209 209.729L95.2994 211.54L94.4274 215.104Z" fill="#121212"/>
<path d="M82.9398 354.318C80.1709 373.758 76.8175 393.16 71.6819 412.121C81.7997 412.121 95.4145 397.337 95.4145 397.337L87.3472 374.764C87.3472 374.764 106.701 306.278 110.102 270.483C113.504 234.678 107.774 175.859 107.774 175.859C103.446 176.98 99.0611 177.869 94.6383 178.523C94.9066 179.855 95.1461 181.206 95.3569 182.547C99.6494 181.953 103.923 181.253 108.167 180.257C105.476 181.37 102.706 182.28 99.8792 182.978C100.657 185.762 101.211 188.604 101.537 191.476C101.916 194.536 102.041 197.622 101.91 200.703C101.819 203.835 101.244 206.935 100.205 209.892C99.6518 211.394 98.8196 212.779 97.7522 213.973C96.8185 215.003 95.5912 215.722 94.236 216.033C93.8049 218.112 93.4119 220.201 93.115 222.299C92.3868 227.138 91.9174 232.005 91.5724 236.882C91.2276 241.768 91.0264 246.645 90.9017 251.551L90.461 266.277C90.0393 276.088 89.6466 285.899 88.9567 295.701C87.558 315.294 85.6896 334.868 82.9398 354.318Z" fill="#121212"/>
<path d="M95.1943 182.576C95.0315 181.215 94.8493 179.864 94.6385 178.523C80.8491 180.589 66.8455 180.805 52.9989 179.165C52.6349 180.822 52.2932 182.483 51.9737 184.147C54.3498 184.147 56.6974 184.291 59.0639 184.329L62.5993 184.387C63.7777 184.415 64.9562 184.434 66.125 184.415C67.3035 184.397 68.482 184.397 69.6607 184.406L73.1865 184.31C75.5338 184.301 77.8811 184.128 80.2189 184.032C84.9138 183.745 89.5894 183.304 94.2458 182.71C94.562 182.662 94.8781 182.614 95.1943 182.576Z" fill="#121212"/>
<path d="M41.3289 419.125C52.2228 424.96 71.6819 412.121 71.6819 412.121C73.9144 402.559 75.7059 392.911 77.2774 383.234C78.887 373.567 80.2922 363.864 81.4931 354.127C83.9171 334.667 85.7695 315.147 87.0502 295.566C87.7783 285.793 88.2478 276.002 88.7173 266.2L89.2443 251.502C89.3783 246.597 89.6466 241.663 90.0969 236.767C90.5376 231.871 91.1029 226.975 91.9174 222.108C92.3102 219.683 92.8084 217.26 93.3738 214.854L94.3223 211.281L94.763 209.527C94.897 208.934 94.993 208.33 95.1078 207.736C95.9116 202.919 96.2135 198.032 96.0086 193.153C95.9031 190.097 95.6828 187.041 95.3473 184.003C95.0601 184.061 94.7727 184.118 94.4851 184.176C89.8098 185.061 85.0833 185.649 80.3337 185.939C75.588 186.202 70.831 186.192 66.0864 185.91C63.7103 185.824 61.3534 185.498 58.9964 185.268C56.6395 184.971 54.3018 184.578 51.9734 184.147H51.964C41.9803 235.387 51.8297 289.157 51.8297 289.157C44.0498 326.906 41.3289 419.125 41.3289 419.125Z" fill="#121212"/>
<path d="M70.3843 412.895C71.0709 416.463 72.5686 419.825 74.7618 422.722C75.8837 424.19 77.2187 425.482 78.7224 426.556C80.249 427.629 81.9561 428.419 83.7624 428.888C85.461 429.264 87.1259 429.78 88.7401 430.429C89.5268 430.751 90.266 431.179 90.9372 431.701C91.544 432.222 92.1016 432.962 91.8467 433.667C91.7194 434.029 91.4654 434.332 91.1316 434.522C90.7855 434.742 90.3978 434.889 89.9927 434.954C89.1134 435.109 88.2477 435.285 87.3712 435.413C85.6274 435.687 83.8703 435.868 82.1072 435.955C80.366 436.037 78.6211 435.993 76.8864 435.821C75.2221 435.686 73.5987 435.235 72.1034 434.492C69.055 432.62 65.906 430.918 62.6705 429.392C60.9872 428.633 59.2204 428.075 57.4067 427.73C56.45 427.568 55.4748 427.548 54.5123 427.671C54.0529 427.736 53.5976 427.827 53.1481 427.942L52.4919 428.087C52.3139 428.13 52.1327 428.158 51.9502 428.171C51.1851 428.221 50.4246 428.02 49.7851 427.597C49.1456 427.174 48.6624 426.553 48.4097 425.829C48.277 425.445 48.2018 425.044 48.1867 424.639L48.0974 423.308C48.0394 422.42 47.9802 421.533 47.9012 420.645C47.8992 420.623 47.8891 420.603 47.8728 420.588C47.8565 420.573 47.8351 420.564 47.813 420.564C47.7908 420.564 47.7695 420.573 47.7531 420.588C47.7368 420.603 47.7267 420.623 47.7248 420.645C47.6455 421.533 47.5865 422.42 47.5285 423.308L47.4392 424.639C47.3971 425.122 47.4358 425.608 47.5535 426.079C47.7995 427.072 48.3721 427.954 49.1793 428.583C49.9866 429.213 50.9817 429.552 52.0052 429.548C52.2661 429.545 52.5264 429.521 52.7834 429.476L53.4349 429.372C53.851 429.291 54.2712 429.233 54.6938 429.199C55.5001 429.149 56.3095 429.217 57.0963 429.4C58.7548 429.806 60.3678 430.38 61.9105 431.112C65.0777 432.542 68.149 434.277 71.3095 435.948C73.022 436.752 74.8857 437.184 76.7774 437.215C78.588 437.28 80.4007 437.18 82.1931 436.916C83.9753 436.696 85.7273 436.338 87.4763 436.003L90.0891 435.482C90.5604 435.396 91.0125 435.227 91.424 434.981C91.8699 434.732 92.2117 434.331 92.3877 433.851C92.4756 433.601 92.5123 433.336 92.4956 433.072C92.4631 432.818 92.3933 432.57 92.2886 432.336C92.0713 431.901 91.7809 431.506 91.4299 431.169C90.7567 430.529 89.9987 429.984 89.1771 429.55C87.5685 428.708 85.8873 428.014 84.154 427.474C82.5473 426.949 81.0191 426.208 79.6111 425.273C78.2081 424.3 76.9346 423.153 75.8212 421.858C73.5746 419.172 71.7946 416.128 70.5556 412.853L70.5532 412.846C70.5453 412.826 70.5299 412.809 70.5102 412.799C70.4904 412.789 70.4677 412.787 70.4465 412.793C70.4253 412.8 70.4072 412.813 70.3957 412.832C70.3842 412.851 70.3801 412.873 70.3843 412.895L70.3843 412.895Z" fill="#121212"/>
<path d="M92.5841 400.278C93.2707 403.846 94.7685 407.208 96.9616 410.105C98.0835 411.573 99.4185 412.865 100.922 413.939C102.449 415.013 104.156 415.803 105.962 416.272C107.661 416.648 109.326 417.163 110.94 417.812C111.727 418.134 112.466 418.562 113.137 419.084C113.744 419.605 114.301 420.346 114.047 421.05C113.919 421.412 113.665 421.716 113.331 421.905C112.985 422.125 112.598 422.273 112.193 422.338C111.313 422.492 110.448 422.669 109.571 422.797C107.827 423.071 106.07 423.251 104.307 423.338C102.566 423.421 100.821 423.376 99.0863 423.204C97.4221 423.069 95.7988 422.619 94.3034 421.876C91.255 420.004 88.1059 418.301 84.8703 416.775C83.1871 416.016 81.4205 415.459 79.6068 415.113C78.65 414.952 77.6747 414.932 76.7121 415.054C76.2528 415.12 75.7975 415.211 75.3479 415.325L74.6917 415.471C73.8522 415.669 72.9691 415.548 72.2144 415.13C71.4597 414.712 70.8876 414.029 70.6095 413.212C70.4767 412.829 70.4016 412.428 70.3865 412.022L70.2972 410.691C70.2392 409.804 70.18 408.916 70.101 408.029C70.099 408.007 70.0889 407.986 70.0726 407.971C70.0563 407.956 70.0349 407.948 70.0128 407.948C69.9906 407.948 69.9693 407.956 69.9529 407.971C69.9366 407.986 69.9265 408.007 69.9246 408.029C69.8455 408.916 69.7863 409.804 69.7283 410.691L69.639 412.022C69.5969 412.505 69.6356 412.992 69.7533 413.462C69.9995 414.456 70.572 415.338 71.3792 415.967C72.1865 416.596 73.1816 416.936 74.205 416.932C74.466 416.929 74.7264 416.905 74.9835 416.859L75.6349 416.756C76.051 416.675 76.4712 416.617 76.8936 416.582C77.7 416.532 78.5093 416.6 79.2962 416.784C80.9546 417.19 82.5676 417.763 84.1104 418.495C87.2778 419.926 90.3491 421.66 93.5095 423.331C95.2218 424.136 97.0855 424.568 98.9773 424.599C100.788 424.664 102.601 424.564 104.393 424.299C106.175 424.08 107.927 423.721 109.676 423.386L112.289 422.865C112.76 422.78 113.212 422.61 113.624 422.365C114.07 422.115 114.412 421.714 114.588 421.235C114.676 420.985 114.712 420.72 114.696 420.456C114.663 420.202 114.593 419.954 114.489 419.72C114.271 419.284 113.981 418.889 113.63 418.552C112.957 417.912 112.199 417.367 111.377 416.933C109.769 416.092 108.087 415.397 106.354 414.858C104.747 414.332 103.219 413.592 101.811 412.656C100.408 411.683 99.1347 410.536 98.0211 409.242C95.7745 406.556 93.9946 403.512 92.7555 400.236L92.7531 400.23C92.7452 400.21 92.7299 400.193 92.7102 400.183C92.6905 400.173 92.6678 400.171 92.6467 400.177C92.6255 400.183 92.6074 400.197 92.5958 400.216C92.5843 400.235 92.5801 400.257 92.5842 400.279L92.5841 400.278ZM112.775 151.276C115.449 150.712 117.974 149.593 120.188 147.99C122.418 146.43 124.464 144.621 126.286 142.598C128.244 140.709 130.076 138.692 131.769 136.561C133.397 134.288 134.487 131.675 134.957 128.919C135.426 126.224 135.667 123.494 135.676 120.759C135.725 118.043 135.738 115.375 135.823 112.68C136.001 107.305 136.155 101.924 136.449 96.5488L136.558 94.5334L136.61 93.5253C136.623 93.251 136.668 92.9791 136.745 92.7154C136.875 92.3241 137.088 91.9654 137.369 91.6641C137.651 91.3627 137.994 91.1258 138.376 90.9696C138.757 90.8133 139.168 90.7415 139.58 90.7589C139.992 90.7763 140.396 90.8826 140.763 91.0705L142.586 91.9599C143.806 92.5451 145.032 93.1168 146.27 93.6656C148.739 94.8012 151.283 95.7667 153.884 96.5554C154.548 96.7458 155.224 96.8932 155.907 96.9966C156.636 97.146 157.392 97.1022 158.099 96.8698C158.294 96.7762 158.469 96.6441 158.613 96.4815C158.716 96.365 158.827 96.2542 158.943 96.1498C159.18 95.9322 159.437 95.7231 159.697 95.5187C160.22 95.1093 160.764 94.7182 161.313 94.3327C163.515 92.7982 165.788 91.3489 168.05 89.8846C170.318 88.4268 172.614 87.0159 174.836 85.4627C175.39 85.0711 175.939 84.673 176.469 84.2243C176.769 83.9908 177.026 83.7064 177.228 83.3841C177.262 83.3152 177.286 83.2413 177.297 83.1652C177.304 83.1017 177.297 83.0377 177.279 82.9767C177.26 82.9157 177.23 82.8591 177.189 82.8101C177.074 82.6924 176.919 82.623 176.755 82.6159C176.567 82.6042 176.379 82.61 176.192 82.6332C174.829 82.7399 173.493 82.9532 172.155 83.1577C169.484 83.5867 166.835 84.1018 164.189 84.665L164.551 85.458C166.433 84.1463 168.178 82.6467 169.757 80.9823C170.19 80.5181 170.537 79.9806 170.781 79.395C170.87 79.1785 170.903 78.9432 170.878 78.7105C170.852 78.4779 170.769 78.2554 170.635 78.0635C170.355 77.7449 169.971 77.5362 169.552 77.475C168.932 77.3744 168.301 77.3751 167.681 77.4768C167.083 77.5503 166.494 77.6779 165.919 77.8581C163.725 78.6596 161.684 79.8327 159.888 81.3261C158.085 82.7569 156.41 84.3412 154.881 86.061L156.045 86.047C154.562 84.3724 152.944 82.8222 151.208 81.4122C150.321 80.6917 149.376 80.046 148.383 79.482C147.313 78.8152 146.08 78.4563 144.82 78.4448L145.665 79.612C145.743 79.4692 145.836 79.3347 145.941 79.2106C146.068 79.0582 146.208 78.9173 146.36 78.7896C146.68 78.5235 147.035 78.3024 147.415 78.1323C148.23 77.7807 149.103 77.5829 149.991 77.5489C150.941 77.4792 151.73 77.6397 152.973 77.6008C154.176 77.5347 155.319 77.0604 156.216 76.2563C157.045 75.4727 157.681 74.506 158.071 73.4334C158.124 73.3066 158.165 73.1775 158.211 73.0498L158.279 72.8453L158.352 72.545C158.422 72.1202 158.368 71.6841 158.195 71.2898C158.025 70.9082 157.755 70.5793 157.415 70.3376C157.074 70.0959 156.675 69.9502 156.259 69.9158C155.852 69.8857 155.445 69.9587 155.075 70.1282L154.43 70.4023C153.994 70.575 153.548 70.7315 153.094 70.872C152.181 71.1537 151.252 71.3787 150.311 71.5457C148.383 71.8136 146.439 71.9541 144.493 71.9663C142.363 71.9829 140.268 72.5033 138.378 73.4849C137.444 74.0059 136.583 74.6485 135.818 75.3959L135.252 75.9479L134.746 76.4588C134.414 76.8069 134.061 77.1147 133.709 77.4291C133.347 77.7346 132.992 78.0139 132.581 78.3283C132.111 78.6646 131.697 79.0744 131.357 79.5418C130.781 80.4363 130.308 81.3928 129.947 82.3932C128.499 86.1438 127.27 89.9033 125.943 93.6455C124.625 97.3801 123.264 101.102 121.859 104.812C119.019 112.216 116.084 119.594 112.993 126.907C112.984 126.928 112.984 126.952 112.992 126.974C113 126.996 113.017 127.013 113.038 127.023C113.059 127.032 113.083 127.033 113.104 127.025C113.126 127.017 113.144 127.001 113.154 126.98C116.593 119.819 119.86 112.572 122.901 105.227C124.433 101.558 125.907 97.8639 127.287 94.1316C128.685 90.4166 130 86.6505 131.483 83.0211C131.813 82.1595 132.233 81.3357 132.737 80.5636C132.989 80.2318 133.294 79.9452 133.642 79.7159C134.025 79.4352 134.457 79.11 134.853 78.7737C135.243 78.4298 135.639 78.0845 135.994 77.7159L136.538 77.1709L137.041 76.6867C137.698 76.0469 138.438 75.4976 139.241 75.0535C140.896 74.2106 142.728 73.7736 144.586 73.7787C146.609 73.7734 148.631 73.6324 150.635 73.3567C151.651 73.1808 152.654 72.9422 153.64 72.6423C154.135 72.4916 154.626 72.321 155.114 72.1305C155.357 72.0336 155.599 71.9335 155.84 71.8255C155.922 71.7857 156.013 71.7679 156.104 71.774C156.184 71.7817 156.261 71.8102 156.327 71.8566C156.393 71.9031 156.446 71.9658 156.48 72.0388C156.507 72.1022 156.516 72.1715 156.506 72.2395C156.499 72.2592 156.494 72.2798 156.492 72.3008L156.443 72.45C156.407 72.5558 156.374 72.6643 156.331 72.7663C156.054 73.5719 155.594 74.3022 154.986 74.8996C154.398 75.4412 153.64 75.7619 152.842 75.8072C152.103 75.8568 150.911 75.6986 149.876 75.7866C148.775 75.8448 147.694 76.1065 146.688 76.5585C146.164 76.8008 145.675 77.1142 145.237 77.49C145.011 77.6849 144.804 77.8994 144.616 78.1309C144.401 78.3866 144.223 78.671 144.086 78.9758C144.027 79.1051 144.002 79.2475 144.014 79.3894C144.025 79.5312 144.074 79.6676 144.154 79.7853C144.233 79.903 144.342 79.9981 144.47 80.0614C144.597 80.1246 144.739 80.1539 144.881 80.1463L144.932 80.143C145.873 80.1724 146.79 80.4496 147.589 80.9468C148.505 81.4557 149.376 82.039 150.196 82.6908C151.87 84.029 153.44 85.4922 154.893 87.0678L154.902 87.0772C154.971 87.1517 155.054 87.2119 155.147 87.2542C155.239 87.2965 155.339 87.3202 155.441 87.3239C155.543 87.3276 155.644 87.3112 155.739 87.2757C155.835 87.2402 155.922 87.1863 155.997 87.1169L156.057 87.0538C157.493 85.379 159.071 83.8307 160.772 82.426C162.424 81.0058 164.299 79.868 166.321 79.0586C166.817 78.8882 167.327 78.7626 167.845 78.6834C168.335 78.5855 168.838 78.5654 169.335 78.624C169.476 78.6384 169.612 78.687 169.731 78.7657C169.742 78.7653 169.783 78.8377 169.717 79.0445C169.528 79.5007 169.265 79.9222 168.937 80.2918C167.458 81.9392 165.813 83.4294 164.028 84.7385L164.014 84.7488C163.934 84.8108 163.877 84.8986 163.854 84.9973C163.831 85.0961 163.842 85.1999 163.885 85.2915C163.929 85.3831 164.003 85.4568 164.095 85.5005C164.186 85.5442 164.29 85.5551 164.389 85.5315C167 84.9074 169.632 84.3268 172.271 83.8356C173.59 83.5895 174.92 83.3846 176.242 83.2639C176.39 83.2441 176.539 83.2363 176.688 83.2405C176.753 83.2359 176.769 83.2765 176.714 83.2185C176.699 83.2027 176.688 83.1836 176.682 83.1628C176.675 83.1419 176.673 83.1199 176.677 83.0983C176.667 83.1002 176.683 83.0903 176.665 83.1175C176.498 83.3598 176.297 83.5763 176.067 83.7598C175.572 84.1874 175.033 84.5869 174.49 84.9776C170.11 88.0858 165.434 90.788 160.949 93.8079C160.391 94.1905 159.835 94.5789 159.291 94.9938C159.02 95.2025 158.75 95.4153 158.488 95.6497C158.352 95.7693 158.223 95.8963 158.102 96.0301C158.021 96.1202 157.923 96.1928 157.814 96.2434C157.228 96.4097 156.609 96.4217 156.017 96.2785C155.371 96.1595 154.733 95.999 154.107 95.798C151.573 94.9419 149.1 93.914 146.706 92.7215C145.498 92.1391 144.297 91.5384 143.106 90.9195L141.322 89.9824C140.622 89.6007 139.826 89.4313 139.031 89.4949C138.226 89.5602 137.456 89.8561 136.815 90.3473C136.173 90.8384 135.687 91.5041 135.414 92.2645C135.288 92.6438 135.209 93.037 135.178 93.4355L135.105 94.4451L134.977 96.4651C134.661 101.853 134.348 107.244 134.289 112.646C134.122 118.05 134.548 123.473 133.636 128.673C133.236 131.258 132.279 133.725 130.83 135.902C129.227 138.037 127.487 140.066 125.619 141.974C123.89 144.013 121.955 145.868 119.845 147.51C118.783 148.319 117.654 149.037 116.471 149.656C115.298 150.295 114.047 150.781 112.75 151.101L112.741 151.104C112.718 151.108 112.699 151.122 112.686 151.141C112.673 151.161 112.669 151.184 112.674 151.207C112.678 151.229 112.691 151.249 112.71 151.262C112.729 151.275 112.753 151.28 112.775 151.276L112.775 151.276Z" fill="#121212"/>
<path d="M164.002 84.6399L157.804 89.1517L164.575 85.5569C164.702 85.4895 164.797 85.3744 164.839 85.2371C164.881 85.0997 164.867 84.9513 164.8 84.8244C164.732 84.6975 164.617 84.6026 164.48 84.5605C164.343 84.5183 164.194 84.5324 164.067 84.5997C164.045 84.6118 164.023 84.6252 164.002 84.6399V84.6399Z" fill="#121212"/>
<path d="M276.326 129.448C276.46 126.459 276.575 123.518 276.661 120.605C276.757 117.692 276.814 114.808 276.853 111.924C276.872 109.366 276.872 106.808 276.834 104.249C279.602 104.211 282.372 104.183 285.14 104.116C288.072 104.048 290.995 103.952 293.926 103.828C294.013 106.587 294.118 109.356 294.128 112.116C294.166 115.057 294.118 117.999 294.003 120.94L293.639 129.764C293.562 132.437 293.562 135.11 293.591 137.774C290.87 137.813 288.149 137.899 285.38 138.023L280.723 138.263L275.923 138.521L276.326 129.448ZM229.292 89.1306C229.436 87.0324 229.55 85.0011 229.56 82.9698C230.173 82.9604 230.777 82.9412 231.39 82.922L234.236 82.836C235.97 82.7976 237.704 82.6633 239.438 82.5291C239.515 83.5831 239.592 84.6465 239.62 85.7005C239.639 86.9557 239.649 88.201 239.582 89.4469C239.457 91.6602 239.17 93.873 239.103 96.0863C237.58 96.0961 236.066 96.1729 234.504 96.2781C232.645 96.4217 230.729 96.6229 228.612 96.8531C228.87 94.1224 229.119 91.5736 229.292 89.1306H229.292ZM229.292 89.1306C229.436 87.0324 229.55 85.0011 229.56 82.9698C230.173 82.9604 230.777 82.9412 231.39 82.922L234.236 82.836C235.97 82.7976 237.704 82.6633 239.438 82.5291C239.515 83.5831 239.592 84.6465 239.62 85.7005C239.639 86.9557 239.649 88.201 239.582 89.4469C239.457 91.6602 239.17 93.873 239.103 96.0863C237.58 96.0961 236.066 96.1729 234.504 96.2781C232.645 96.4217 230.729 96.6229 228.612 96.8531C228.87 94.1224 229.119 91.5736 229.292 89.1306H229.292ZM276.326 129.448C276.46 126.459 276.575 123.518 276.661 120.605C276.757 117.692 276.814 114.808 276.853 111.924C276.872 109.366 276.872 106.808 276.834 104.249C279.602 104.211 282.372 104.183 285.14 104.116C288.072 104.048 290.995 103.952 293.926 103.828C294.013 106.587 294.118 109.356 294.128 112.116C294.166 115.057 294.118 117.999 294.003 120.94L293.639 129.764C293.562 132.437 293.562 135.11 293.591 137.774C290.87 137.813 288.149 137.899 285.38 138.023L280.723 138.263L275.923 138.521L276.326 129.448ZM276.326 129.448C276.46 126.459 276.575 123.518 276.661 120.605C276.757 117.692 276.814 114.808 276.853 111.924C276.872 109.366 276.872 106.808 276.834 104.249C279.602 104.211 282.372 104.183 285.14 104.116C288.072 104.048 290.995 103.952 293.926 103.828C294.013 106.587 294.118 109.356 294.128 112.116C294.166 115.057 294.118 117.999 294.003 120.94L293.639 129.764C293.562 132.437 293.562 135.11 293.591 137.774C290.87 137.813 288.149 137.899 285.38 138.023L280.723 138.263L275.923 138.521L276.326 129.448ZM229.292 89.1306C229.436 87.0324 229.55 85.0011 229.56 82.9698C230.173 82.9604 230.777 82.9412 231.39 82.922L234.236 82.836C235.97 82.7976 237.704 82.6633 239.438 82.5291C239.515 83.5831 239.592 84.6465 239.62 85.7005C239.639 86.9557 239.649 88.201 239.582 89.4469C239.457 91.6602 239.17 93.873 239.103 96.0863C237.58 96.0961 236.066 96.1729 234.504 96.2781C232.645 96.4217 230.729 96.6229 228.612 96.8531C228.87 94.1224 229.119 91.5736 229.292 89.1306H229.292ZM229.292 89.1306C229.436 87.0324 229.55 85.0011 229.56 82.9698C230.173 82.9604 230.777 82.9412 231.39 82.922L234.236 82.836C235.97 82.7976 237.704 82.6633 239.438 82.5291C239.515 83.5831 239.592 84.6465 239.62 85.7005C239.639 86.9557 239.649 88.201 239.582 89.4469C239.457 91.6602 239.17 93.873 239.103 96.0863C237.58 96.0961 236.066 96.1729 234.504 96.2781C232.645 96.4217 230.729 96.6229 228.612 96.8531C228.87 94.1224 229.119 91.5736 229.292 89.1306H229.292ZM276.326 129.448C276.46 126.459 276.575 123.518 276.661 120.605C276.757 117.692 276.814 114.808 276.853 111.924C276.872 109.366 276.872 106.808 276.834 104.249C279.602 104.211 282.372 104.183 285.14 104.116C288.072 104.048 290.995 103.952 293.926 103.828C294.013 106.587 294.118 109.356 294.128 112.116C294.166 115.057 294.118 117.999 294.003 120.94L293.639 129.764C293.562 132.437 293.562 135.11 293.591 137.774C290.87 137.813 288.149 137.899 285.38 138.023L280.723 138.263L275.923 138.521L276.326 129.448ZM276.326 129.448C276.46 126.459 276.575 123.518 276.661 120.605C276.757 117.692 276.814 114.808 276.853 111.924C276.872 109.366 276.872 106.808 276.834 104.249C279.602 104.211 282.372 104.183 285.14 104.116C288.072 104.048 290.995 103.952 293.926 103.828C294.013 106.587 294.118 109.356 294.128 112.116C294.166 115.057 294.118 117.999 294.003 120.94L293.639 129.764C293.562 132.437 293.562 135.11 293.591 137.774C290.87 137.813 288.149 137.899 285.38 138.023L280.723 138.263L275.923 138.521L276.326 129.448ZM229.292 89.1306C229.436 87.0324 229.55 85.0011 229.56 82.9698C230.173 82.9604 230.777 82.9412 231.39 82.922L234.236 82.836C235.97 82.7976 237.704 82.6633 239.438 82.5291C239.515 83.5831 239.592 84.6465 239.62 85.7005C239.639 86.9557 239.649 88.201 239.582 89.4469C239.457 91.6602 239.17 93.873 239.103 96.0863C237.58 96.0961 236.066 96.1729 234.504 96.2781C232.645 96.4217 230.729 96.6229 228.612 96.8531C228.87 94.1224 229.119 91.5736 229.292 89.1306H229.292ZM229.292 89.1306C229.436 87.0324 229.55 85.0011 229.56 82.9698C230.173 82.9604 230.777 82.9412 231.39 82.922L234.236 82.836C235.97 82.7976 237.704 82.6633 239.438 82.5291C239.515 83.5831 239.592 84.6465 239.62 85.7005C239.639 86.9557 239.649 88.201 239.582 89.4469C239.457 91.6602 239.17 93.873 239.103 96.0863C237.58 96.0961 236.066 96.1729 234.504 96.2781C232.645 96.4217 230.729 96.6229 228.612 96.8531C228.87 94.1224 229.119 91.5736 229.292 89.1306H229.292ZM276.326 129.448C276.46 126.459 276.575 123.518 276.661 120.605C276.757 117.692 276.814 114.808 276.853 111.924C276.872 109.366 276.872 106.808 276.834 104.249C279.602 104.211 282.372 104.183 285.14 104.116C288.072 104.048 290.995 103.952 293.926 103.828C294.013 106.587 294.118 109.356 294.128 112.116C294.166 115.057 294.118 117.999 294.003 120.94L293.639 129.764C293.562 132.437 293.562 135.11 293.591 137.774C290.87 137.813 288.149 137.899 285.38 138.023L280.723 138.263L275.923 138.521L276.326 129.448ZM225.967 66.1836H298.65C301.186 66.1842 303.617 67.1918 305.411 68.9849C307.204 70.778 308.211 73.2097 308.212 75.7456V140.457C308.211 142.993 307.204 145.424 305.411 147.217C303.618 149.011 301.186 150.018 298.65 150.019H239.927V135.954C242.255 136.327 244.583 136.528 246.912 136.672C249.307 136.825 251.702 136.864 254.097 136.883C256.493 136.864 258.888 136.816 261.283 136.672C263.687 136.547 266.082 136.297 268.46 135.925C266.083 135.548 263.687 135.298 261.283 135.178C258.888 135.024 256.493 134.986 254.097 134.967C251.702 134.986 249.307 135.024 246.912 135.178C244.572 135.293 242.241 135.533 239.927 135.896V128.94C242.29 129.322 244.673 129.571 247.065 129.688C249.441 129.841 251.817 129.889 254.193 129.898C256.579 129.879 258.955 129.841 261.331 129.688C263.719 129.567 266.099 129.317 268.46 128.94C266.098 128.567 263.719 128.32 261.331 128.202C258.955 128.049 256.579 128.001 254.193 127.982C251.817 128.001 249.441 128.04 247.065 128.193C244.674 128.319 242.292 128.568 239.927 128.94V122.406C242.241 122.764 244.573 123.004 246.912 123.125C249.307 123.278 251.702 123.316 254.097 123.335C256.493 123.316 258.888 123.278 261.283 123.125C263.687 122.999 266.082 122.75 268.46 122.377C266.082 122.004 263.687 121.755 261.283 121.63C258.888 121.476 256.493 121.438 254.097 121.419C251.702 121.438 249.307 121.476 246.912 121.63C244.573 121.751 242.241 121.991 239.927 122.348V121.39C239.928 120.134 239.681 118.89 239.201 117.729C238.72 116.568 238.016 115.513 237.128 114.624C236.24 113.735 235.186 113.03 234.026 112.549C232.865 112.067 231.621 111.819 230.365 111.819H216.405V75.7455C216.405 74.4897 216.652 73.2461 217.132 72.0857C217.612 70.9254 218.317 69.8711 219.205 68.9831C220.093 68.0951 221.147 67.3908 222.307 66.9104C223.468 66.43 224.711 66.1831 225.967 66.1836V66.1836ZM282.266 81.2163C278.213 81.0633 274.16 81.025 270.108 81.0058C266.055 81.025 262.002 81.0634 257.949 81.2163C253.887 81.3604 249.834 81.5616 245.781 81.9639C249.834 82.3663 253.887 82.5674 257.949 82.7111C262.002 82.8645 266.055 82.9029 270.108 82.9221C274.16 82.9029 278.213 82.8645 282.266 82.7111C286.319 82.5674 290.372 82.3569 294.424 81.9639C290.372 81.5709 286.319 81.3604 282.266 81.2163ZM282.266 88.7952C278.213 88.6417 274.16 88.594 270.108 88.5748C266.055 88.594 262.002 88.6324 257.949 88.7858C253.887 88.9295 249.834 89.14 245.781 89.533C249.834 89.9353 253.887 90.1463 257.949 90.2801C262.002 90.4335 266.055 90.4813 270.108 90.4911C274.16 90.4719 278.213 90.4335 282.266 90.2801C286.319 90.1365 290.372 89.9353 294.424 89.533C290.372 89.14 286.319 88.9295 282.266 88.7952V88.7952ZM274.85 112.307C274.898 115.306 274.955 118.305 275.051 121.275C275.138 124.245 275.246 127.184 275.377 130.09C275.492 132.993 275.636 135.858 275.789 138.656L280.273 138.924L284.901 139.163C288.034 139.297 291.234 139.393 294.424 139.422L295.249 139.432L295.258 138.589C295.306 135.647 295.296 132.706 295.21 129.764L294.856 120.94C294.741 117.999 294.693 115.057 294.731 112.116C294.741 109.174 294.856 106.233 294.951 103.291L294.971 102.784L294.424 102.765C291.33 102.63 288.235 102.525 285.14 102.468C282.046 102.391 278.951 102.362 275.856 102.314L274.898 102.295L274.879 103.291C274.821 106.29 274.831 109.299 274.85 112.307V112.307ZM270.108 97.8781C274.16 97.8589 278.213 97.8205 282.266 97.6671C286.319 97.5333 290.372 97.3223 294.424 96.9298C290.372 96.527 286.319 96.3165 282.266 96.1822C278.213 96.0288 274.16 95.9904 270.108 95.9717C266.055 95.9811 262.002 96.0288 257.949 96.1822C253.887 96.3165 249.834 96.527 245.781 96.9298C249.834 97.3223 253.887 97.5333 257.949 97.6769C262.002 97.8205 266.055 97.8687 270.108 97.8781V97.8781ZM247.065 116.149C249.441 116.303 251.817 116.341 254.193 116.36C256.579 116.341 258.955 116.293 261.331 116.14C263.719 116.022 266.099 115.776 268.46 115.402C266.099 115.025 263.719 114.776 261.331 114.655C258.955 114.502 256.579 114.463 254.193 114.444C251.817 114.454 249.441 114.501 247.065 114.655C244.674 114.771 242.291 115.02 239.927 115.402C242.292 115.774 244.674 116.024 247.065 116.149V116.149ZM247.065 108.849C249.441 109.002 251.817 109.04 254.193 109.059C256.579 109.04 258.955 109.002 261.331 108.849C263.719 108.723 266.098 108.473 268.46 108.101C266.098 107.729 263.719 107.48 261.331 107.354C258.955 107.201 256.579 107.162 254.193 107.143C251.817 107.162 249.441 107.201 247.065 107.354C244.674 107.475 242.291 107.724 239.927 108.101C242.291 108.483 244.674 108.732 247.065 108.849V108.849ZM227.797 89.7533C227.97 92.302 228.219 94.745 228.478 96.9967C230.154 97.2264 232.032 97.4276 233.968 97.5717C235.912 97.7055 237.924 97.792 239.927 97.7822L240.789 97.7729L240.78 96.9299C240.78 94.4289 240.416 91.9381 240.281 89.4469C240.205 88.2011 240.214 86.9557 240.234 85.7005C240.272 84.4552 240.368 83.2093 240.454 81.964L240.483 81.4849L239.927 81.4367C238.03 81.2837 236.133 81.1397 234.236 81.0919L231.39 81.0059C230.441 80.9867 229.493 80.9385 228.544 80.9385L227.529 80.9483L227.519 81.964C227.491 84.5796 227.625 87.2144 227.797 89.7533ZM229.56 82.9698C230.173 82.9604 230.777 82.9412 231.39 82.922L234.236 82.836C235.97 82.7976 237.704 82.6633 239.438 82.5291C239.515 83.5831 239.592 84.6465 239.62 85.7005C239.639 86.9557 239.649 88.201 239.582 89.4469C239.458 91.6602 239.17 93.873 239.103 96.0863C237.58 96.0961 236.066 96.1729 234.504 96.2781C232.645 96.4217 230.729 96.6229 228.612 96.8531C228.87 94.1224 229.119 91.5737 229.292 89.1306C229.436 87.0324 229.55 85.0011 229.56 82.9698ZM276.661 120.605C276.757 117.692 276.814 114.808 276.853 111.924C276.872 109.366 276.872 106.808 276.834 104.249C279.602 104.211 282.372 104.183 285.14 104.116C288.072 104.048 290.995 103.952 293.926 103.828C294.013 106.587 294.118 109.356 294.128 112.116C294.166 115.057 294.118 117.999 294.003 120.94L293.639 129.764C293.562 132.437 293.562 135.11 293.591 137.774C290.87 137.812 288.149 137.899 285.38 138.023L280.723 138.263L275.923 138.521L276.326 129.448C276.46 126.459 276.575 123.518 276.661 120.605V120.605ZM276.326 129.448C276.46 126.459 276.575 123.517 276.661 120.605C276.757 117.692 276.814 114.808 276.853 111.924C276.872 109.366 276.872 106.808 276.834 104.249C279.602 104.211 282.372 104.183 285.14 104.116C288.072 104.048 290.995 103.952 293.926 103.828C294.013 106.587 294.118 109.356 294.128 112.116C294.166 115.057 294.118 117.999 294.003 120.94L293.639 129.764C293.562 132.437 293.562 135.11 293.591 137.774C290.87 137.812 288.149 137.899 285.38 138.023L280.723 138.263L275.923 138.521L276.326 129.448ZM229.292 89.1306C229.436 87.0324 229.55 85.001 229.56 82.9697C230.173 82.9604 230.777 82.9412 231.39 82.922L234.236 82.8359C235.97 82.7976 237.704 82.6633 239.438 82.529C239.515 83.583 239.592 84.6464 239.62 85.7004C239.639 86.9556 239.649 88.201 239.582 89.4468C239.457 91.6601 239.17 93.873 239.103 96.0863C237.58 96.0961 236.066 96.1728 234.504 96.2781C232.645 96.4217 230.729 96.6229 228.612 96.8531C228.87 94.1224 229.119 91.5736 229.292 89.1306L229.292 89.1306ZM229.292 89.1306C229.436 87.0324 229.55 85.001 229.56 82.9697C230.173 82.9604 230.777 82.9412 231.39 82.922L234.236 82.8359C235.97 82.7976 237.704 82.6633 239.438 82.529C239.515 83.583 239.592 84.6464 239.62 85.7004C239.639 86.9556 239.649 88.201 239.582 89.4468C239.457 91.6601 239.17 93.873 239.103 96.0863C237.58 96.0961 236.066 96.1728 234.504 96.2781C232.645 96.4217 230.729 96.6229 228.612 96.8531C228.87 94.1224 229.119 91.5736 229.292 89.1306L229.292 89.1306ZM276.326 129.448C276.46 126.459 276.575 123.517 276.661 120.605C276.757 117.692 276.814 114.808 276.853 111.924C276.872 109.366 276.872 106.808 276.834 104.249C279.602 104.211 282.372 104.183 285.14 104.116C288.072 104.048 290.995 103.952 293.926 103.828C294.013 106.587 294.118 109.356 294.128 112.116C294.166 115.057 294.118 117.999 294.003 120.94L293.639 129.764C293.562 132.437 293.562 135.11 293.591 137.774C290.87 137.812 288.149 137.899 285.38 138.023L280.723 138.263L275.923 138.521L276.326 129.448ZM276.326 129.448C276.46 126.459 276.575 123.517 276.661 120.605C276.757 117.692 276.814 114.808 276.853 111.924C276.872 109.366 276.872 106.808 276.834 104.249C279.602 104.211 282.372 104.183 285.14 104.116C288.072 104.048 290.995 103.952 293.926 103.828C294.013 106.587 294.118 109.356 294.128 112.116C294.166 115.057 294.118 117.999 294.003 120.94L293.639 129.764C293.562 132.437 293.562 135.11 293.591 137.774C290.87 137.812 288.149 137.899 285.38 138.023L280.723 138.263L275.923 138.521L276.326 129.448ZM229.292 89.1306C229.436 87.0324 229.55 85.001 229.56 82.9697C230.173 82.9604 230.777 82.9412 231.39 82.922L234.236 82.8359C235.97 82.7976 237.704 82.6633 239.438 82.529C239.515 83.583 239.592 84.6464 239.62 85.7004C239.639 86.9556 239.649 88.201 239.582 89.4468C239.457 91.6601 239.17 93.873 239.103 96.0863C237.58 96.0961 236.066 96.1728 234.504 96.2781C232.645 96.4217 230.729 96.6229 228.612 96.8531C228.87 94.1224 229.119 91.5736 229.292 89.1306L229.292 89.1306ZM229.292 89.1306C229.436 87.0324 229.55 85.001 229.56 82.9697C230.173 82.9604 230.777 82.9412 231.39 82.922L234.236 82.8359C235.97 82.7976 237.704 82.6633 239.438 82.529C239.515 83.583 239.592 84.6464 239.62 85.7004C239.639 86.9556 239.649 88.201 239.582 89.4468C239.457 91.6601 239.17 93.873 239.103 96.0863C237.58 96.0961 236.066 96.1728 234.504 96.2781C232.645 96.4217 230.729 96.6229 228.612 96.8531C228.87 94.1224 229.119 91.5736 229.292 89.1306L229.292 89.1306ZM276.326 129.448C276.46 126.459 276.575 123.517 276.661 120.605C276.757 117.692 276.814 114.808 276.853 111.924C276.872 109.366 276.872 106.808 276.834 104.249C279.602 104.211 282.372 104.183 285.14 104.116C288.072 104.048 290.995 103.952 293.926 103.828C294.013 106.587 294.118 109.356 294.128 112.116C294.166 115.057 294.118 117.999 294.003 120.94L293.639 129.764C293.562 132.437 293.562 135.11 293.591 137.774C290.87 137.812 288.149 137.899 285.38 138.023L280.723 138.263L275.923 138.521L276.326 129.448ZM229.292 89.1306C229.436 87.0324 229.55 85.001 229.56 82.9697C230.173 82.9604 230.777 82.9412 231.39 82.922L234.236 82.8359C235.97 82.7976 237.704 82.6633 239.438 82.529C239.515 83.583 239.592 84.6464 239.62 85.7004C239.639 86.9556 239.649 88.201 239.582 89.4468C239.457 91.6601 239.17 93.873 239.103 96.0863C237.58 96.0961 236.066 96.1728 234.504 96.2781C232.645 96.4217 230.729 96.6229 228.612 96.8531C228.87 94.1224 229.119 91.5736 229.292 89.1306L229.292 89.1306ZM229.292 89.1306C229.436 87.0324 229.55 85.001 229.56 82.9697C230.173 82.9604 230.777 82.9412 231.39 82.922L234.236 82.8359C235.97 82.7976 237.704 82.6633 239.438 82.529C239.515 83.583 239.592 84.6464 239.62 85.7004C239.639 86.9556 239.649 88.201 239.582 89.4468C239.457 91.6601 239.17 93.873 239.103 96.0863C237.58 96.0961 236.066 96.1728 234.504 96.2781C232.645 96.4217 230.729 96.6229 228.612 96.8531C228.87 94.1224 229.119 91.5736 229.292 89.1306L229.292 89.1306ZM-89.6007 105.801C-82.0736 105.852 -74.5467 105.849 -67.0197 105.943L-44.4387 106.266C-36.9116 106.403 -29.3847 106.422 -21.8577 106.477C-18.0744 106.502 -14.3748 106.531 -10.5229 106.451C-8.49658 106.326 -6.54375 105.645 -4.8783 104.484C-3.21284 103.324 -1.89901 101.727 -1.08069 99.8687C-0.672312 98.9465 -0.400655 97.9697 -0.274353 96.9691C-0.207072 96.4715 -0.171857 95.97 -0.168884 95.4678L-0.180847 94.0517L-0.242798 88.4069L-0.368652 77.1163L-0.49707 65.8257L-0.554138 54.5351C-0.611918 47.0082 -0.57874 39.4812 -0.5495 31.9543L-0.530273 26.309C-0.498498 25.3449 -0.562951 24.3799 -0.722595 23.4286C-0.920125 22.4733 -1.24078 21.5477 -1.67651 20.6749C-2.56368 18.9194 -3.91783 17.4426 -5.59009 16.4069C-7.269 15.3635 -9.2015 14.7995 -11.1781 14.7761C-26.2322 14.6657 -41.286 14.4757 -56.3401 14.4299L-78.9211 14.3401C-82.7085 14.3316 -86.395 14.2933 -90.2651 14.3649C-92.3223 14.4883 -94.3058 15.1756 -95.9985 16.3513C-97.6911 17.527 -99.0276 19.1458 -99.8615 21.0305C-100.276 21.9681 -100.558 22.9593 -100.698 23.975C-100.771 24.4812 -100.811 24.9916 -100.818 25.503L-100.82 26.92L-100.811 32.5653C-100.807 36.3285 -100.806 40.0922 -100.759 43.8559C-100.684 51.3828 -100.639 58.9098 -100.5 66.4367L-100.164 89.0179L-100.105 94.6627C-100.124 95.6158 -100.047 96.5685 -99.8757 97.5062C-99.6683 98.4402 -99.3408 99.3435 -98.9014 100.193C-98.0111 101.888 -96.6736 103.307 -95.034 104.296C-93.3944 105.284 -91.5153 105.805 -89.6008 105.801L-89.6007 105.801ZM-89.6007 105.625C-91.4741 105.608 -93.3071 105.078 -94.9012 104.094C-96.4921 103.116 -97.7822 101.717 -98.6296 100.053C-99.0458 99.2242 -99.3532 98.3455 -99.5442 97.4383C-99.7004 96.5218 -99.764 95.5919 -99.7339 94.6627L-99.6746 89.0179L-99.3394 66.4367C-99.2002 58.9098 -99.1548 51.3828 -99.0801 43.8559C-99.0331 40.0922 -99.0315 36.3285 -99.0278 32.5653L-99.0191 26.92L-99.0135 25.5147C-99.0051 25.0852 -98.9694 24.6568 -98.9066 24.2319C-98.7877 23.3816 -98.5497 22.5523 -98.1996 21.7683C-97.4982 20.1933 -96.3766 18.8418 -94.9579 17.8621C-93.5392 16.8824 -91.8781 16.3123 -90.1567 16.2142C-89.7446 16.1848 -89.2774 16.1824 -88.8002 16.1871L-87.389 16.1894L-84.5663 16.1936L-78.9211 16.1777L-56.3401 16.0879C-41.286 16.0421 -26.2321 15.8521 -11.178 15.7417C-9.36457 15.7318 -7.58304 16.2187 -6.02679 17.1498C-4.47055 18.0808 -3.19905 19.4204 -2.35034 21.023C-1.9301 21.8283 -1.61578 22.6845 -1.41516 23.5704C-1.24653 24.4732 -1.17047 25.3908 -1.18823 26.309L-1.16925 31.9544C-1.14001 39.4813 -1.10683 47.0082 -1.16437 54.5351L-1.22168 65.8257L-1.3501 77.1163L-1.47571 88.4069L-1.53766 94.0518L-1.55664 95.4585C-1.56948 95.8972 -1.61022 96.3345 -1.67871 96.768C-1.81135 97.6333 -2.05921 98.4769 -2.41559 99.2765C-3.13274 100.878 -4.27696 102.251 -5.7229 103.246C-7.16884 104.24 -8.86065 104.817 -10.6129 104.914L-21.8577 104.949C-29.3846 105.005 -36.9115 105.023 -44.4387 105.16L-67.0197 105.483C-74.5467 105.578 -82.0735 105.574 -89.6007 105.625Z" fill="#121212"/>
<path d="M-50.2506 85.3574C-48.8956 85.3574 -47.5537 85.6243 -46.3018 86.1429C-45.0499 86.6614 -43.9124 87.4215 -42.9542 88.3797C-41.996 89.3379 -41.236 90.4754 -40.7174 91.7273C-40.1988 92.9793 -39.9319 94.3211 -39.9319 95.6761V105.713H-89.6004C-92.3371 105.713 -94.9616 104.626 -96.8968 102.691C-98.8319 100.756 -99.9191 98.1312 -99.9191 95.3945V85.3574H-50.2506ZM267.065 245.581C281.017 245.553 294.969 245.836 308.921 246.046C315.897 246.183 322.872 246.201 329.848 246.257C333.356 246.283 336.78 246.308 340.357 246.233C342.245 246.116 344.064 245.482 345.616 244.4C347.167 243.318 348.391 241.829 349.153 240.098C349.533 239.239 349.786 238.329 349.903 237.396C349.965 236.933 349.998 236.466 350 235.998L349.988 234.685L349.926 229.454L349.8 218.99L349.672 208.526L349.614 198.062C349.557 191.086 349.59 184.11 349.619 177.134L349.638 171.902C349.668 171.007 349.609 170.111 349.462 169.227C349.278 168.339 348.981 167.479 348.577 166.667C347.753 165.035 346.495 163.662 344.941 162.698C343.381 161.727 341.584 161.201 339.746 161.178C325.794 161.009 311.842 160.893 297.891 160.832L276.963 160.742C273.451 160.732 270.04 160.697 266.445 160.765C264.526 160.88 262.676 161.521 261.098 162.618C259.519 163.715 258.272 165.225 257.495 166.983C257.108 167.858 256.845 168.782 256.715 169.73C256.647 170.202 256.61 170.678 256.603 171.154L256.601 172.468L256.61 177.7C256.614 181.188 256.616 184.676 256.663 188.164C256.737 195.14 256.783 202.116 256.922 209.092L257.257 230.019L257.316 235.252C257.299 236.136 257.371 237.02 257.53 237.889C257.723 238.756 258.027 239.594 258.435 240.382C259.264 241.952 260.506 243.266 262.027 244.183C263.548 245.099 265.29 245.582 267.065 245.581V245.581ZM267.065 245.405C265.334 245.386 263.641 244.896 262.168 243.986C260.695 243.076 259.498 241.782 258.707 240.242C258.322 239.475 258.038 238.661 257.862 237.822C257.717 236.973 257.659 236.112 257.687 235.252L257.747 230.02L258.082 209.092C258.221 202.116 258.267 195.14 258.341 188.164C258.388 184.676 258.39 181.188 258.394 177.7L258.402 172.469L258.408 171.167C258.415 170.772 258.448 170.378 258.506 169.987C258.616 169.205 258.835 168.442 259.157 167.721C259.802 166.272 260.834 165.03 262.138 164.129C263.443 163.228 264.971 162.704 266.554 162.614C266.931 162.587 267.364 162.585 267.807 162.589L269.115 162.592L271.731 162.596L276.963 162.58L297.891 162.49C311.842 162.439 325.794 162.323 339.746 162.144C341.42 162.136 343.065 162.586 344.502 163.445C345.94 164.304 347.116 165.538 347.903 167.016C348.292 167.76 348.583 168.551 348.769 169.369C348.926 170.204 348.996 171.053 348.98 171.902L348.999 177.134C349.029 184.11 349.062 191.086 349.004 198.062L348.947 208.526L348.819 218.99L348.693 229.454L348.631 234.685L348.612 235.989C348.6 236.393 348.562 236.796 348.499 237.195C348.375 237.992 348.147 238.769 347.818 239.506C347.157 240.981 346.103 242.246 344.771 243.161C343.439 244.077 341.88 244.608 340.267 244.696L329.848 244.729C322.872 244.784 315.897 244.803 308.921 244.94C294.969 245.149 281.017 245.432 267.065 245.405V245.405Z" fill="#121212"/>
<path d="M239.726 122.377C239.793 122.387 239.86 122.396 239.927 122.406V122.349C239.86 122.358 239.793 122.368 239.726 122.377ZM239.726 135.925C239.793 135.935 239.86 135.944 239.927 135.954V135.896C239.86 135.906 239.793 135.916 239.726 135.925Z" fill="white"/>
<path d="M226.968 125.426C222.914 125.061 218.86 124.87 214.807 124.74C210.753 124.599 206.699 124.562 202.645 124.545C198.592 124.56 194.538 124.598 190.484 124.737C186.431 124.867 182.377 125.058 178.323 125.426C182.377 125.792 186.431 125.984 190.484 126.113C194.538 126.253 198.592 126.291 202.645 126.307C206.699 126.289 210.753 126.251 214.807 126.111C218.86 125.981 222.914 125.79 226.968 125.426ZM226.968 132.997C222.914 132.633 218.86 132.442 214.807 132.312C210.753 132.171 206.699 132.134 202.645 132.116C198.592 132.132 194.538 132.169 190.484 132.309C186.431 132.438 182.377 132.63 178.323 132.997C182.377 133.364 186.431 133.556 190.484 133.685C194.538 133.825 198.592 133.863 202.645 133.878C206.699 133.861 210.753 133.823 214.807 133.682C218.86 133.553 222.914 133.362 226.968 132.997ZM226.968 140.386C222.914 140.021 218.86 139.831 214.807 139.701C210.753 139.561 206.699 139.523 202.645 139.505C198.592 139.521 194.538 139.558 190.484 139.699C186.431 139.828 182.377 140.019 178.323 140.386C182.377 140.753 186.431 140.945 190.484 141.074C194.538 141.214 198.592 141.252 202.645 141.267C206.699 141.249 210.753 141.212 214.807 141.072C218.86 140.942 222.914 140.751 226.968 140.386ZM161.02 140.449C162.718 140.663 164.592 140.846 166.53 140.977C168.471 141.102 170.476 141.187 172.468 141.172L173.256 141.167L173.254 140.386C173.248 137.893 172.919 135.399 172.79 132.906C172.723 131.659 172.731 130.412 172.751 129.165C172.781 127.919 172.874 126.672 172.95 125.426L172.977 124.981L172.468 124.943C170.57 124.801 168.672 124.665 166.775 124.62L163.928 124.543C162.979 124.522 162.031 124.479 161.082 124.486L160.152 124.493L160.143 125.426C160.115 128.031 160.239 130.653 160.394 133.191C160.553 135.731 160.782 138.178 161.02 140.449ZM161.144 140.324C161.381 137.607 161.611 135.068 161.77 132.621C161.925 130.172 162.048 127.806 162.021 125.426L161.082 126.365C162.031 126.372 162.979 126.329 163.928 126.307L166.775 126.23C168.672 126.185 170.57 126.05 172.468 125.908L171.985 125.426C172.061 126.672 172.155 127.919 172.184 129.165C172.205 130.412 172.213 131.659 172.145 132.906C172.017 135.399 171.688 137.893 171.682 140.386L172.468 139.6C170.663 139.586 168.874 139.671 167.019 139.795C165.162 139.927 163.241 140.109 161.144 140.324ZM208.33 182.115L212.828 182.359L217.463 182.576C220.592 182.7 223.782 182.794 226.968 182.818L227.723 182.823L227.733 182.052C227.771 179.11 227.77 176.168 227.691 173.227L227.361 164.401C227.256 161.459 227.217 158.517 227.244 155.575C227.254 152.633 227.359 149.691 227.45 146.749L227.465 146.286L226.968 146.266C223.872 146.148 220.776 146.049 217.68 145.99L208.393 145.852L207.511 145.839L207.496 146.749C207.446 149.744 207.449 152.751 207.474 155.75C207.51 158.748 207.565 161.742 207.664 164.703C207.815 170.641 208.062 176.487 208.33 182.115ZM208.455 181.99C208.723 175.85 208.97 169.928 209.121 164.099C209.22 161.176 209.275 158.286 209.311 155.4C209.336 152.516 209.339 149.638 209.29 146.749L208.393 147.646L217.68 147.508C220.776 147.449 223.872 147.35 226.968 147.232L226.485 146.749C226.576 149.691 226.681 152.633 226.692 155.575C226.722 158.517 226.683 161.459 226.574 164.401L226.244 173.227C226.166 176.168 226.165 179.111 226.203 182.052L226.968 181.287C223.962 181.311 220.961 181.405 217.897 181.529L208.455 181.99ZM201.004 151.564C197.699 151.199 194.395 151.008 191.09 150.878C187.785 150.738 184.481 150.7 181.177 150.683C177.872 150.698 174.568 150.736 171.263 150.876C167.959 151.005 164.654 151.197 161.35 151.564C164.654 151.931 167.959 152.122 171.263 152.251C174.568 152.392 177.872 152.429 181.177 152.445C184.481 152.427 187.785 152.389 191.09 152.249C194.395 152.119 197.699 151.929 201.004 151.564ZM201.004 158.859C197.699 158.494 194.395 158.303 191.09 158.174C187.785 158.033 184.481 157.995 181.177 157.978C177.872 157.994 174.568 158.031 171.263 158.171C167.959 158.301 164.654 158.492 161.35 158.859C164.654 159.226 167.959 159.418 171.263 159.547C174.568 159.687 177.872 159.725 181.177 159.74C184.481 159.722 187.785 159.685 191.09 159.544C194.395 159.414 197.699 159.224 201.004 158.859ZM201.004 165.838C197.682 165.473 194.361 165.282 191.04 165.152C187.719 165.012 184.398 164.974 181.077 164.957C177.756 164.972 174.435 165.01 171.114 165.15C167.793 165.279 164.471 165.47 161.15 165.838C164.471 166.204 167.793 166.396 171.114 166.525C174.435 166.666 177.756 166.703 181.077 166.719C184.398 166.701 187.719 166.663 191.04 166.523C194.361 166.393 197.682 166.202 201.004 165.838ZM201.004 172.406C197.699 172.041 194.395 171.85 191.09 171.721C187.785 171.58 184.481 171.542 181.177 171.525C177.872 171.54 174.568 171.578 171.263 171.718C167.959 171.847 164.654 172.039 161.35 172.406C164.654 172.773 167.959 172.964 171.263 173.093C174.568 173.234 177.872 173.271 181.177 173.287C184.481 173.269 187.785 173.231 191.09 173.091C194.395 172.961 197.699 172.77 201.004 172.406ZM201.004 179.384C197.682 179.019 194.361 178.829 191.04 178.699C187.719 178.558 184.398 178.521 181.077 178.503C177.756 178.519 174.435 178.556 171.114 178.696C167.793 178.826 164.471 179.017 161.15 179.384C164.471 179.751 167.793 179.943 171.114 180.072C174.435 180.212 177.756 180.25 181.077 180.265C184.398 180.248 187.719 180.21 191.04 180.07C194.361 179.94 197.682 179.749 201.004 179.384Z" fill="#121212"/>
<path d="M157.684 195.743C171.636 195.715 185.588 195.998 199.54 196.208C206.516 196.345 213.492 196.363 220.467 196.418C223.975 196.445 227.399 196.47 230.976 196.394C232.864 196.278 234.683 195.643 236.235 194.561C237.786 193.479 239.01 191.991 239.772 190.26C240.153 189.401 240.405 188.49 240.522 187.558C240.584 187.094 240.617 186.627 240.619 186.16L240.607 184.847L240.545 179.615L240.419 169.152L240.291 158.688L240.233 148.224C240.176 141.248 240.209 134.272 240.238 127.296L240.257 122.064C240.287 121.169 240.228 120.273 240.081 119.39C239.898 118.502 239.6 117.641 239.196 116.83C238.372 115.197 237.114 113.824 235.56 112.86C234 111.889 232.203 111.363 230.365 111.341C216.413 111.171 202.461 111.056 188.51 110.994L167.582 110.905C164.07 110.895 160.659 110.86 157.064 110.927C155.146 111.042 153.295 111.684 151.717 112.78C150.138 113.877 148.891 115.387 148.114 117.145C147.727 118.02 147.464 118.944 147.334 119.892C147.266 120.364 147.228 120.84 147.222 121.317L147.221 122.63L147.229 127.863C147.233 131.35 147.235 134.838 147.281 138.326C147.356 145.302 147.402 152.278 147.541 159.254L147.876 180.182L147.935 185.414C147.918 186.298 147.99 187.181 148.149 188.051C148.342 188.918 148.646 189.756 149.055 190.544C149.883 192.114 151.125 193.428 152.646 194.345C154.167 195.261 155.909 195.744 157.684 195.743ZM157.684 195.566C155.953 195.548 154.26 195.058 152.787 194.148C151.314 193.239 150.117 191.944 149.326 190.404C148.941 189.637 148.657 188.823 148.481 187.983C148.337 187.135 148.278 186.274 148.306 185.414L148.366 180.182L148.701 159.254C148.84 152.278 148.886 145.302 148.96 138.326C149.007 134.838 149.009 131.35 149.013 127.863L149.021 122.63L149.027 121.328C149.034 120.933 149.067 120.539 149.125 120.148C149.235 119.366 149.454 118.604 149.775 117.883C150.421 116.434 151.452 115.192 152.757 114.291C154.062 113.39 155.59 112.866 157.173 112.776C157.551 112.749 157.983 112.747 158.426 112.752L159.734 112.753L162.35 112.758L167.582 112.742L188.51 112.652C202.461 112.6 216.413 112.485 230.365 112.306C232.039 112.298 233.684 112.748 235.122 113.607C236.559 114.466 237.735 115.7 238.522 117.178C238.911 117.922 239.202 118.713 239.388 119.531C239.544 120.366 239.615 121.215 239.599 122.064L239.618 127.296C239.648 134.272 239.681 141.248 239.623 148.224L239.566 158.688L239.438 169.152L239.312 179.615L239.25 184.847L239.231 186.151C239.219 186.555 239.181 186.958 239.117 187.357C238.994 188.154 238.766 188.931 238.437 189.668C237.776 191.143 236.722 192.407 235.39 193.323C234.058 194.238 232.499 194.769 230.885 194.858L220.467 194.891C213.492 194.946 206.516 194.964 199.54 195.101C185.588 195.311 171.636 195.594 157.684 195.566ZM-14.954 74.3966C-20.8599 73.9119 -26.7658 73.6579 -32.6717 73.4857C-38.5776 73.2986 -44.4835 73.249 -50.3894 73.2256C-56.2952 73.2462 -62.2011 73.2958 -68.107 73.482C-74.0129 73.6537 -79.9188 73.9086 -85.8247 74.3966C-79.9188 74.8845 -74.0129 75.1395 -68.107 75.3112C-62.2011 75.4974 -56.2952 75.5474 -50.3894 75.5675C-44.4835 75.5442 -38.5776 75.4945 -32.6717 75.3074C-26.7658 75.1353 -20.8599 74.8817 -14.954 74.3966Z" fill="#121212"/>
<path d="M-93.752 148.577C-93.5546 148.963 -93.2537 149.287 -92.8829 149.512C-92.5121 149.737 -92.0861 149.855 -91.6524 149.851C-91.2187 149.848 -90.7944 149.724 -90.427 149.494C-90.0596 149.263 -89.7635 148.935 -89.5719 148.546L-85.1757 139.621L-80.5978 148.577C-80.4005 148.963 -80.0996 149.287 -79.7288 149.512C-79.358 149.737 -78.9319 149.855 -78.4982 149.851C-78.0645 149.848 -77.6402 149.724 -77.2728 149.494C-76.9054 149.264 -76.6094 148.935 -76.4177 148.546L-71.7023 138.973L-65.9542 152.727H-115.309L-104.079 128.373L-93.752 148.577ZM301.946 204.948L298.363 230.175C298.42 230.184 298.478 230.184 298.526 230.194C298.89 230.232 299.254 230.261 299.618 230.28H299.733C305.104 230.552 310.427 229.146 314.962 226.257C319.498 223.367 323.023 219.138 325.046 214.155C325.056 214.107 325.075 214.069 325.084 214.031C325.219 213.705 325.353 213.37 325.468 213.034C325.525 212.881 325.573 212.718 325.621 212.565C325.698 212.335 325.774 212.095 325.851 211.856C325.975 211.453 326.081 211.041 326.186 210.629C326.301 210.17 326.397 209.7 326.493 209.24C326.512 209.135 326.522 209.029 326.541 208.924C326.608 208.55 326.666 208.186 326.713 207.813C326.732 207.717 326.742 207.621 326.752 207.525C326.8 207.132 326.838 206.749 326.867 206.356C326.875 206.286 326.878 206.216 326.876 206.145C326.905 205.724 326.924 205.292 326.934 204.871V204.766C326.977 201.896 326.54 199.04 325.64 196.315C325.621 196.267 325.602 196.209 325.583 196.162C325.458 195.779 325.324 195.405 325.18 195.041L325.065 194.753C324.931 194.428 324.788 194.102 324.644 193.776C324.596 193.661 324.548 193.555 324.5 193.45C324.337 193.115 324.174 192.789 324.012 192.464C323.964 192.377 323.916 192.291 323.877 192.205C323.657 191.793 323.427 191.39 323.187 190.997C323.149 190.94 323.111 190.882 323.073 190.815C322.871 190.49 322.66 190.164 322.45 189.848C322.364 189.723 322.277 189.608 322.191 189.493C322.153 189.436 322.114 189.378 322.076 189.33L301.946 204.948ZM301.199 203.08L320.898 187.807C316.649 182.719 310.609 179.458 304.024 178.695C297.44 177.932 290.814 179.726 285.514 183.706L301.199 203.08ZM294.837 229.562C295.373 229.696 295.919 229.811 296.456 229.907L300.03 204.699L284.01 184.913C283.751 185.143 283.502 185.373 283.253 185.613C283.196 185.661 283.148 185.709 283.1 185.757C282.621 186.217 282.151 186.696 281.711 187.194C281.711 187.195 281.71 187.196 281.71 187.198C281.709 187.199 281.709 187.2 281.708 187.201C281.707 187.202 281.706 187.202 281.705 187.203C281.703 187.203 281.702 187.203 281.701 187.203C280.779 188.239 279.943 189.348 279.2 190.518C279.191 190.528 279.191 190.538 279.181 190.547C278.443 191.708 277.799 192.925 277.255 194.188C277.245 194.205 277.238 194.225 277.236 194.246C276.978 194.84 276.757 195.443 276.546 196.057C276.508 196.162 276.47 196.267 276.441 196.373C276.24 196.976 276.058 197.589 275.905 198.212C275.089 201.514 274.932 204.944 275.442 208.306C275.952 211.668 277.119 214.897 278.877 217.808C280.635 220.72 282.949 223.256 285.688 225.272C288.426 227.289 291.535 228.747 294.837 229.562V229.562Z" fill="#121212"/>
<path d="M322.095 189.311L321.626 188.708C321.779 188.909 321.932 189.119 322.076 189.33L322.095 189.311ZM320.917 187.788L320.898 187.807C321.099 188.046 321.3 188.296 321.501 188.544L320.917 187.788ZM298.228 230.165C298.018 230.136 297.807 230.117 297.596 230.089L298.363 230.194V230.175C298.324 230.175 298.276 230.165 298.228 230.165ZM297.165 230.021C296.926 229.993 296.696 229.954 296.456 229.907V229.925L297.165 230.021ZM285.495 183.687L284.748 184.3C284.997 184.099 285.255 183.898 285.514 183.706L285.495 183.687ZM284.001 184.904L284.01 184.913C284.24 184.712 284.48 184.511 284.719 184.32L284.001 184.904Z" fill="white"/>
</svg>
