<svg width="90" height="90" viewBox="0 0 90 90" fill="none" xmlns="http://www.w3.org/2000/svg">
<path d="M8.69355 71.5865C13.2091 77.7529 19.2209 82.6676 26.1619 85.8672C33.1029 89.0667 40.7445 90.4456 48.3661 89.8739C55.9877 89.3022 63.3381 86.7987 69.7241 82.5995C76.1101 78.4002 81.3214 72.6436 84.8665 65.8725C88.4116 59.1015 90.1736 51.539 89.9865 43.8983C89.7994 36.2576 87.6693 28.7905 83.797 22.2011C79.9247 15.6116 74.4379 10.117 67.854 6.2354C61.2701 2.35378 53.806 0.213059 46.1656 0.0150971L46.0623 4.00122C53.0257 4.18164 59.8284 6.13268 65.8289 9.67034C71.8294 13.208 76.83 18.2157 80.3592 24.2213C83.8883 30.2268 85.8297 37.0323 86.0002 43.9959C86.1708 50.9596 84.5648 57.8519 81.3339 64.023C78.103 70.1941 73.3535 75.4406 67.5333 79.2678C61.7131 83.0949 55.0141 85.3766 48.0678 85.8976C41.1216 86.4187 34.1572 85.1619 27.8312 82.2459C21.5052 79.3299 16.0261 74.8507 11.9107 69.2307L8.69355 71.5865Z" fill="#121212"/>
<circle cx="45" cy="45" r="33" fill="#121212"/>
<path d="M47.4302 38.93L53.5002 45L47.4302 51.07" stroke="white" stroke-width="2" stroke-miterlimit="10" stroke-linecap="round" stroke-linejoin="round"/>
<path d="M36.5 45H53.33" stroke="white" stroke-width="2" stroke-miterlimit="10" stroke-linecap="round" stroke-linejoin="round"/>
</svg>
