<svg width="262" height="48" viewBox="0 0 262 48" fill="none" xmlns="http://www.w3.org/2000/svg">
<path d="M0 4H20C31.0457 4 40 12.9543 40 24C40 35.0457 31.0457 44 20 44H0V4Z" fill="#D8605D"/>
<path opacity="0.7" d="M8 12H20C26.6274 12 32 17.3726 32 24C32 30.6274 26.6274 36 20 36H8V12Z" fill="white"/>
<path d="M12 14H22C27.5228 14 32 18.4772 32 24C32 29.5228 27.5228 34 22 34H12C12 34 20.9474 34 20.9474 24C20.9474 14 12 14 12 14Z" fill="white"/>
<path d="M53.9531 38H66.0039C74.5391 38 79.5781 32.7266 79.5781 23.7031V23.6641C79.5781 14.6602 74.5391 9.81641 66.0039 9.81641H53.9531V38ZM62.2344 31.418V16.3984H64.832C68.7773 16.3984 71.1406 18.9375 71.1406 23.6641V23.7031C71.1406 28.8984 68.9727 31.418 64.832 31.418H62.2344ZM93.0742 38.4688C100.574 38.4688 103.035 34.0742 103.68 31.2617L103.738 31.0078H96.6094L96.5898 31.0664C96.375 31.6914 95.3398 32.9609 93.2305 32.9609C91.043 32.9609 89.7148 31.4961 89.6367 29.0156H103.836V26.75C103.836 20.1875 99.5391 15.9688 92.8203 15.9688C86.082 15.9688 81.8242 20.1875 81.8242 27.1992V27.2188C81.8242 34.2305 86.082 38.4688 93.0742 38.4688ZM93.0352 21.4766C94.7734 21.4766 95.9844 22.5703 96.3359 24.4844H89.7344C90.0859 22.5703 91.2969 21.4766 93.0352 21.4766ZM116.98 38.4688C123.582 38.4688 127.449 34.5234 127.449 29.25V29.1328H120.164L120.145 29.3281C119.949 31.3008 118.875 32.5312 117.078 32.5312C114.949 32.5312 113.855 30.6758 113.855 27.2188V27.1992C113.855 23.8008 115.008 21.9062 117.078 21.9062C118.797 21.9062 119.949 23.1562 120.145 25.1094L120.164 25.3047H127.449V25.1875C127.449 19.6211 123.211 15.9688 116.922 15.9688C110.008 15.9688 105.73 20.1875 105.73 27.1797V27.1992C105.73 34.25 109.988 38.4688 116.98 38.4688ZM136.355 38.2734C139.129 38.2734 141.141 37.1211 142.352 35.0703H142.508V38H150.516V23.332C150.516 18.957 146.512 15.9688 140.516 15.9688C134.227 15.9688 130.496 18.8398 130.164 23.2344L130.145 23.4883H137.293L137.332 23.293C137.508 22.4141 138.426 21.6914 140.066 21.6914C141.707 21.6914 142.508 22.4727 142.508 23.7227V24.6016L137.977 24.8945C132.234 25.2852 129.031 27.5703 129.031 31.7305V31.75C129.031 35.4609 132 38.2734 136.355 38.2734ZM136.844 31.1641V31.1445C136.844 30.0703 137.605 29.4062 139.305 29.2891L142.508 29.0547V30.4219C142.508 31.8477 141.199 32.9023 139.285 32.9023C137.801 32.9023 136.844 32.2969 136.844 31.1641ZM153.992 38H162.273V23.3516H162.41L172.449 38H179.266V9.81641H170.984V24.2305H170.848L160.887 9.81641H153.992V38ZM193.426 38.4688C200.926 38.4688 203.387 34.0742 204.031 31.2617L204.09 31.0078H196.961L196.941 31.0664C196.727 31.6914 195.691 32.9609 193.582 32.9609C191.395 32.9609 190.066 31.4961 189.988 29.0156H204.188V26.75C204.188 20.1875 199.891 15.9688 193.172 15.9688C186.434 15.9688 182.176 20.1875 182.176 27.1992V27.2188C182.176 34.2305 186.434 38.4688 193.426 38.4688ZM193.387 21.4766C195.125 21.4766 196.336 22.5703 196.688 24.4844H190.086C190.438 22.5703 191.648 21.4766 193.387 21.4766ZM210.574 38H219.109L222.059 24.1133H222.215L225.223 38H233.914L239.344 16.4375H231.434L229.148 30.9883H228.992L226.121 16.4375H218.484L215.652 30.9883H215.496L213.211 16.4375H205.105L210.574 38ZM250.848 38.4688C257.098 38.4688 261.277 35.5781 261.277 30.9297V30.9102C261.277 27.6484 259.188 25.832 254.539 24.9727L250.633 24.25C248.68 23.8789 248.133 23.4492 248.133 22.6875V22.668C248.133 21.75 249.09 21.2031 250.555 21.2031C252.273 21.2031 253.23 22.1602 253.348 23.1758L253.367 23.3516H260.633V23.2148C260.633 19.2891 257.234 15.9688 250.555 15.9688C244.285 15.9688 240.477 18.6445 240.477 23.1172V23.1367C240.477 26.4766 242.742 28.7617 247.02 29.543L250.926 30.2656C252.703 30.5977 253.348 31.0469 253.348 31.8281V31.8477C253.348 32.707 252.391 33.2344 250.848 33.2344C249.051 33.2344 248.074 32.4922 247.762 31.2422L247.723 31.0859H239.988L240.008 31.2617C240.496 35.5586 244.051 38.4688 250.848 38.4688Z" fill="#121212"/>
</svg>
