<svg width="375" height="431" viewBox="0 0 375 431" fill="none" xmlns="http://www.w3.org/2000/svg">
<path d="M281.825 183.613C281.764 180.723 281.74 177.846 281.873 174.93C282.021 171.925 282.416 168.939 283.054 166.006C283.37 164.522 283.776 163.061 284.271 161.632C285.033 159.368 286.28 157.318 287.917 155.643C289.554 153.968 291.536 152.712 293.709 151.973C295.151 151.48 296.653 151.211 298.169 151.174C299.7 151.174 301.025 151.25 302.46 151.301C305.268 151.428 308.089 151.466 310.897 151.517C313.705 151.555 316.526 151.555 319.335 151.453C322.152 151.464 324.962 151.175 327.724 150.591C326.403 151.157 325.029 151.573 323.625 151.834C322.227 152.112 320.829 152.366 319.419 152.556C316.598 152.924 313.754 153.165 310.921 153.291C308.089 153.444 305.256 153.443 302.412 153.443C301.025 153.456 299.519 153.367 298.229 153.405C296.263 153.475 294.333 153.99 292.574 154.915C290.814 155.84 289.265 157.155 288.032 158.768C287.2 159.846 286.529 161.051 286.043 162.342C285.537 163.686 285.079 165.055 284.681 166.45C283.297 172.08 282.354 177.821 281.861 183.613C290.201 182.561 306.618 181.243 331.978 182.333C332.641 171.786 333.1 164.168 333.34 161.544C334.389 150.262 325.217 149.184 325.217 149.184L279.124 144.976C281.439 148.588 281.161 150.934 280.33 152.886C279.872 154.319 279.907 155.875 280.426 157.284C283.114 161.087 281.632 164.117 280.969 164.611C280.306 165.093 280.33 167.628 280.33 167.628C282.186 172.522 279.582 174.081 277.642 175.539C277.426 175.701 277.182 175.817 276.923 175.88C276.665 175.943 276.397 175.952 276.135 175.906L275.292 184.64C275.292 184.64 277.425 184.171 281.825 183.613ZM189.036 37.9025C189.036 37.9025 188.294 30.3516 182.352 32.4346C176.41 34.5176 168.24 32.2285 164.774 32.0712C164.774 32.0712 162.546 40.7666 160.813 40.7666C159.08 40.7666 159.327 61.857 168.24 63.6797C168.24 63.6797 172.209 63.2449 174.133 61.1666C174.722 60.5254 175.464 60.0615 176.281 59.823C177.098 59.5844 177.96 59.5799 178.78 59.8099C180.122 60.1716 181.342 60.9207 182.301 61.9725C183.26 63.0243 183.921 64.3371 184.209 65.7627C184.209 65.7627 179.876 87.5041 164.155 66.9344C164.155 66.9344 160.689 62.508 158.337 52.8741C158.337 52.8741 159.203 40.6365 153.509 39.0742C153.509 39.0742 151.281 38.9441 151.405 41.678C151.405 41.678 150.153 40.2689 150.948 27.9817C151.056 26.2976 151.613 24.6797 152.557 23.3145C153.501 21.9493 154.792 20.8923 156.283 20.2655C159.194 19.0459 162.496 17.6229 163.412 17.0725C165.145 16.031 180.99 15.9008 186.189 20.5875C191.388 25.2743 189.036 37.9025 189.036 37.9025Z" fill="#121212"/>
<path d="M189.036 37.9025L188.876 45.0836C188.836 46.2752 188.814 47.4662 188.723 48.6439C188.699 49.7734 188.53 50.8944 188.22 51.9761C187.25 54.1663 186.459 56.439 185.855 58.7699C185.204 61.0716 184.644 63.4011 184.209 65.7627C185.028 63.5204 185.844 61.283 186.619 59.0364C187.353 56.7901 188.199 54.5862 189.154 52.4339C189.517 51.226 189.699 49.9665 189.696 48.6999C189.732 47.4866 189.733 46.2816 189.678 45.0789C189.591 42.6761 189.377 40.2802 189.036 37.9025Z" fill="#121212"/>
<path d="M187.953 47.8295C187.381 47.3339 186.72 46.9646 186.01 46.7434C185.296 46.5069 184.55 46.3936 183.801 46.4081C183.04 46.4273 182.291 46.6084 181.598 46.9405C180.911 47.2643 180.317 47.773 179.876 48.4153C180.521 48.1388 181.185 47.9131 181.862 47.7403C182.509 47.589 183.168 47.5058 183.83 47.4919C185.211 47.4905 186.59 47.6034 187.953 47.8295ZM175.327 47.6787C174.682 47.0612 173.917 46.5994 173.085 46.3256C172.253 46.0284 171.38 45.8795 170.502 45.8849C168.742 45.874 167.034 46.5083 165.671 47.6787C166.525 47.5067 167.312 47.2836 168.117 47.17C168.907 47.035 169.705 46.9678 170.505 46.9691C172.135 46.9737 173.758 47.2124 175.327 47.6787ZM183.497 52.7766C183.096 52.762 182.716 52.5842 182.437 52.2806C182.158 51.977 182.002 51.5714 182.002 51.1493C182.002 50.7271 182.158 50.3215 182.437 50.0179C182.716 49.7143 183.096 49.5365 183.497 49.5219C183.898 49.5365 184.278 49.7143 184.557 50.0179C184.836 50.3215 184.992 50.7271 184.992 51.1493C184.992 51.5714 184.836 51.977 184.557 52.2806C184.278 52.5842 183.898 52.762 183.497 52.7766ZM172.727 52.5813C172.326 52.5668 171.946 52.3889 171.667 52.0853C171.388 51.7817 171.233 51.3761 171.233 50.954C171.233 50.5318 171.388 50.1262 171.667 49.8226C171.946 49.519 172.326 49.3412 172.727 49.3266C173.129 49.3412 173.509 49.519 173.788 49.8226C174.066 50.1262 174.222 50.5318 174.222 50.954C174.222 51.3761 174.066 51.7817 173.788 52.0853C173.509 52.3889 173.129 52.5668 172.727 52.5813ZM181.826 56.7148C180.983 57.6428 179.917 58.3136 178.741 58.6561C178.186 58.7568 177.617 58.7032 177.088 58.5007C176.797 58.4297 176.529 58.2565 176.225 58.147C175.938 57.9987 175.656 57.8273 175.327 57.6911C175.503 58.0029 175.702 58.2988 175.924 58.5759C176.172 58.8416 176.449 59.0744 176.75 59.269C177.394 59.6964 178.164 59.8587 178.914 59.7247C179.649 59.5784 180.319 59.1885 180.826 58.612C181.316 58.0858 181.661 57.4303 181.826 56.7148ZM189.544 181.687C189.541 181.703 189.541 181.719 189.544 181.735C189.548 181.751 189.554 181.766 189.563 181.779C189.572 181.792 189.584 181.803 189.597 181.811C189.611 181.82 189.625 181.825 189.641 181.826L198.151 183.512H198.246C202.779 182.917 207.335 182.409 211.891 181.89C216.447 181.37 221.003 180.909 225.56 180.508C230.115 180.115 234.684 179.798 239.228 179.57C242.805 179.369 246.391 179.378 249.968 179.595C249.899 178.844 250.007 178.087 250.281 177.39C246.564 177.239 242.843 177.298 239.132 177.567C234.539 177.859 229.971 178.328 225.403 178.873C216.302 179.963 207.239 181.269 198.199 182.866L189.677 181.586C189.662 181.582 189.646 181.581 189.63 181.584C189.615 181.588 189.601 181.594 189.588 181.604C189.575 181.613 189.565 181.626 189.557 181.64C189.55 181.655 189.545 181.671 189.544 181.687ZM136.003 119.978C135.775 121.017 135.545 122.069 135.328 123.109C135.895 123.16 136.497 123.185 137.112 123.198C137.558 121.309 138.004 119.433 138.438 117.544L144.091 92.4573C145.887 84.4457 147.514 76.3962 149.19 68.3593L184.578 78.361L202.742 83.6471L220.859 89.1107C220.897 89.1264 220.938 89.135 220.98 89.136C226.21 89.136 231.454 89.2374 236.697 89.2881L252.414 89.5036C262.383 89.6558 272.327 89.7191 282.294 89.8079C277.268 104.297 272.146 118.748 267.192 133.263L267.083 133.592C267.879 133.808 268.711 134.023 269.554 134.239L269.578 134.176C274.761 119.167 279.775 104.094 284.886 89.0727V89.06C284.985 88.7743 284.972 88.4588 284.85 88.1831C284.728 87.9073 284.507 87.6938 284.235 87.5896C284.114 87.55 283.988 87.5287 283.862 87.5262C273.375 87.6276 262.901 87.6783 252.414 87.8558L236.697 88.0586C231.478 88.1093 226.246 88.2107 221.039 88.2234L202.935 82.8993L184.831 77.385L148.708 66.0522C148.457 65.9747 148.187 66.0044 147.957 66.135C147.727 66.2655 147.555 66.4863 147.478 66.7494L147.466 66.8128V66.8382L136.63 117.088C136.413 118.051 136.208 119.014 136.003 119.978ZM125.059 167.134C125.047 167.157 125.043 167.183 125.047 167.209C125.052 167.234 125.064 167.257 125.083 167.274C125.094 167.286 125.107 167.295 125.121 167.302C125.136 167.308 125.151 167.312 125.167 167.312C125.183 167.312 125.199 167.308 125.213 167.302C125.227 167.295 125.241 167.286 125.251 167.274C125.264 167.261 125.276 167.236 125.288 167.223C126.638 163.445 127.783 159.592 128.844 155.713C128.566 155.713 128.301 155.7 128.036 155.688C127.132 159.516 126.155 163.331 125.071 167.096C125.071 167.109 125.059 167.122 125.059 167.134Z" fill="#121212"/>
<path d="M264.324 186.477C270.964 185.512 277.612 184.638 284.29 184.083C290.961 183.466 297.651 183.106 304.342 182.925C311.033 182.733 317.728 182.751 324.415 182.929C331.096 183.118 337.799 183.477 344.416 184.171L344.308 184.152C348.288 185.088 352.085 186.738 355.532 189.03C357.208 190.201 358.753 191.567 360.138 193.102C361.499 194.652 362.683 196.363 363.668 198.201C365.582 201.947 366.769 206.056 367.16 210.289C367.599 214.529 367.415 218.815 366.614 222.996L366.613 223.003C366.606 223.038 366.598 223.084 366.592 223.12C365.654 229.172 363.274 235.096 360.773 240.833C358.23 246.582 355.372 252.198 352.389 257.74C346.41 268.822 339.895 279.598 333.25 290.279C326.604 300.962 319.768 311.517 312.741 321.943L302.149 337.535L299.477 341.414L298.14 343.338C297.743 343.897 297.282 344.402 296.767 344.842C295.732 345.73 294.5 346.327 293.186 346.579C292.491 346.695 291.788 346.751 291.085 346.748L288.812 346.813C282.751 346.965 276.684 347.005 270.642 346.761C269.131 346.701 267.624 346.615 266.12 346.502C265.362 346.446 264.603 346.386 263.968 346.272C263.308 346.128 262.671 345.889 262.073 345.561C260.866 344.898 259.863 343.886 259.183 342.645C258.502 341.404 258.171 339.985 258.229 338.553C258.261 337.835 258.384 337.125 258.595 336.441L259.317 334.167L260.761 329.618L263.653 320.522L269.457 302.337C277.291 278.123 285.035 253.874 293.013 229.716C293.041 229.631 293.049 229.539 293.035 229.451C293.022 229.362 292.987 229.278 292.935 229.206C292.883 229.135 292.815 229.078 292.737 229.041C292.659 229.004 292.573 228.988 292.488 228.995L292.478 228.996C283.792 229.703 275.068 230.107 266.351 230.3C257.631 230.458 248.908 230.361 240.206 229.91C231.513 229.518 222.851 228.571 214.268 227.074C209.998 226.333 205.783 225.284 201.65 223.934C197.556 222.673 193.669 220.759 190.127 218.258C189.977 218.146 189.801 218.079 189.618 218.063C189.435 218.048 189.252 218.084 189.087 218.169C188.922 218.254 188.782 218.384 188.681 218.546C188.581 218.708 188.524 218.895 188.516 219.088L186.841 257.102L186.426 266.554L185.922 276.046C185.577 282.375 185.286 288.7 184.846 295.019L183.633 313.982C183.416 317.14 183.261 320.308 182.993 323.458L182.078 332.881L181.621 337.593L181.507 338.77C181.461 339.148 181.401 339.452 181.339 339.794C180.97 341.451 180.182 342.973 179.059 344.199C177.937 345.425 176.52 346.311 174.96 346.762C174.324 346.939 173.674 347.05 173.018 347.095L170.765 347.279L166.258 347.645L157.244 348.379L148.23 349.113L143.722 349.48L143.159 349.526L142.702 349.533C141.797 349.552 140.899 349.359 140.073 348.968C138.966 348.456 138.016 347.63 137.33 346.584C136.643 345.537 136.247 344.31 136.185 343.04C136.166 342.472 136.216 341.615 136.254 340.832L136.367 338.457L136.594 333.708L138.408 295.714C139.601 270.384 140.873 245.058 141.957 219.722C141.965 219.522 141.936 219.321 141.871 219.132C141.806 218.943 141.706 218.77 141.577 218.621C141.448 218.473 141.293 218.353 141.12 218.268C140.947 218.182 140.759 218.134 140.568 218.125C140.519 218.123 140.47 218.123 140.421 218.126L140.387 218.128C136.719 218.323 133.045 217.913 129.497 216.914C125.951 215.954 122.62 214.264 119.698 211.942C116.831 209.574 114.52 206.544 112.946 203.085C111.398 199.555 110.421 195.779 110.054 191.911L110.02 192.376C113.105 181.871 119.582 172.026 128.557 166.117C129.72 165.465 130.856 164.72 132.041 164.139C133.23 163.555 134.46 163.069 135.72 162.684C138.275 161.903 140.894 161.373 143.543 161.103C148.898 160.568 154.293 160.68 159.624 161.438C164.973 162.125 170.232 163.444 175.301 165.367C177.823 166.317 180.246 167.533 182.536 168.995C183.662 169.726 184.716 170.573 185.681 171.525C186.648 172.435 187.437 173.535 188.004 174.762C188.276 175.367 188.47 176.008 188.582 176.667L188.887 178.773C189.059 180.184 189.231 181.596 189.347 183.017C189.602 185.854 189.77 188.704 189.867 191.558C190.067 197.266 190.069 202.979 189.872 208.7C189.87 208.743 189.884 208.785 189.912 208.817C189.939 208.849 189.978 208.869 190.019 208.871C190.059 208.872 190.099 208.857 190.129 208.829C190.16 208.8 190.178 208.76 190.181 208.718C190.492 202.998 190.607 197.272 190.526 191.539C190.487 188.674 190.377 185.807 190.178 182.943C190.09 181.511 189.946 180.081 189.801 178.651L189.535 176.508C189.424 175.756 189.218 175.022 188.924 174.326C188.329 172.959 187.488 171.727 186.446 170.698C185.447 169.669 184.352 168.748 183.177 167.949C180.845 166.385 178.369 165.073 175.786 164.032C165.439 159.972 154.379 158.31 143.365 159.162C140.592 159.402 137.847 159.914 135.165 160.692C133.806 161.084 132.479 161.586 131.193 162.193C129.905 162.801 128.714 163.555 127.47 164.233C122.696 167.313 118.531 171.332 115.203 176.07C111.865 180.803 109.303 186.091 107.623 191.713C107.584 191.845 107.571 191.983 107.583 192.12L107.589 192.179C107.951 196.354 108.974 200.435 110.616 204.255C112.334 208.114 114.874 211.505 118.039 214.165C121.228 216.752 124.872 218.649 128.762 219.745C132.624 220.875 136.631 221.353 140.635 221.161L139.066 219.567C137.684 244.887 136.491 270.217 135.219 295.543L133.335 333.533L133.1 338.282L132.982 340.656C132.947 341.456 132.885 342.181 132.908 343.199C132.989 345.115 133.583 346.967 134.62 348.544C135.658 350.121 137.097 351.358 138.773 352.114C140.021 352.691 141.373 352.975 142.736 352.946L143.409 352.925L143.973 352.876L148.48 352.485L157.494 351.703L166.508 350.921L171.015 350.53L173.269 350.334C174.117 350.268 174.958 350.117 175.779 349.883C177.869 349.269 179.763 348.073 181.26 346.421C182.758 344.769 183.803 342.722 184.286 340.497C184.368 340.062 184.451 339.585 184.498 339.177L184.608 337.989L185.046 333.237L185.923 323.733C186.177 320.567 186.316 317.4 186.518 314.234L187.643 295.234C188.061 288.904 188.255 282.558 188.544 276.224L188.949 266.719L189.269 257.166L190.546 219.16L188.936 219.989C192.677 222.582 196.777 224.552 201.089 225.83C205.313 227.156 209.619 228.176 213.975 228.882C222.641 230.289 231.379 231.137 240.143 231.423C248.889 231.776 257.637 231.744 266.376 231.508C275.118 231.274 283.845 230.832 292.568 230.082L292.033 229.362C284.252 253.598 276.267 277.753 268.319 301.925L262.311 320.038L259.294 329.09L257.787 333.616L257.033 335.879C256.762 336.713 256.599 337.581 256.548 338.461C256.453 340.241 256.842 342.013 257.669 343.569C258.497 345.125 259.729 346.401 261.221 347.248C261.967 347.672 262.765 347.984 263.593 348.176C264.456 348.344 265.213 348.405 265.971 348.476C267.498 348.614 269.024 348.724 270.551 348.807C276.657 349.143 282.755 349.192 288.851 349.13L291.137 349.097C291.954 349.11 292.771 349.053 293.579 348.926C295.276 348.626 296.872 347.88 298.221 346.757C298.895 346.198 299.5 345.554 300.023 344.838L301.403 342.91L304.133 339.062C307.772 333.931 311.328 328.736 314.862 323.525C321.925 313.098 328.824 302.548 335.56 291.874C342.255 281.174 348.68 270.275 354.665 259.087C357.642 253.484 360.498 247.8 363.054 241.938C365.564 236.063 367.982 230.074 368.98 223.46L368.959 223.583C369.803 219.117 369.981 214.539 369.487 210.015C369.043 205.461 367.717 201.051 365.592 197.056C364.496 195.071 363.184 193.227 361.681 191.563C360.163 189.924 358.473 188.47 356.645 187.23C352.973 184.854 348.939 183.164 344.72 182.232L344.7 182.227L344.612 182.213C337.875 181.603 331.172 181.343 324.447 181.247C317.727 181.144 311.01 181.267 304.297 181.615C297.587 181.946 290.886 182.456 284.212 183.224C277.529 183.909 270.891 184.998 264.274 186.156C264.254 186.159 264.235 186.167 264.218 186.178C264.201 186.19 264.186 186.204 264.174 186.222C264.162 186.239 264.154 186.259 264.149 186.28C264.145 186.3 264.144 186.322 264.147 186.343C264.155 186.385 264.177 186.422 264.21 186.447C264.243 186.472 264.284 186.483 264.324 186.477Z" fill="#121212"/>
<path d="M323.223 207.147L315.897 213.405C313.444 215.467 311.01 217.547 308.519 219.544C306.042 221.56 303.512 223.496 300.916 225.321C299.621 226.234 298.277 227.069 296.892 227.823C295.529 228.63 294.055 229.209 292.523 229.539C295.729 229.404 298.655 227.741 301.402 226.152C304.131 224.465 306.754 222.593 309.253 220.548C311.747 218.509 314.177 216.389 316.498 214.141C318.827 211.905 321.101 209.605 323.223 207.147ZM248.455 186.837C242.8 187.492 237.21 188.667 231.75 190.348C226.275 192.019 220.93 194.13 215.763 196.663C210.624 199.285 205.75 202.446 201.215 206.098C196.745 209.826 192.81 214.214 189.532 219.124C191.34 216.835 193.277 214.661 195.333 212.616L196.868 211.085C197.363 210.558 197.895 210.069 198.458 209.623L201.779 206.872C206.338 203.387 211.194 200.351 216.284 197.804C221.381 195.255 226.638 193.074 232.018 191.277C234.705 190.357 237.421 189.533 240.166 188.807C242.898 188.025 245.668 187.397 248.455 186.837ZM160.318 196.211C159.015 196.312 157.743 196.677 156.572 197.286C155.403 197.903 154.292 198.633 153.253 199.468C151.188 201.149 149.347 203.113 147.778 205.308C146.965 206.376 146.279 207.537 145.535 208.653C144.893 209.836 144.188 210.98 143.607 212.195C143.046 213.421 142.447 214.623 141.921 215.86C141.451 217.126 140.945 218.37 140.511 219.645C141.833 217.313 143.065 214.96 144.411 212.68L146.488 209.312C147.245 208.242 147.924 207.109 148.73 206.083C150.248 203.96 151.958 201.996 153.836 200.22C154.771 199.329 155.78 198.529 156.852 197.829C157.914 197.092 159.085 196.545 160.318 196.211ZM220.974 88.6759C218.624 96.4319 216.423 104.228 214.371 112.063C212.287 119.89 210.339 127.753 208.418 135.623C206.54 143.505 204.692 151.394 202.979 159.32C201.234 167.237 199.64 175.195 198.197 183.192C200.549 175.437 202.751 167.642 204.803 159.806C206.886 151.979 208.834 144.116 210.753 136.245C212.628 128.363 214.476 120.473 216.188 112.547C217.932 104.63 219.527 96.6726 220.974 88.6759ZM249.916 179.6C250.031 180.558 250.403 181.462 250.988 182.207C251.573 182.951 252.348 183.505 253.222 183.803C253.816 183.969 254.427 184.055 255.042 184.061C257.441 184.014 259.818 183.558 262.078 182.71C264.353 181.943 266.533 180.894 268.572 179.584C269.594 178.914 270.547 178.135 271.417 177.259C271.86 176.814 272.249 176.312 272.573 175.764C272.931 175.206 273.122 174.547 273.123 173.874L272.746 174.035C273.599 174.983 274.679 175.674 275.871 176.035C276.184 176.116 276.51 176.127 276.827 176.067C277.144 176.008 277.446 175.879 277.714 175.69C278.204 175.33 278.705 174.981 279.18 174.578C280.2 173.8 280.902 172.646 281.147 171.346C281.276 170.04 281.096 168.721 280.623 167.506L280.645 167.625C280.633 166.761 280.78 165.903 281.079 165.098C281.107 165.045 281.144 164.998 281.187 164.959C281.296 164.869 281.396 164.769 281.487 164.659C281.65 164.454 281.79 164.231 281.905 163.992C282.119 163.535 282.267 163.047 282.344 162.544C282.497 161.55 282.418 160.531 282.112 159.577C281.814 158.644 281.381 157.765 280.828 156.971L280.891 157.09C280.572 156.157 280.455 155.162 280.548 154.176C280.577 153.943 280.626 153.712 280.692 153.488C280.76 153.277 280.847 153.066 280.964 152.783C281.614 151.147 281.64 149.31 281.036 147.654C280.665 146.597 280.167 145.595 279.555 144.671C279.53 144.634 279.502 144.599 279.47 144.569L279.46 144.56C279.263 144.366 279.086 144.15 278.931 143.917C278.772 143.681 278.641 143.425 278.542 143.155C278.346 142.625 278.312 142.045 278.446 141.495L278.427 141.552C278.901 140.389 279.108 139.125 279.034 137.863C278.991 137.499 278.859 137.154 278.649 136.861C278.427 136.575 278.128 136.367 277.79 136.266C277.234 136.062 276.693 135.913 276.146 135.759C273.966 135.151 271.766 134.675 269.567 134.186C269.56 134.185 269.553 134.185 269.547 134.186C269.54 134.187 269.534 134.19 269.528 134.194C269.522 134.198 269.517 134.203 269.514 134.209C269.51 134.215 269.507 134.221 269.506 134.228C269.503 134.242 269.505 134.256 269.512 134.267C269.519 134.279 269.529 134.288 269.542 134.292L275.972 136.379C276.5 136.562 277.037 136.748 277.53 136.965C277.736 137.028 277.915 137.162 278.039 137.345C278.157 137.535 278.227 137.752 278.244 137.977C278.254 139.082 278.027 140.174 277.58 141.174L277.561 141.232C277.353 141.976 277.37 142.771 277.611 143.505C277.728 143.862 277.886 144.203 278.083 144.519C278.282 144.841 278.519 145.134 278.788 145.391L278.695 145.281C279.887 146.886 280.47 148.9 280.332 150.932C280.258 151.419 280.13 151.897 279.95 152.353C279.868 152.566 279.753 152.852 279.663 153.153C279.581 153.444 279.525 153.742 279.494 154.044C279.398 155.211 279.559 156.387 279.962 157.479C279.975 157.518 279.994 157.555 280.018 157.589L280.025 157.599C281.088 158.94 281.613 160.665 281.487 162.407C281.439 162.824 281.331 163.231 281.168 163.614C281.09 163.793 280.993 163.962 280.879 164.119C280.829 164.188 280.771 164.25 280.708 164.306C280.583 164.417 280.479 164.552 280.403 164.704C280.078 165.64 279.946 166.638 280.014 167.632C280.014 167.673 280.022 167.714 280.037 167.752C280.534 168.851 280.761 170.064 280.697 171.28C280.611 171.878 280.414 172.453 280.116 172.97C279.817 173.488 279.424 173.938 278.959 174.294C278.022 175.002 277.102 176.101 275.942 175.687C274.83 175.321 273.835 174.641 273.064 173.722C273.034 173.689 272.996 173.667 272.955 173.657C272.913 173.647 272.87 173.65 272.83 173.666C272.79 173.681 272.755 173.709 272.73 173.745C272.705 173.782 272.69 173.825 272.688 173.87L272.687 173.883C272.496 175.042 271.883 176.077 270.978 176.768C270.102 177.555 269.151 178.246 268.14 178.828C266.116 180.029 263.994 181.037 261.798 181.838C259.626 182.683 257.351 183.204 255.041 183.385C253.915 183.506 252.785 183.191 251.864 182.499C251.379 182.178 250.964 181.753 250.646 181.252C250.328 180.751 250.114 180.185 250.019 179.591C250.017 179.577 250.01 179.564 249.999 179.555C249.988 179.546 249.974 179.542 249.961 179.544C249.948 179.546 249.937 179.553 249.929 179.563C249.92 179.574 249.916 179.587 249.916 179.6ZM250.329 177.409L250.609 176.866C250.615 176.855 250.618 176.843 250.62 176.831C250.621 176.819 250.62 176.807 250.617 176.795C250.613 176.783 250.608 176.772 250.6 176.762C250.593 176.753 250.584 176.745 250.574 176.739L250.544 176.729L250.533 176.727C250.057 176.657 249.58 176.636 249.115 176.551C248.657 176.454 248.211 176.301 247.787 176.096C246.939 175.743 246.251 175.065 245.859 174.199C245.493 173.324 245.327 172.37 245.376 171.415C245.399 170.445 245.551 169.483 245.828 168.557C245.863 168.442 245.853 168.318 245.8 168.211C245.748 168.104 245.657 168.023 245.548 167.987C245.517 167.977 245.485 167.97 245.453 167.967C244.309 167.897 243.193 167.569 242.181 167.004C241.693 166.74 241.261 166.377 240.908 165.936C240.555 165.495 240.288 164.985 240.124 164.435C239.952 163.892 239.904 163.314 239.982 162.748C240.097 162.192 240.37 161.686 240.765 161.298C241.596 160.412 242.538 159.65 243.566 159.034L243.579 159.025C243.617 159.002 243.646 158.966 243.663 158.924C243.68 158.882 243.683 158.835 243.672 158.79C243.662 158.746 243.638 158.706 243.604 158.677C243.57 158.648 243.528 158.632 243.484 158.63C242.798 158.619 242.124 158.438 241.517 158.101C240.91 157.764 240.388 157.28 239.992 156.69C239.26 155.445 238.953 153.975 239.122 152.522C239.158 152.175 239.242 151.835 239.371 151.513C239.443 151.365 239.518 151.264 239.569 151.274C239.761 151.215 239.947 151.137 240.124 151.039C240.774 150.679 241.374 150.273 241.975 149.865C243.174 149.045 244.339 148.185 245.488 147.292C245.555 147.239 245.606 147.166 245.634 147.083C245.662 146.999 245.665 146.908 245.642 146.823C245.62 146.737 245.574 146.661 245.51 146.603C245.446 146.546 245.366 146.51 245.282 146.501L245.259 146.499C244.793 146.478 244.348 146.294 243.994 145.976C243.703 145.607 243.541 145.144 243.536 144.664C243.516 144.111 243.557 143.557 243.661 143.014C243.721 142.49 243.845 141.977 244.032 141.487C244.235 141.113 244.592 140.965 245.164 140.692C245.678 140.44 246.195 140.191 246.704 139.918C247.732 139.375 248.729 138.768 249.69 138.101C251.561 136.739 253.394 135.422 255.337 134.261C256.294 133.677 257.296 133.176 258.331 132.765C258.836 132.56 259.357 132.405 259.888 132.299C260.143 132.254 260.401 132.235 260.66 132.242C260.867 132.248 261.071 132.298 261.26 132.389L261.368 132.465C261.381 132.474 261.396 132.481 261.412 132.484C263.291 132.903 265.183 133.263 267.071 133.645C267.078 133.647 267.085 133.647 267.091 133.645C267.098 133.644 267.104 133.641 267.11 133.637C267.115 133.633 267.12 133.628 267.124 133.622C267.128 133.616 267.13 133.61 267.132 133.603C267.134 133.589 267.132 133.575 267.125 133.564C267.118 133.552 267.108 133.544 267.095 133.54C265.247 132.984 263.403 132.406 261.545 131.886L261.697 131.981C261.42 131.738 261.077 131.595 260.717 131.574C260.412 131.543 260.104 131.544 259.799 131.577C259.214 131.646 258.636 131.781 258.078 131.978C256.984 132.361 255.922 132.838 254.902 133.405C252.89 134.521 250.951 135.778 249.099 137.168C248.169 137.802 247.204 138.378 246.21 138.891L244.706 139.682C244.071 139.914 243.525 140.355 243.146 140.938C242.984 141.253 242.878 141.595 242.832 141.95L242.683 142.845C242.579 143.471 242.546 144.108 242.585 144.742C242.614 145.46 242.891 146.142 243.363 146.662C243.879 147.117 244.528 147.372 245.202 147.383L244.973 146.59C243.864 147.509 242.748 148.433 241.615 149.319C241.047 149.757 240.471 150.194 239.88 150.561C239.745 150.644 239.605 150.714 239.46 150.773C239.34 150.814 239.232 150.885 239.143 150.979C239.054 151.073 238.988 151.187 238.949 151.313C238.817 151.687 238.738 152.08 238.716 152.478C238.578 154.022 238.936 155.57 239.732 156.876C240.149 157.518 240.703 158.049 241.35 158.428C241.996 158.807 242.718 159.022 243.457 159.058L243.375 158.654C242.267 159.233 241.237 159.966 240.315 160.834C239.801 161.294 239.431 161.909 239.256 162.596C239.118 163.285 239.135 163.999 239.307 164.679C239.492 165.349 239.802 165.973 240.217 166.517C240.633 167.06 241.147 167.512 241.729 167.846C242.86 168.476 244.114 168.823 245.394 168.863L245.018 168.273C244.736 169.292 244.592 170.348 244.591 171.409C244.576 172.489 244.819 173.556 245.298 174.511C245.794 175.475 246.624 176.2 247.615 176.536C248.085 176.71 248.573 176.826 249.068 176.882C249.558 176.921 250.05 176.909 250.535 176.911L250.458 176.773L250.233 177.37C250.228 177.383 250.228 177.397 250.233 177.41C250.238 177.423 250.247 177.433 250.259 177.439C250.271 177.445 250.284 177.445 250.297 177.441C250.309 177.437 250.319 177.428 250.326 177.416L250.329 177.409Z" fill="#121212"/>
<path d="M270.211 139.905L256.726 140.004C254.412 140.068 252.153 140.762 250.171 142.021C249.201 142.664 248.29 143.4 247.449 144.22L244.893 146.53C244.841 146.577 244.799 146.633 244.769 146.697C244.738 146.76 244.72 146.83 244.715 146.901C244.71 146.972 244.718 147.043 244.739 147.111C244.76 147.179 244.794 147.241 244.838 147.295C244.882 147.349 244.936 147.394 244.996 147.426C245.057 147.458 245.123 147.477 245.19 147.483C245.258 147.488 245.326 147.479 245.39 147.457C245.455 147.435 245.514 147.4 245.566 147.353L245.58 147.339L248.05 144.928C248.827 144.107 249.675 143.365 250.583 142.709C252.426 141.439 254.55 140.693 256.749 140.546L270.211 139.905ZM273.367 151.036L265.256 150.124L261.2 149.668C259.836 149.452 258.45 149.426 257.08 149.591C255.699 149.78 254.354 150.195 253.096 150.821C251.855 151.469 250.692 152.271 249.632 153.209L243.153 158.421C243.098 158.464 243.052 158.518 243.017 158.58C242.982 158.642 242.959 158.71 242.949 158.781C242.94 158.853 242.944 158.925 242.961 158.995C242.979 159.064 243.009 159.13 243.05 159.187C243.092 159.244 243.144 159.292 243.203 159.327C243.262 159.363 243.328 159.386 243.396 159.395C243.464 159.404 243.533 159.399 243.598 159.38C243.664 159.361 243.726 159.328 243.78 159.283L243.792 159.273L250.112 153.847C251.105 152.907 252.203 152.095 253.38 151.43C254.566 150.791 255.839 150.352 257.154 150.128C258.483 149.924 259.831 149.906 261.165 150.073L265.232 150.394L273.367 151.036ZM274.017 163.631L258.906 161.412C256.932 161.068 254.906 161.501 253.216 162.628L251.601 163.694L245.141 167.961C245.025 168.038 244.944 168.16 244.914 168.3C244.884 168.44 244.908 168.586 244.98 168.708C245.053 168.829 245.168 168.916 245.301 168.948C245.434 168.98 245.573 168.956 245.689 168.88L245.704 168.87L252.024 164.376C253.011 163.579 254.085 162.907 255.222 162.373C256.378 161.924 257.622 161.779 258.844 161.951L274.017 163.631ZM272.903 173.884L267.128 173.163C265.193 172.94 263.3 172.645 261.331 172.482C259.338 172.395 257.352 172.779 255.519 173.606C253.72 174.492 252.035 175.426 250.287 176.333C250.164 176.397 250.071 176.51 250.027 176.646C249.983 176.782 249.992 176.931 250.053 177.06C250.114 177.189 250.22 177.288 250.35 177.334C250.48 177.38 250.621 177.37 250.744 177.307L250.763 177.296L250.77 177.292C252.458 176.314 254.165 175.27 255.839 174.347C257.549 173.481 259.422 173.029 261.321 173.024C263.22 173.092 265.178 173.302 267.103 173.433L272.903 173.884ZM136.788 120.752C134.856 118.432 132.581 116.453 130.052 114.893C128.769 114.075 127.338 113.547 125.851 113.341C124.364 113.136 122.852 113.257 121.412 113.698C121.049 113.827 120.696 113.988 120.359 114.18C120.031 114.386 119.717 114.614 119.417 114.861C117.588 116.282 116.206 118.247 115.452 120.503C114.955 122.001 114.719 123.582 114.755 125.168C114.761 125.564 114.787 125.959 114.824 126.353C114.857 126.705 114.862 127.059 114.839 127.412C114.815 128.058 114.597 128.68 114.215 129.187L114.164 129.242C113.569 129.995 113.135 130.874 112.891 131.82C112.647 132.765 112.598 133.754 112.749 134.72C112.88 135.662 113.127 136.582 113.484 137.457C113.818 138.348 114.377 139.11 114.245 139.768C114.165 140.169 114.033 140.556 113.851 140.918C113.644 141.332 113.456 141.758 113.29 142.192C112.991 143.112 112.881 144.087 112.966 145.055C112.992 146.057 113.32 147.025 113.903 147.818C113.998 147.916 114.099 148.006 114.205 148.088C114.28 148.142 114.352 148.201 114.419 148.266C114.554 148.391 114.666 148.54 114.75 148.707C114.92 149.045 114.991 149.429 114.952 149.809L115.01 149.671C114.449 150.436 114.134 151.368 114.111 152.333C114.128 152.817 114.238 153.291 114.433 153.729C114.629 154.166 114.906 154.558 115.249 154.88C115.908 155.537 116.757 155.942 117.661 156.032C118.099 156.022 118.534 155.957 118.958 155.84C119.363 155.781 119.784 155.759 120.203 155.74C123.575 155.68 126.967 155.818 130.354 155.939C133.742 156.061 137.134 156.143 140.531 156.036C142.246 156.029 143.956 155.83 145.632 155.444C146.513 155.243 147.333 154.816 148.02 154.201C148.205 154.024 148.355 153.81 148.46 153.571C148.565 153.333 148.624 153.074 148.633 152.812C148.642 152.285 148.486 151.77 148.19 151.345L148.001 151.887C149.186 151.649 150.358 151.343 151.511 150.97C152.708 150.612 153.834 150.029 154.833 149.248C155.39 148.802 155.772 148.156 155.904 147.432C155.979 146.692 155.784 145.949 155.357 145.355C154.588 144.295 153.61 143.422 152.491 142.795L152.419 143.69C153.341 143.372 154.247 143.004 155.132 142.588C156.031 142.162 156.886 141.643 157.686 141.039C158.518 140.411 159.218 139.611 159.743 138.686C160.032 138.191 160.22 137.638 160.295 137.063C160.37 136.487 160.331 135.901 160.179 135.343L160.216 135.544C160.197 135.285 160.118 135.034 159.985 134.814C159.853 134.594 159.672 134.412 159.457 134.282C159.153 134.065 158.826 133.885 158.484 133.743C157.849 133.483 157.198 133.271 156.534 133.11C155.241 132.789 153.934 132.537 152.617 132.356C149.997 131.988 147.381 131.753 144.745 131.6L144.718 132.72C146.724 132.723 148.718 132.404 150.631 131.773C151.609 131.447 152.536 130.969 153.38 130.356C153.815 130.043 154.209 129.671 154.55 129.248C154.954 128.796 155.224 128.229 155.328 127.618C155.35 127.294 155.309 126.968 155.208 126.662C155.107 126.355 154.948 126.073 154.74 125.833C154.384 125.401 153.955 125.042 153.474 124.777C152.583 124.266 151.631 123.885 150.642 123.644C148.721 123.164 146.759 122.883 144.786 122.807C140.847 122.562 136.97 123.221 133.149 122.567C129.288 122.123 125.606 120.613 122.479 118.189L122.473 118.184C122.463 118.176 122.45 118.171 122.436 118.173C122.423 118.174 122.411 118.181 122.402 118.192C122.393 118.203 122.389 118.217 122.39 118.231C122.391 118.245 122.398 118.258 122.408 118.268C125.479 120.868 129.166 122.539 133.072 123.1C135.012 123.422 136.976 123.559 138.939 123.51C140.887 123.49 142.815 123.434 144.742 123.597C146.657 123.712 148.558 124.025 150.415 124.53C151.32 124.77 152.19 125.138 153.001 125.622C153.777 126.089 154.422 126.804 154.341 127.497C154.047 128.32 153.497 129.014 152.78 129.468C152.019 130.015 151.184 130.44 150.304 130.729C148.495 131.316 146.611 131.609 144.718 131.599C144.58 131.6 144.447 131.658 144.348 131.76C144.249 131.862 144.192 132 144.189 132.146C144.185 132.291 144.236 132.433 144.33 132.54C144.423 132.647 144.553 132.711 144.691 132.719C147.287 132.88 149.895 133.124 152.468 133.495C153.753 133.686 155.037 133.893 156.284 134.201C156.899 134.343 157.503 134.533 158.091 134.767C158.36 134.874 158.618 135.012 158.859 135.177C159.093 135.328 159.199 135.517 159.184 135.544C159.179 135.554 159.176 135.564 159.175 135.574C159.174 135.585 159.175 135.596 159.178 135.606L159.221 135.746C159.411 136.574 159.282 137.447 158.862 138.175C158.412 138.975 157.811 139.669 157.097 140.215C156.355 140.784 155.562 141.274 154.729 141.678C153.881 142.086 153.015 142.447 152.132 142.762C152.015 142.805 151.919 142.895 151.864 143.012C151.81 143.129 151.802 143.264 151.843 143.388C151.882 143.502 151.959 143.598 152.06 143.658C153.062 144.196 153.946 144.949 154.654 145.869C154.968 146.275 155.124 146.791 155.09 147.313C154.995 147.833 154.721 148.299 154.32 148.62C153.409 149.351 152.381 149.905 151.285 150.255C150.165 150.642 149.025 150.965 147.872 151.222C147.787 151.242 147.714 151.296 147.667 151.373C147.621 151.45 147.605 151.543 147.624 151.632C147.635 151.68 147.655 151.725 147.682 151.764C147.911 152.048 148.028 152.412 148.012 152.784C147.995 153.155 147.845 153.506 147.592 153.766C146.988 154.313 146.266 154.697 145.489 154.884C143.856 155.283 142.188 155.5 140.513 155.531C137.136 155.686 133.749 155.654 130.363 155.582C126.976 155.536 123.596 155.279 120.191 155.329C119.763 155.343 119.337 155.36 118.901 155.418C118.507 155.527 118.1 155.583 117.692 155.584C116.897 155.479 116.158 155.1 115.59 154.505C115.305 154.226 115.077 153.889 114.919 153.515C114.761 153.141 114.676 152.737 114.67 152.328C114.717 151.5 115.01 150.708 115.509 150.067L115.516 150.057C115.543 150.019 115.561 149.975 115.567 149.928C115.644 149.401 115.562 148.861 115.333 148.385C115.22 148.146 115.066 147.931 114.881 147.749C114.791 147.657 114.695 147.573 114.592 147.496C114.527 147.441 114.465 147.382 114.407 147.32C113.959 146.638 113.72 145.829 113.721 145C113.666 144.149 113.781 143.295 114.06 142.493C114.498 141.673 114.846 140.804 115.097 139.901C115.162 139.361 115.071 138.813 114.836 138.328C114.641 137.875 114.453 137.512 114.298 137.099C113.977 136.298 113.758 135.456 113.644 134.596C113.521 133.76 113.565 132.906 113.775 132.09C113.985 131.273 114.355 130.512 114.861 129.855L114.81 129.909C116.105 128.426 115.672 126.503 115.62 125.146C115.573 123.666 115.779 122.189 116.229 120.785C116.673 119.382 117.389 118.09 118.331 116.992C118.799 116.436 119.314 115.927 119.871 115.472C120.393 114.994 120.994 114.622 121.645 114.375C123 113.934 124.427 113.79 125.837 113.954C127.246 114.117 128.609 114.583 129.841 115.324C132.397 116.76 134.717 118.617 136.713 120.826C136.723 120.837 136.736 120.843 136.75 120.843C136.763 120.843 136.777 120.837 136.786 120.827C136.796 120.817 136.801 120.804 136.801 120.79C136.802 120.776 136.797 120.762 136.788 120.752Z" fill="#121212"/>
<path d="M144.667 131.619C140.907 132.074 137.116 132.172 133.339 131.913C131.449 131.793 129.574 131.485 127.739 130.994C125.876 130.574 124.141 129.677 122.686 128.383C124.097 129.755 125.808 130.742 127.667 131.255C129.501 131.839 131.384 132.241 133.29 132.453C137.103 132.897 140.946 132.979 144.774 132.698C144.841 132.693 144.907 132.675 144.968 132.644C145.029 132.612 145.083 132.568 145.128 132.515C145.173 132.461 145.207 132.399 145.229 132.331C145.251 132.264 145.26 132.193 145.256 132.121C145.251 132.05 145.234 131.981 145.204 131.917C145.174 131.853 145.132 131.796 145.081 131.749C145.03 131.702 144.971 131.666 144.907 131.643C144.842 131.62 144.775 131.61 144.707 131.615L144.686 131.617L144.667 131.619ZM152.216 142.685C147.114 143.308 141.981 143.606 136.845 143.577C134.276 143.563 131.71 143.385 129.162 143.044C126.594 142.796 124.099 142.017 121.82 140.751C124.07 142.102 126.551 142.972 129.122 143.312C131.673 143.745 134.248 144.015 136.83 144.119C141.998 144.33 147.173 144.211 152.327 143.764C152.463 143.752 152.589 143.684 152.678 143.575C152.767 143.465 152.811 143.323 152.8 143.18C152.789 143.036 152.724 142.903 152.62 142.81C152.516 142.716 152.381 142.671 152.244 142.682L152.229 142.683L152.216 142.685ZM147.919 151.014C144.025 151.239 140.109 151.337 136.202 151.273C134.249 151.225 132.294 151.156 130.35 150.956C128.396 150.847 126.475 150.39 124.667 149.604C126.45 150.477 128.361 151.025 130.319 151.225C132.264 151.517 134.223 151.676 136.181 151.815C140.102 152.06 144.024 152.144 147.959 152.098C148.096 152.097 148.226 152.038 148.322 151.935C148.418 151.833 148.471 151.694 148.469 151.55C148.468 151.406 148.412 151.269 148.314 151.168C148.216 151.067 148.085 151.012 147.948 151.013L147.927 151.014L147.919 151.014ZM151.285 41.664C151.082 42.8365 150.949 44.0211 150.886 45.211C150.822 46.4207 150.865 47.634 151.013 48.8354C151.174 50.0908 151.568 51.3007 152.172 52.3968C152.493 53.0207 152.938 53.5651 153.476 53.9933C154.014 54.4216 154.632 54.7238 155.291 54.8797L154.58 53.9109C154.328 55.1802 153.983 56.4272 153.549 57.641C153.343 58.2147 153.092 58.769 152.797 59.298C152.607 59.6905 152.31 60.0141 151.943 60.2266L152.058 60.192C147.464 61.181 142.869 62.1768 138.305 63.3136C133.743 64.4635 129.208 65.7405 124.657 66.9458C115.561 69.3548 106.354 71.2747 97.0726 72.698L95.3482 72.9439L94.4721 73.0671C94.0604 73.1397 93.6673 73.3005 93.3171 73.5396C92.2372 74.3888 91.3874 75.5203 90.852 76.8218C89.8134 79.1198 89.0011 81.5235 88.4278 83.9955C87.2725 88.8308 86.4019 93.7364 85.8208 98.6844C84.6464 108.538 84.2866 118.479 84.7453 128.398L84.7479 128.455C84.7582 128.669 84.8481 128.87 84.9982 129.015C85.1482 129.16 85.3463 129.237 85.5498 129.229C90.3158 129.05 95.0816 128.843 99.8473 128.51C99.8778 128.508 99.9064 128.493 99.9274 128.47C99.9483 128.446 99.9599 128.415 99.9599 128.383C99.9599 128.351 99.9483 128.32 99.9274 128.296C99.9064 128.273 99.8778 128.258 99.8473 128.256C95.0816 127.923 90.3158 127.716 85.5498 127.537L86.3544 128.368C86.5674 118.551 87.2716 108.745 88.3689 99.0157C88.8658 94.1593 89.6115 89.3347 90.6027 84.5628C91.0869 82.2247 91.7637 79.9353 92.6255 77.7207C92.9754 76.7266 93.5512 75.8376 94.3026 75.131C94.4365 75.0205 94.5879 74.9356 94.7498 74.8804C95.0032 74.8146 95.3243 74.7567 95.6077 74.6945L97.3503 74.3135L111.088 70.9918C115.669 69.9262 120.266 68.9424 124.89 68.0883C129.512 67.2188 134.144 66.404 138.748 65.4484C143.35 64.4806 147.919 63.3611 152.485 62.2202L152.539 62.2067L152.6 62.1854C153.397 61.802 154.044 61.1405 154.431 60.3131C154.763 59.6639 155.042 58.9855 155.263 58.2856C155.668 56.9459 155.965 55.5728 156.152 54.1808C156.184 53.958 156.13 53.7311 156.002 53.5502C155.875 53.3692 155.684 53.2489 155.472 53.2158L155.442 53.2117C155.031 53.1326 154.643 52.953 154.311 52.6875C153.918 52.3909 153.575 52.0266 153.298 51.61C152.714 50.698 152.29 49.6842 152.044 48.616C151.786 47.4973 151.625 46.3559 151.565 45.2064C151.498 44.0437 151.513 42.8723 151.525 41.6917C151.526 41.6751 151.523 41.6584 151.518 41.6427C151.513 41.6269 151.505 41.6124 151.495 41.5999C151.484 41.5875 151.471 41.5773 151.457 41.57C151.443 41.5628 151.427 41.5585 151.411 41.5575C151.382 41.557 151.353 41.5674 151.33 41.5868C151.307 41.6063 151.291 41.6336 151.285 41.664ZM243.473 88.6757C244.019 87.2663 244.142 85.715 243.826 84.2299C243.639 83.4606 243.308 82.7384 242.852 82.106C242.381 81.4766 241.806 80.9412 241.155 80.5249C238.63 79.0228 236.1 77.8715 233.535 76.6619C228.423 74.2716 223.243 72.0838 218.106 69.8272C215.53 68.7268 212.957 67.6039 210.455 66.4068C207.883 65.1226 205.201 64.0966 202.445 63.3424C197.046 61.8397 191.621 60.4232 186.128 59.2481C191.334 61.4345 196.608 63.3794 201.907 65.238C204.51 66.1396 207.041 67.2556 209.477 68.5758C212.028 69.877 214.607 71.0223 217.187 72.1693C222.372 74.3918 227.591 76.48 232.832 78.489C235.422 79.5231 238.123 80.4655 240.581 81.6063C241.774 82.1501 242.714 83.1699 243.192 84.4417C243.66 85.7978 243.757 87.2645 243.473 88.6757Z" fill="#121212"/>
<path d="M116.523 118.871C113.667 119.057 110.88 119.87 108.341 121.258C105.769 122.554 103.309 124.082 100.989 125.826C98.6785 127.568 96.4695 129.454 94.3746 131.476C92.2882 133.495 90.2951 135.602 88.3353 137.756C89.4603 136.849 90.5402 135.89 91.6438 134.959C92.7323 134.013 93.7825 133.009 94.896 132.105C97.0822 130.243 99.2986 128.421 101.586 126.71C103.867 124.997 106.24 123.424 108.695 122.001C109.92 121.287 111.187 120.656 112.489 120.111C113.778 119.518 115.134 119.102 116.523 118.871Z" fill="#121212"/>
<path d="M116.485 155.44C112.428 159.639 107.935 163.347 103.092 166.493C101.885 167.251 100.602 167.868 99.2678 168.333C97.9439 168.82 96.5171 168.909 95.1477 168.59C92.3697 167.905 89.9465 166.127 88.3753 163.622C86.9024 161.104 86.0035 158.262 85.7489 155.317C85.4824 152.361 85.5351 149.383 85.9061 146.44C86.2513 143.459 86.346 140.431 86.5405 137.426C86.7012 134.415 86.8213 131.402 86.9007 128.387C86.9009 128.38 86.8998 128.373 86.8974 128.366C86.895 128.36 86.8914 128.353 86.8867 128.348C86.8821 128.343 86.8765 128.339 86.8703 128.336C86.8641 128.333 86.8575 128.332 86.8507 128.331C86.838 128.331 86.8256 128.336 86.8159 128.344C86.8062 128.353 86.7998 128.365 86.798 128.378C85.9832 134.35 85.4408 140.325 84.8485 146.317C84.4285 149.343 84.4077 152.416 84.7867 155.448C85.1224 158.522 86.1995 161.455 87.9157 163.968C88.8211 165.173 89.8933 166.228 91.0965 167.098C92.3303 167.903 93.6626 168.527 95.0565 168.953C96.4912 169.316 97.9886 169.303 99.4176 168.916C100.834 168.541 102.204 167.993 103.499 167.284C106.04 165.823 108.411 164.056 110.563 162.019C112.726 160.025 114.733 157.849 116.562 155.513C116.57 155.502 116.574 155.488 116.573 155.473C116.571 155.459 116.565 155.446 116.554 155.437C116.544 155.429 116.532 155.425 116.519 155.425C116.506 155.426 116.494 155.431 116.485 155.44ZM113.128 111.588C113.53 108.869 113.762 106.125 113.822 103.374C113.91 100.616 113.827 97.8552 113.573 95.1088C113.349 92.3348 112.801 89.6004 111.942 86.967C111.499 85.6345 110.869 84.3795 110.072 83.2436C109.675 82.673 109.174 82.1916 108.598 81.8277C108.022 81.4638 107.383 81.2247 106.718 81.1245C107.939 81.5403 108.965 82.4263 109.591 83.6049C110.249 84.7448 110.745 85.9801 111.062 87.2714C111.715 89.8822 112.155 92.5472 112.375 95.237C112.65 97.9346 112.771 100.655 112.899 103.38C112.963 104.743 112.998 106.109 113.021 107.476L113.128 111.588ZM156.785 70.0949C156.91 70.0948 157.03 70.0473 157.124 69.9613C157.218 69.8753 157.279 69.7566 157.296 69.6269C157.313 69.4972 157.285 69.3654 157.217 69.2558C157.149 69.1461 157.046 69.066 156.926 69.0302C154.502 68.3079 153.111 63.0683 152.78 61.1105C152.756 60.9689 152.679 60.843 152.567 60.7607C152.454 60.6784 152.316 60.6464 152.181 60.6717C152.046 60.697 151.927 60.7775 151.848 60.8955C151.77 61.0136 151.74 61.1595 151.764 61.3012C151.817 61.6155 153.109 69.0203 156.645 70.0738C156.69 70.0877 156.738 70.0948 156.785 70.0949Z" fill="#121212"/>
<path d="M89.7674 165.736C89.5864 168.819 89.4787 171.902 89.4078 174.985C89.3157 178.067 89.2742 181.15 89.2639 184.233C89.2639 184.309 89.2793 184.383 89.3088 184.452C89.3384 184.52 89.3816 184.582 89.4355 184.631C92.2909 187.268 95.3787 189.612 98.657 191.632C100.313 192.646 102.083 193.437 103.926 193.988C104.869 194.269 105.864 194.298 106.821 194.073C107.293 193.945 107.725 193.692 108.076 193.336C108.426 192.981 108.683 192.536 108.822 192.045C108.639 192.488 108.354 192.877 107.994 193.177C107.633 193.477 107.207 193.678 106.755 193.763C105.848 193.875 104.928 193.763 104.07 193.435C102.316 192.795 100.646 191.926 99.0973 190.85C95.9446 188.738 92.9379 186.394 90.0997 183.835L90.2709 184.233C90.2609 181.15 90.2191 178.067 90.1273 174.985C90.0564 171.902 89.9484 168.819 89.7674 165.736ZM291.772 347.906C291.139 349.106 290.679 350.399 290.407 351.742C290.094 353.075 289.972 354.45 290.048 355.821C290.683 354.621 291.143 353.328 291.412 351.984C291.724 350.651 291.845 349.277 291.772 347.906ZM260.884 346.893C260.217 347.787 259.707 348.799 259.38 349.882C259.014 350.951 258.835 352.081 258.853 353.217C259.522 352.325 260.031 351.312 260.357 350.229C260.721 349.159 260.899 348.029 260.884 346.893Z" fill="#121212"/>
<path d="M250.932 377.957C250.932 377.957 269.494 381.075 273.46 383.42C277.425 385.765 317.527 390.456 327.434 390.975C335.958 391.155 344.484 390.778 352.964 389.847C354.161 389.689 355.284 389.149 356.182 388.301C358.11 386.412 358.761 382.837 343.273 379.25C335.891 377.424 328.682 374.899 321.733 371.707C319.949 373.025 318.189 373.913 316.55 374.952C315.732 375.433 314.943 375.966 314.187 376.549C313.403 377.183 312.694 377.915 312.078 378.73C311.985 377.534 312.321 376.345 313.019 375.396C313.678 374.439 314.53 373.647 315.513 373.076C316.443 372.5 317.458 372.088 318.515 371.859C319.56 371.586 320.645 371.535 321.709 371.707C317.563 369.856 313.513 367.879 309.752 365.927C309.113 366.611 308.607 367.22 308.089 367.828L306.654 369.653L305.232 371.542C304.715 372.246 304.151 372.912 303.545 373.532C303.427 372.599 303.513 371.649 303.798 370.756C304.065 369.861 304.49 369.026 305.051 368.297C305.61 367.548 306.312 366.93 307.113 366.484C307.91 365.998 308.838 365.802 309.752 365.927C299.169 360.425 290.708 355.076 287.815 353.212C282.126 349.574 279.149 349.827 276.437 353.212C275.003 354.847 273.042 355.861 270.935 356.055C268.829 356.25 266.729 355.611 265.047 354.264C258.357 349.574 253.656 353.998 253.403 355.823C253.162 357.649 247.713 368.322 250.932 377.957ZM172.056 348.903C171.19 350.986 170.595 353.183 170.286 355.433C170.12 356.545 170.008 357.666 169.951 358.79C169.88 359.934 169.911 361.081 170.045 362.219C170.507 361.181 170.875 360.1 171.144 358.989C171.42 357.902 171.644 356.8 171.814 355.688C172.184 353.448 172.265 351.166 172.056 348.903ZM142.127 351.409C141.586 353.082 141.324 354.84 141.354 356.607C141.356 357.476 141.412 358.344 141.523 359.206C141.625 360.094 141.828 360.967 142.127 361.805C142.426 360.967 142.629 360.094 142.731 359.206C142.842 358.344 142.898 357.476 142.9 356.607C142.93 354.84 142.668 353.082 142.127 351.409Z" fill="#121212"/>
<path d="M136.666 396.603C136.666 396.603 154.372 401.141 163.232 406.39C172.091 411.65 190.484 419.167 211.59 412.728C211.59 412.728 216.025 412.36 187.411 385.499C187.411 385.499 186.663 384.396 185.446 382.634C181.938 382.596 178.516 382.38 175.128 382.533C173.452 382.582 171.784 382.807 170.15 383.204C168.497 383.536 167.011 384.475 165.956 385.854C166.213 384.928 166.72 384.1 167.414 383.471C168.118 382.844 168.917 382.347 169.777 382C171.467 381.333 173.251 380.965 175.056 380.91C176.826 380.845 178.598 380.96 180.348 381.252C182.09 381.515 183.8 381.978 185.446 382.634C183.662 380.061 180.842 376.093 177.852 372.201C174.104 371.648 170.318 371.419 166.534 371.517C164.681 371.62 162.839 371.883 161.026 372.303C159.198 372.806 157.425 373.507 155.734 374.394C157.138 372.936 158.824 371.812 160.676 371.098C162.542 370.414 164.489 370.008 166.462 369.894C168.421 369.823 170.381 369.976 172.308 370.35C174.221 370.704 176.081 371.322 177.841 372.189C173.103 366.028 167.921 360.07 165.618 360.07C161.351 360.07 156.542 363.226 150.949 367.726C150.003 368.533 149.121 369.42 148.31 370.376C147.369 371.441 148.057 372.531 143.826 362.212C143.826 362.212 138.366 352.553 136.666 396.603ZM184.498 323.176C190.532 323.328 196.567 323.408 202.602 323.415C211.318 323.458 220.025 323.382 228.731 323.274C237.438 323.122 246.144 322.948 254.851 322.645C257.337 322.569 259.812 322.482 262.298 322.373L262.742 321.017C260.101 320.985 257.471 320.963 254.83 320.963C246.124 320.92 237.407 320.996 228.7 321.104C219.994 321.245 211.287 321.419 202.581 321.722C196.577 321.907 190.57 322.164 184.56 322.493L184.498 323.176Z" fill="#121212"/>
<path d="M184.554 322.497L262.744 321.014L272.64 290.616C269.844 290.692 267.035 290.742 264.227 290.793C254.476 290.971 244.737 291.009 234.973 291.034C225.222 291.009 215.471 290.971 205.732 290.793C199.332 290.692 192.935 290.535 186.543 290.324C186.555 290.071 186.567 289.83 186.591 289.563C192.967 289.348 199.348 289.192 205.732 289.094C215.471 288.93 225.222 288.879 234.973 288.866C244.737 288.879 254.476 288.93 264.227 289.094C267.179 289.145 270.133 289.196 273.074 289.272L281.005 264.946C277.449 265.123 273.905 265.275 270.35 265.389C261.888 265.719 253.415 265.909 244.953 266.087C236.48 266.213 228.006 266.328 219.545 266.302C212.602 266.302 197.584 266.213 187.712 266.049C187.724 265.909 187.724 265.77 187.724 265.618C197.571 265.174 212.578 264.857 219.521 264.616C227.982 264.287 236.443 264.096 244.917 263.919C253.39 263.792 261.852 263.691 270.326 263.716C274.002 263.716 277.69 263.729 281.367 263.792L281.137 264.527L292.528 229.54C292.528 229.54 213 236.677 189.532 219.12L184.554 322.497Z" fill="#121212"/>
<path d="M120.479 291.571C116.712 291.62 112.978 291.632 109.293 291.376C107.469 291.26 105.655 291.022 103.86 290.664C102.145 290.385 100.497 289.764 99.0028 288.837C98.3534 288.426 97.8129 287.85 97.4311 287.162C97.2623 286.823 97.1393 286.461 97.0656 286.087L96.8131 284.663C96.4694 282.76 96.2478 280.828 95.9991 278.892C95.5524 275.013 95.2231 271.1 94.8718 267.153C94.3442 271.087 94.1585 275.063 94.3168 279.033C94.3677 281.024 94.556 283.01 94.7906 285L95.0127 286.488C95.1176 287.081 95.3017 287.655 95.5595 288.194C96.0945 289.232 96.8729 290.108 97.8207 290.74C98.6936 291.317 99.6376 291.766 100.626 292.075C101.566 292.39 102.528 292.626 103.503 292.779C105.406 293.072 107.328 293.194 109.25 293.144C113.038 293.077 116.806 292.549 120.479 291.571Z" fill="white"/>
<path d="M28.0653 195.212C27.294 199.852 57.138 279.282 60.2597 292.276C63.3696 305.282 83.8726 322.192 83.8726 322.192C95.817 332.067 135.268 327.301 135.268 327.301L140.463 220.717C134.918 220.819 129.361 220.857 123.817 220.907C121.021 220.895 118.309 220.958 115.452 220.869C112.557 220.752 109.706 220.082 107.039 218.892C101.622 216.464 97.2154 212.068 94.624 206.507C94.0056 205.146 93.4623 203.75 92.9967 202.324L91.5382 198.242C90.5618 195.516 89.5854 192.804 88.5608 190.104C86.5121 184.716 84.4027 179.341 81.9438 174.233C81.317 172.965 80.6661 171.723 79.9669 170.544C79.3423 169.417 78.585 168.378 77.7128 167.451C77.56 167.295 77.3901 167.159 77.2066 167.045C77.1466 167.032 77.086 166.969 77.0742 166.994C77.0501 166.994 77.0501 166.982 77.026 166.969L76.7364 166.944L74.6877 166.779L70.5656 166.5C65.0568 166.208 59.5369 166.069 54.0644 166.335C51.3501 166.438 48.6447 166.722 45.9645 167.184C44.6723 167.412 43.4017 167.76 42.1678 168.224C41.1102 168.543 40.1876 169.231 39.5524 170.176L39.5282 170.214C39.4479 170.386 39.3327 170.538 39.1907 170.658C38.0139 171.716 37.026 172.987 36.2736 174.41C35.4784 175.88 34.9051 177.471 34.5742 179.126C33.8931 182.515 33.9302 186.021 34.6828 189.394C34.8876 190.243 35.0442 191.105 35.2855 191.954C35.5386 192.791 35.7675 193.64 36.0447 194.477C36.5871 196.163 37.1535 197.836 37.7562 199.509C38.9374 202.843 40.1909 206.165 41.4687 209.473C44.0241 216.078 46.7241 222.631 49.4964 229.147L57.9696 248.631C60.8382 255.108 63.6346 261.616 66.3588 268.153C69.0831 274.681 71.7951 281.26 74.2899 287.915C76.833 294.545 79.1354 301.314 81.4137 308.007C82.5723 311.33 83.9373 314.57 85.4999 317.705C86.2938 319.255 87.2132 320.731 88.2478 322.116C89.2477 323.519 90.5165 324.685 91.9721 325.539C91.9892 325.546 92.0049 325.556 92.018 325.57C92.0311 325.583 92.0413 325.599 92.0482 325.617C92.055 325.635 92.0581 325.654 92.0575 325.674C92.0569 325.693 92.0524 325.712 92.0445 325.729C92.0312 325.766 92.0049 325.795 91.9712 325.812C91.9375 325.828 91.899 325.831 91.8638 325.818C90.2675 325.082 88.847 323.982 87.7052 322.598C86.5571 321.248 85.5208 319.798 84.6077 318.263C82.7922 315.196 81.2278 311.973 79.9311 308.628C77.3757 301.973 74.7843 295.42 72.1446 288.853C69.4809 282.287 66.7565 275.771 63.9963 269.243C61.2602 262.702 58.6125 256.122 56.0533 249.505L48.4114 229.641L40.6491 209.828L36.7921 199.902C35.4387 196.59 34.2872 193.19 33.3447 189.723C32.4246 186.15 32.2479 182.41 32.8265 178.758C33.135 176.899 33.7079 175.1 34.5259 173.421C35.3105 171.772 36.3723 170.286 37.6599 169.035C38.0344 168.285 38.5761 167.641 39.2387 167.159C39.8774 166.679 40.5697 166.283 41.3 165.98C42.5433 165.463 43.8253 165.056 45.1329 164.763C44.5298 159.772 44.2037 154.748 44.1565 149.716C44.0482 147.092 44.2168 144.468 44.3134 141.844C44.3855 139.207 44.7351 136.596 45.0123 133.972C45.1329 132.654 45.386 131.361 45.627 130.055C45.8921 128.762 46.061 127.456 46.3985 126.176L47.435 122.335C47.8328 121.08 48.3269 119.838 48.7851 118.608C49.2791 117.379 49.9059 116.2 50.4724 115.008L51.5333 113.335L52.0635 112.498L52.6903 111.738C53.4989 110.695 54.4398 109.773 55.4865 108.999C56.5025 108.194 57.6974 107.675 58.9577 107.491C58.3655 107.672 57.8041 107.95 57.2945 108.315L56.5353 108.86L55.8484 109.494C54.9622 110.358 54.1844 111.338 53.534 112.409L53.0158 113.183L52.5817 114.032L51.7139 115.705C51.2802 116.91 50.7375 118.05 50.34 119.255C48.7945 124.135 47.7282 129.168 47.1577 134.276C46.8443 136.85 46.483 139.398 46.3623 141.996C46.1451 144.57 45.9403 147.156 45.8438 149.754C45.5425 154.736 45.5066 159.731 45.2294 164.751C45.3204 164.723 45.413 164.702 45.5066 164.687C48.2838 164.116 51.0947 163.743 53.9198 163.572C59.5245 163.217 65.1173 163.255 70.6979 163.47L74.8807 163.673L76.9777 163.813L77.2066 163.825C77.3514 163.851 77.5203 163.876 77.6769 163.901C77.9699 163.962 78.2538 164.065 78.5208 164.206C78.9482 164.433 79.3454 164.719 79.7021 165.055C80.8249 166.164 81.7909 167.436 82.5706 168.832C83.3422 170.125 84.0167 171.431 84.6676 172.75C87.1765 178.02 89.4057 183.433 91.3451 188.963C92.3339 191.714 93.2979 194.452 94.2137 197.215L95.5762 201.36C95.9703 202.707 96.4412 204.028 96.9863 205.315C98.0835 207.837 99.5976 210.133 101.458 212.097C103.334 214.059 105.52 215.664 107.918 216.838C110.323 218.05 112.916 218.793 115.572 219.031C118.26 219.247 121.093 219.31 123.841 219.462C129.386 219.754 134.93 220.045 140.475 220.413L140.511 219.64C140.511 219.64 110.028 220.134 108.823 192.043C108.823 192.043 109.582 200.891 89.7662 184.234V165.739C89.7662 165.739 82.8721 161.975 85.5235 145.178L86.8495 128.382H85.5476C85.5476 128.382 85.5235 103.878 86.777 101.343C48.0498 104.423 44.4218 110.064 44.4218 110.064C29.3672 128.344 31.7055 169.745 31.7055 169.745C20.8095 171.292 28.0653 195.212 28.0653 195.212Z" fill="#121212"/>
<path d="M140.463 220.718C140.503 220.714 140.539 220.696 140.566 220.665C140.593 220.634 140.608 220.594 140.608 220.553C140.608 220.516 140.594 220.481 140.569 220.455C140.544 220.428 140.511 220.414 140.475 220.413L140.463 220.718Z" fill="white"/>
<path d="M101.37 327.286C100.573 332.914 99.9338 338.548 99.2817 344.18L98.3803 352.632L97.6017 361.087C97.3515 363.906 96.9508 366.72 96.5982 369.536C96.2555 372.344 96.1659 375.18 96.3304 378.006C96.4922 380.86 96.8165 383.7 97.3015 386.513C97.7804 389.433 98.5347 392.295 99.5533 395.058C99.5857 395.143 99.6409 395.216 99.7122 395.268C99.7834 395.32 99.8676 395.349 99.9543 395.351C100.041 395.354 100.127 395.33 100.201 395.282C100.275 395.234 100.334 395.165 100.37 395.082C101.535 392.384 102.442 389.571 103.076 386.684C103.711 383.905 104.187 381.088 104.501 378.248C104.817 375.436 104.88 372.6 104.688 369.775C104.487 366.943 104.237 364.11 104.139 361.281L103.814 352.793L103.367 344.302C103.018 338.639 102.681 332.977 102.187 327.31C102.178 327.205 102.132 327.106 102.059 327.034C101.985 326.962 101.889 326.92 101.789 326.917C101.688 326.914 101.59 326.95 101.513 327.018C101.435 327.086 101.385 327.181 101.37 327.286V327.286ZM65.4956 302.617C64.8979 307.881 64.458 313.141 64.0054 318.401L63.4033 326.288L62.9236 334.172C62.7735 336.799 62.4719 339.428 62.2194 342.055C61.9759 344.676 61.9864 347.316 62.2509 349.934C62.5141 352.585 62.9386 355.216 63.5218 357.811C64.1079 360.524 64.9633 363.166 66.0737 365.691L66.077 365.698C66.1138 365.779 66.1719 365.848 66.2444 365.895C66.3168 365.943 66.4007 365.968 66.4861 365.967C66.5716 365.966 66.6551 365.94 66.7268 365.891C66.7986 365.842 66.8556 365.773 66.8912 365.691C67.9574 363.159 68.7644 360.514 69.2986 357.802C69.8347 355.199 70.2109 352.563 70.4251 349.909C70.6412 347.282 70.6032 344.638 70.3118 342.018C70.0111 339.389 69.6615 336.761 69.4631 334.132L68.839 326.246L68.0924 318.363C67.543 313.109 67.0072 307.856 66.313 302.607C66.2991 302.503 66.2496 302.407 66.1736 302.338C66.0976 302.27 66.0003 302.232 65.9001 302.234C65.7998 302.235 65.7034 302.274 65.6289 302.345C65.5544 302.416 65.507 302.512 65.4955 302.617L65.4956 302.617Z" fill="#121212"/>
<path d="M281.827 183.613V183.892C281.838 183.803 281.85 183.702 281.861 183.613H281.827Z" fill="white"/>
<path d="M178.629 92.4217C176.913 91.7448 175.17 91.0546 173.383 90.3833C171.593 89.7176 169.82 89.0094 167.982 88.3627L162.491 86.387C160.636 85.7687 158.788 85.1348 156.929 84.5614L156.903 84.5531C156.787 84.5174 156.662 84.5315 156.556 84.5924C156.45 84.6534 156.371 84.7561 156.337 84.8781L156.326 84.9288L155.367 90.5828C155.064 92.4712 154.687 94.3432 154.339 96.2216C153.609 99.9707 152.776 103.697 151.91 107.416C151.889 107.508 151.901 107.606 151.945 107.688C151.989 107.771 152.062 107.833 152.148 107.862L152.172 107.87C155.549 108.995 158.944 110.053 162.343 111.096C165.74 112.146 169.138 113.194 172.556 114.166L172.564 114.168C172.724 114.214 172.895 114.191 173.04 114.105C173.184 114.02 173.291 113.878 173.337 113.71C174.319 110.116 175.21 106.505 176.112 102.938L178.629 92.4217ZM178.523 92.481L175.191 103.036C174.144 106.493 173.085 109.905 172.118 113.336L172.899 112.88C169.498 111.843 166.077 110.882 162.656 109.923C159.236 108.957 155.812 108.007 152.371 107.122L152.633 107.577C153.271 103.807 153.943 100.045 154.716 96.3054C155.121 94.4396 155.496 92.5673 155.946 90.7115L157.244 85.1328L156.64 85.5C158.413 86.1633 160.197 86.7663 161.974 87.3847L167.378 89.1193C169.173 89.7095 171.032 90.238 172.874 90.8091L178.523 92.481Z" fill="#121212"/>
<path d="M234.544 149.603L214.962 148.697L211.443 167.238H232.239L234.544 149.603Z" fill="#121212"/>
<path d="M270.163 99.3155L268.05 106.497C267.404 108.811 266.783 111.074 266.262 113.385L266.775 112.965C264.068 113.022 261.36 113.225 258.652 113.303C255.944 113.372 253.236 113.291 250.529 113.178L250.847 113.603C251.493 111.255 252.109 108.899 252.694 106.536C253.261 104.168 253.874 101.812 254.404 99.4346L253.778 99.9535C256.43 99.9627 259.072 99.8601 261.779 99.7393L270.163 99.3155ZM270.258 99.2376C267.682 99.0962 264.984 98.9315 262.209 98.8137C259.439 98.693 256.604 98.5903 253.778 98.5995C253.634 98.6004 253.493 98.6519 253.38 98.746C253.267 98.84 253.186 98.9712 253.152 99.1187C252.598 101.49 252.128 103.882 251.612 106.263C251.112 108.648 250.644 111.041 250.21 113.442L250.205 113.471C250.197 113.514 250.197 113.558 250.206 113.601C250.214 113.644 250.231 113.685 250.254 113.721C250.277 113.757 250.307 113.788 250.342 113.812C250.377 113.836 250.416 113.853 250.457 113.861C250.48 113.866 250.504 113.868 250.529 113.867C253.236 113.754 255.944 113.673 258.652 113.743C261.36 113.82 264.068 114.023 266.775 114.08C266.891 114.083 267.004 114.044 267.096 113.972C267.188 113.899 267.255 113.796 267.285 113.678L267.29 113.66C267.913 111.222 268.437 108.737 268.936 106.302C269.403 103.873 269.86 101.485 270.258 99.2376ZM245.422 101.347C242.689 100.899 239.925 100.687 237.159 100.714C234.393 100.684 231.629 100.896 228.896 101.347C231.629 101.799 234.393 102.011 237.159 101.981C239.925 102.008 242.689 101.796 245.422 101.347ZM243.797 111.589C241.337 111.14 238.843 110.928 236.347 110.955C233.85 110.926 231.356 111.138 228.896 111.589C231.356 112.04 233.85 112.252 236.347 112.222C238.843 112.249 241.337 112.037 243.797 111.589ZM264.3 121.483C261.143 121.222 257.987 121.099 254.83 120.998C251.673 120.882 248.517 120.866 245.36 120.85C242.204 120.864 239.047 120.881 235.89 120.996L231.156 121.172C229.577 121.278 227.999 121.339 226.421 121.483C227.999 121.627 229.577 121.688 231.156 121.794L235.89 121.971C239.047 122.086 242.204 122.102 245.36 122.117C248.517 122.101 251.673 122.084 254.83 121.968C257.987 121.867 261.143 121.745 264.3 121.483ZM261.716 128.383C258.774 128.122 255.833 127.999 252.892 127.898C249.951 127.782 247.009 127.766 244.068 127.75C241.127 127.764 238.186 127.781 235.244 127.895L230.832 128.072C229.362 128.178 227.891 128.239 226.421 128.383C227.891 128.527 229.362 128.588 230.832 128.694L235.244 128.871C238.186 128.985 241.127 129.002 244.068 129.016C247.009 129.001 249.951 128.984 252.892 128.868C255.833 128.767 258.774 128.644 261.716 128.383ZM245.422 135.934C241.196 135.484 236.95 135.273 232.703 135.3C228.455 135.27 224.209 135.482 219.984 135.934C224.209 136.386 228.455 136.598 232.703 136.567C236.95 136.595 241.196 136.383 245.422 135.934ZM237.159 143.42C233.476 142.971 229.769 142.759 226.061 142.786C222.353 142.756 218.646 142.968 214.962 143.42C218.646 143.872 222.353 144.083 226.061 144.053C229.769 144.081 233.476 143.869 237.159 143.42ZM211.442 99.2766C203.369 96.9112 195.099 95.3667 186.745 94.6644C190.769 95.8756 194.854 96.8532 198.98 97.5927C203.102 98.3905 207.262 98.9526 211.442 99.2766ZM209.586 108.725C205.451 107.418 201.254 106.342 197.013 105.499C192.781 104.6 188.507 103.938 184.209 103.517C188.342 104.826 192.539 105.903 196.782 106.743C201.014 107.639 205.288 108.301 209.586 108.725ZM204.51 118.871C200.716 117.544 196.853 116.444 192.94 115.578C189.039 114.655 185.09 113.969 181.114 113.523C184.908 114.853 188.771 115.952 192.684 116.816C196.586 117.736 200.534 118.422 204.51 118.871ZM201.911 128.314C197.548 127.049 193.158 125.919 188.763 124.81C184.372 123.687 179.96 122.662 175.548 121.636C171.13 120.641 166.711 119.647 162.273 118.75L155.615 117.408C153.386 117.006 151.166 116.561 148.929 116.197C151.108 116.842 153.303 117.407 155.489 118.015L162.076 119.703C166.468 120.825 170.88 121.851 175.292 122.874C179.71 123.869 184.129 124.862 188.567 125.759C193.003 126.67 197.443 127.56 201.911 128.314ZM199.094 137.757C195.619 136.72 192.117 135.819 188.611 134.938C185.108 134.044 181.586 133.247 178.063 132.45C174.535 131.683 171.006 130.918 167.458 130.249L162.134 129.251C160.351 128.963 158.576 128.633 156.785 128.383C158.52 128.914 160.27 129.365 162.013 129.859L167.266 131.203C170.77 132.097 174.292 132.895 177.815 133.69C181.344 134.455 184.873 135.22 188.421 135.888C191.967 136.57 195.516 137.231 199.094 137.757ZM196.897 146.935C193.894 146.092 190.866 145.385 187.835 144.7C184.807 144 181.761 143.398 178.716 142.797C175.665 142.225 172.614 141.655 169.546 141.183L164.943 140.478C163.401 140.288 161.867 140.056 160.318 139.905C161.817 140.339 163.331 140.693 164.837 141.089L169.379 142.142C172.408 142.841 175.453 143.443 178.499 144.043C181.55 144.613 184.601 145.183 187.669 145.655C190.735 146.141 193.804 146.606 196.897 146.935ZM195.226 154.282C191.942 153.489 188.638 152.832 185.331 152.197C182.026 151.548 178.707 150.997 175.387 150.446C172.064 149.925 168.74 149.406 165.401 148.985L160.393 148.357C158.718 148.194 157.048 147.987 155.366 147.862C157.006 148.271 158.658 148.6 160.304 148.972L165.261 149.949C168.566 150.597 171.885 151.149 175.205 151.698C178.529 152.217 181.853 152.736 185.191 153.157C188.528 153.591 191.867 154.005 195.226 154.282ZM192.812 163.659C189.197 162.751 185.559 161.98 181.918 161.23C178.28 160.466 174.626 159.8 170.971 159.135C167.312 158.499 163.652 157.866 159.977 157.329L154.464 156.529C152.619 156.307 150.78 156.043 148.929 155.86C150.735 156.327 152.553 156.713 154.365 157.141L159.823 158.29C163.462 159.054 167.116 159.72 170.77 160.384C174.43 161.018 178.089 161.652 181.765 162.187C185.437 162.737 189.114 163.266 192.812 163.659Z" fill="#121212"/>
</svg>
