<svg width="375" height="340" viewBox="0 0 375 340" fill="none" xmlns="http://www.w3.org/2000/svg">
<path d="M257.095 15.1452C257.095 15.1452 207.175 17.9152 191.365 27.1352C191.365 27.1352 193.605 51.4152 194.745 74.0153L195.205 77.6352C190.206 79.8899 185.392 82.5312 180.805 85.5351C180.805 85.5351 176.795 89.4152 175.285 98.0551C172.636 104.419 169.479 110.559 165.845 116.415C161.515 115.645 157.021 114.779 152.365 113.815L151.885 99.3851C164.135 96.3353 159.435 93.8251 159.435 93.8251L158.095 93.4752C156.002 92.9246 153.835 92.7086 151.675 92.8353L151.665 92.4352L149.635 30.3651C149.635 30.3651 225.925 -2.34483 257.095 15.1452ZM164.025 40.3153L167.345 40.2252C169.565 40.1551 171.775 40.0152 173.995 39.8751C176.205 39.7052 178.415 39.535 180.615 39.2953C182.825 39.0551 185.035 38.8051 187.225 38.4452C185.005 38.3952 182.785 38.4552 180.565 38.5253C178.345 38.5951 176.135 38.7353 173.925 38.8751C171.715 39.0453 169.495 39.2152 167.295 39.4552L163.985 39.8251C162.885 39.9852 161.785 40.1151 160.685 40.3051C161.795 40.3451 162.905 40.3153 164.025 40.3153ZM159.995 46.1151C161.115 46.1451 162.225 46.1151 163.335 46.1251L166.665 46.0252C168.885 45.9652 171.095 45.8251 173.305 45.6752C175.515 45.5152 177.725 45.3451 179.935 45.0951C182.135 44.8651 184.345 44.6051 186.545 44.2452C184.315 44.1952 182.095 44.2552 179.875 44.3353C177.665 44.3951 175.445 44.535 173.235 44.6852C171.025 44.8451 168.815 45.0152 166.605 45.2652L163.305 45.6351C162.205 45.7953 161.095 45.9152 159.995 46.1151L159.995 46.1151ZM181.185 53.4252C178.525 53.6151 175.875 53.8852 173.225 54.1552C170.575 54.4452 167.925 54.7452 165.285 55.1152L161.335 55.6852C160.015 55.9052 158.695 56.0951 157.385 56.3551C158.725 56.3251 160.055 56.2353 161.385 56.1752L165.375 55.8852C168.035 55.6953 170.685 55.4252 173.335 55.1452C175.975 54.8552 178.625 54.5551 181.265 54.1852C183.905 53.8153 186.545 53.4352 189.175 52.9552C186.505 53.0253 183.845 53.2152 181.185 53.4252L181.185 53.4252ZM160.485 84.1151C160.705 86.5853 160.635 89.0751 160.685 91.5453C160.755 94.0153 160.885 96.4752 160.895 98.9051C160.905 99.5153 160.905 100.115 160.895 100.695C160.875 100.985 160.875 101.215 160.845 101.525L160.755 102.475C160.636 103.258 160.726 104.058 161.015 104.795C161.227 105.239 161.564 105.611 161.985 105.865C162.334 106.07 162.717 106.212 163.115 106.285C164.414 106.482 165.734 106.488 167.035 106.305C168.275 106.155 169.515 105.965 170.745 105.745C170.77 105.741 170.792 105.727 170.807 105.706C170.822 105.686 170.828 105.66 170.825 105.635C170.82 105.613 170.809 105.593 170.793 105.577C170.777 105.561 170.757 105.55 170.735 105.545C169.495 105.385 168.255 105.265 167.015 105.175C165.849 105.119 164.692 104.938 163.565 104.635C163.065 104.445 162.795 104.255 162.765 104.035C162.691 103.587 162.698 103.13 162.785 102.685L162.925 101.795C162.975 101.495 163.005 101.105 163.035 100.775C163.045 100.125 163.045 99.4853 163.025 98.8551C162.885 96.3354 162.635 93.8751 162.305 91.4051C161.945 89.035 161.445 86.6851 161.135 84.3153C162.533 83.949 163.984 83.8205 165.425 83.9352C166.173 83.9841 166.915 84.0945 167.645 84.2653C168.015 84.3451 168.355 84.4552 168.725 84.555C169.141 84.6656 169.566 84.7425 169.995 84.785C171.633 84.893 173.277 84.7171 174.855 84.2653C176.402 83.8623 177.904 83.2993 179.335 82.5853L179.405 82.5551C179.548 82.4516 179.707 82.3707 179.875 82.3153C180.015 82.2681 180.167 82.2716 180.305 82.3251C180.467 82.4084 180.595 82.5467 180.665 82.7152C180.765 82.9149 180.839 83.1266 180.885 83.3451L180.895 83.3551C180.897 83.3681 180.902 83.3805 180.91 83.3914C180.917 83.4022 180.927 83.4113 180.939 83.418C180.95 83.4246 180.963 83.4287 180.976 83.43C180.989 83.4312 181.002 83.4296 181.015 83.4252C181.034 83.4218 181.051 83.412 181.064 83.3975C181.077 83.3829 181.084 83.3644 181.085 83.3451C181.118 83.0897 181.122 82.8313 181.095 82.5751C181.046 82.2798 180.906 82.0071 180.695 81.7953C180.441 81.5832 180.115 81.4759 179.785 81.4953C179.506 81.4967 179.231 81.5545 178.975 81.6652C177.495 82.0351 175.995 82.3852 174.505 82.6452C173.055 82.9248 171.582 83.0655 170.105 83.0653C169.745 83.0751 169.415 83.0154 169.065 82.9953C168.665 82.9553 168.245 82.8852 167.835 82.8852C167.024 82.8546 166.212 82.8847 165.405 82.9753C163.824 83.1543 162.255 83.4246 160.705 83.7851C160.636 83.8018 160.576 83.842 160.534 83.8986C160.492 83.9552 160.471 84.0247 160.475 84.0951L160.485 84.1151ZM161.765 74.5951L165.755 74.7653C168.405 74.8851 171.065 74.9152 173.725 74.9452C176.385 74.9552 179.035 74.9652 181.695 74.8952C184.355 74.8354 187.015 74.7653 189.675 74.5751C187.015 74.3451 184.365 74.2353 181.705 74.1251C179.045 74.0153 176.385 73.9852 173.735 73.9452C171.075 73.9352 168.415 73.9252 165.755 73.9952L161.765 74.1051C160.435 74.1751 159.105 74.2152 157.775 74.3153C159.105 74.4452 160.435 74.5053 161.765 74.5951V74.5951ZM160.275 71.4352L163.605 71.3451C165.825 71.2753 168.035 71.1351 170.245 70.9953C172.455 70.8251 174.675 70.6552 176.875 70.4152C179.085 70.1752 181.285 69.9252 183.485 69.5653C181.255 69.5153 179.035 69.5751 176.825 69.6452C174.605 69.7152 172.395 69.8552 170.175 69.9953C167.965 70.1652 165.755 70.3353 163.555 70.5751L160.245 70.9452C159.145 71.1051 158.045 71.2352 156.945 71.4252C158.055 71.4652 159.165 71.4352 160.275 71.4352V71.4352ZM184.175 63.7553C181.945 63.7053 179.725 63.7653 177.505 63.8451C175.285 63.9052 173.075 64.0453 170.865 64.1952C168.655 64.3551 166.445 64.5253 164.235 64.7753L160.925 65.1452C159.825 65.3051 158.725 65.4352 157.625 65.6251C158.745 65.6551 159.855 65.6252 160.965 65.6352L164.295 65.5351C166.505 65.4752 168.725 65.3354 170.935 65.1852C173.145 65.0253 175.355 64.8551 177.565 64.6051C179.765 64.3751 181.975 64.1251 184.175 63.7553L184.175 63.7553ZM159.815 60.8551L163.145 60.7653C165.365 60.7052 167.575 60.5551 169.795 60.4152C172.005 60.2453 174.215 60.0751 176.415 59.8353C178.625 59.5951 180.825 59.3451 183.025 58.9852C180.805 58.9352 178.585 58.9952 176.365 59.0653C174.145 59.1351 171.935 59.2753 169.725 59.4152C167.505 59.5853 165.295 59.7553 163.095 59.9953L159.785 60.3751C158.685 60.5351 157.585 60.6551 156.485 60.8451C157.595 60.8852 158.705 60.8551 159.815 60.8551L159.815 60.8551ZM158.375 51.2953L161.705 51.2052C163.925 51.1452 166.135 50.9952 168.345 50.8551C170.555 50.6852 172.765 50.5153 174.975 50.2753C177.185 50.035 179.385 49.7851 181.585 49.4252C179.355 49.3752 177.135 49.4352 174.925 49.5053C172.705 49.5751 170.495 49.7153 168.275 49.8551C166.065 50.0253 163.855 50.1952 161.655 50.4352L158.345 50.8153C157.245 50.9752 156.135 51.0951 155.045 51.285C156.155 51.3251 157.265 51.2953 158.375 51.2953H158.375ZM157.615 35.8751L161.605 35.5853C164.265 35.3951 166.915 35.1251 169.565 34.8451C172.205 34.5551 174.855 34.2553 177.495 33.8851C180.135 33.5152 182.775 33.1351 185.405 32.6551C182.735 32.7252 180.075 32.9151 177.415 33.1251C174.755 33.3153 172.105 33.5853 169.455 33.8551C166.805 34.1551 164.155 34.4452 161.525 34.8251L157.565 35.3852C156.245 35.6052 154.925 35.7953 153.615 36.0551C154.955 36.0253 156.285 35.9352 157.615 35.8751L157.615 35.8751ZM196.905 115.255C197.39 113.679 198.272 112.254 199.465 111.115L199.805 113.815C225.705 120.365 240.265 121.275 247.965 120.865C238.085 122.145 218.555 123.415 188.905 119.865C191.705 119.815 196.445 117.895 196.905 115.255ZM193.975 86.9252C193.975 86.9252 194.905 86.3752 196.205 85.5253L196.385 86.9553C195.584 86.8634 194.777 86.8533 193.975 86.9252V86.9252Z" fill="#121212"/>
<path d="M255.605 119.535C254.304 119.422 252.997 119.403 251.694 119.476C250.413 119.521 249.149 119.644 247.887 119.806C247.615 119.841 247.367 119.98 247.195 120.194C247.024 120.408 246.942 120.68 246.968 120.954C246.993 121.227 247.124 121.479 247.332 121.658C247.54 121.837 247.809 121.928 248.083 121.912C249.405 121.85 250.716 121.642 251.992 121.292C252.64 121.118 253.272 120.894 253.885 120.621C254.511 120.35 255.091 119.984 255.605 119.535ZM255.605 119.535C254.26 119.616 253.01 119.611 251.743 119.656C250.48 119.678 249.227 119.729 247.967 119.798L248.163 121.905C249.451 121.739 250.724 121.469 251.968 121.098C253.247 120.747 254.471 120.221 255.605 119.535Z" fill="#121212"/>
<path d="M117.675 42.8764C117.362 45.618 117.095 48.3465 116.715 51.0346C116.518 52.3751 116.317 53.715 116.005 55.0015C115.866 55.6353 115.687 56.2598 115.469 56.8713C115.369 57.1607 115.25 57.4427 115.11 57.7154L114.889 58.2349C114.797 58.432 114.726 58.6384 114.678 58.8506C114.477 59.6625 114.494 60.513 114.727 61.3161C114.921 62.0527 115.225 62.7556 115.629 63.4012C116.389 64.6163 117.294 65.7342 118.325 66.73C118.576 66.976 118.828 67.2206 119.088 67.4553L119.479 67.8058L119.676 67.9786C119.722 68.0178 119.766 68.0604 119.806 68.1061C119.963 68.3013 120.04 68.5482 120.024 68.7979C119.987 69.0814 119.872 69.3489 119.691 69.5704C119.011 70.6912 117.921 71.5031 116.652 71.8342C116.605 71.8437 116.561 71.8638 116.524 71.893C116.486 71.9221 116.456 71.9595 116.435 72.0022L116.426 72.0193C115.325 74.2477 114.025 76.3728 112.544 78.369C111.129 80.3455 109.502 82.1609 107.691 83.7826C106.839 84.5273 105.857 85.1093 104.795 85.4995C104.313 85.6674 103.805 85.749 103.295 85.7406C103.052 85.7374 102.809 85.7135 102.57 85.6689C102.309 85.6257 101.988 85.5401 101.7 85.4781C100.541 85.214 99.402 84.8675 98.2921 84.4413C97.7795 84.2431 97.2893 83.9913 96.8297 83.69C96.6365 83.5636 96.4588 83.4148 96.3005 83.2467C96.2413 83.189 96.1888 83.1247 96.1441 83.0551L96.1074 82.9986C96.1004 83.02 96.1075 82.9312 96.1036 83.1413L94.5487 82.2647C93.5308 83.0673 92.6142 83.9904 91.8189 85.0139C91.0256 85.9995 90.3459 87.0713 89.7927 88.2092C88.6589 90.4355 88.0374 92.8872 87.9735 95.3847C87.9725 95.4099 87.9809 95.4346 87.9969 95.454C88.013 95.4734 88.0356 95.4863 88.0605 95.4901C88.0854 95.4939 88.1109 95.4884 88.132 95.4747C88.1532 95.461 88.1686 95.44 88.1753 95.4157L88.1768 95.4097C88.4553 94.242 88.8312 93.0997 89.3006 91.9947C89.7472 90.903 90.3017 89.8586 90.9558 88.877C91.5987 87.904 92.3243 86.9882 93.1245 86.1398C93.8962 85.3091 94.7506 84.5593 95.6745 83.9021L94.1198 83.0256C94.1122 83.2297 94.1415 83.4335 94.2062 83.6272C94.2465 83.7554 94.2982 83.8798 94.3606 83.9989C94.4645 84.2051 94.5922 84.3984 94.7411 84.5749C94.9971 84.8774 95.2893 85.1472 95.6111 85.3783C96.1834 85.7889 96.7983 86.1366 97.4451 86.4154C98.6558 86.9369 99.9157 87.3357 101.206 87.6057C101.53 87.6738 101.816 87.7514 102.172 87.8115C102.55 87.8789 102.933 87.905 103.316 87.8894C104.061 87.8686 104.797 87.719 105.491 87.4471C106.769 86.9245 107.939 86.1696 108.943 85.2207C110.821 83.4337 112.407 81.3639 113.645 79.0865C114.887 76.8789 116.014 74.6084 117.021 72.2841L116.796 72.469C118.205 72.064 119.426 71.1735 120.241 69.9552C120.511 69.6522 120.692 69.2815 120.767 68.883C120.828 68.4427 120.726 67.9953 120.481 67.6248C120.42 67.5317 120.351 67.4437 120.276 67.3618L120.107 67.1721L119.774 66.7899C119.553 66.5349 119.341 66.2715 119.132 66.0085C118.3 64.9809 117.593 63.8584 117.025 62.6644C116.474 61.6384 116.272 60.4604 116.451 59.3093C116.479 59.1866 116.522 59.0681 116.58 58.9568L116.65 58.7827L116.764 58.5291C116.926 58.185 117.066 57.8301 117.18 57.467C117.403 56.7771 117.582 56.0739 117.716 55.3616C117.962 53.9781 118.118 52.58 118.181 51.1762C118.329 48.405 118.228 45.626 117.88 42.8728C117.878 42.8594 117.874 42.8464 117.867 42.8346C117.86 42.8229 117.851 42.8126 117.84 42.8043C117.83 42.796 117.817 42.7899 117.804 42.7863C117.791 42.7828 117.778 42.7818 117.764 42.7835C117.741 42.787 117.72 42.7979 117.704 42.8147C117.687 42.8315 117.677 42.8532 117.675 42.8764ZM88.0752 69.7643C87.8756 70.7644 87.8585 71.7923 88.0247 72.7984C88.1785 73.8185 88.4887 74.8087 88.9443 75.7342C89.4048 76.6694 90.0409 77.5072 90.818 78.202C91.5797 78.8945 92.4896 79.4037 93.4782 79.6908C92.722 79.0742 92.0239 78.3896 91.3926 77.6456C90.789 76.9193 90.2744 76.1235 89.8598 75.275C89.0294 73.5229 88.4295 71.6706 88.0752 69.7643Z" fill="#121212"/>
<path d="M85.3549 65.3352C77.6166 83.5375 56.8056 88.7401 54.6548 57.9536C53.2858 38.3588 70.3654 21.9046 83.2774 22.7701C86.545 22.4609 89.8403 22.6303 93.059 23.2727C97.4806 24.2115 101.686 25.9733 105.457 28.4664C110.136 31.3576 114.274 35.0428 117.687 39.3562C118.082 43.0614 117.259 46.7946 115.341 49.9896C111.857 55.6239 105.917 57.334 102.613 57.8529C101.49 58.0492 100.336 57.9535 99.2604 57.5752C98.1851 57.1968 97.2251 56.5484 96.4726 55.6921C95.9404 55.0622 95.54 54.332 95.2951 53.5446C94.9919 52.3914 94.4581 51.3116 93.7259 50.3704C92.9937 49.4293 92.0784 48.6463 91.0351 48.0688C88.4563 46.7924 85.2999 47.1781 83.8026 54.9371C82.5563 61.3952 83.7108 64.2011 85.3549 65.3352ZM202.458 178.576C198.956 177.986 195.422 177.597 191.875 177.412C188.348 177.177 184.821 177.096 181.295 177.101C177.768 177.113 174.242 177.215 170.717 177.469C167.17 177.674 163.639 178.085 160.14 178.699C163.642 179.293 167.176 179.683 170.723 179.868C174.25 180.101 177.777 180.183 181.304 180.174C184.831 180.158 188.357 180.057 191.883 179.802C195.429 179.596 198.96 179.187 202.458 178.576Z" fill="#121212"/>
<path d="M165.714 169.792C171.359 170.053 177.004 170.248 182.65 170.44L191.119 170.735L195.354 170.871C196.706 170.88 198.055 171.015 199.382 171.276C202.011 171.799 204.514 172.827 206.752 174.304L208.457 175.488C208.994 175.856 209.506 176.259 209.991 176.693C210.933 177.557 211.743 178.556 212.395 179.656C213.038 180.755 213.514 181.943 213.808 183.182C213.953 183.798 214.05 184.425 214.099 185.056C214.137 185.37 214.128 185.688 214.142 186.003L214.145 187.051L214.17 195.521L214.251 212.46L214.411 229.399C214.51 240.691 214.702 251.982 214.988 263.272L215.494 280.206L215.625 284.439C215.642 285.136 215.679 285.871 215.679 286.536C215.689 287.177 215.65 287.818 215.563 288.453C215.222 291.029 214.11 293.441 212.372 295.373C211.492 296.333 210.482 297.167 209.372 297.849C208.237 298.503 207.018 298.998 205.749 299.321C204.428 299.595 203.082 299.732 201.733 299.732L197.504 299.886C191.863 300.041 186.221 300.174 180.577 300.219C158.004 300.422 135.45 299.713 112.915 298.093C101.662 297.292 90.4303 296.265 79.2232 295.098C76.4201 294.816 73.626 294.461 70.8275 294.146C68.0244 293.84 65.241 293.475 62.4631 293.097L58.2923 292.546L57.2493 292.413L56.7278 292.346C56.6873 292.344 56.6473 292.336 56.6092 292.322L56.4288 292.274C55.8801 292.111 55.3501 291.891 54.8475 291.617C53.8239 291.061 52.9175 290.313 52.1785 289.413C51.4442 288.487 50.8803 287.438 50.5132 286.314C50.1429 285.129 49.9304 283.901 49.8811 282.66C49.8318 282.021 49.8305 281.378 49.8774 280.738L49.9356 279.765L49.9639 279.277L50.0111 278.722C50.2534 275.779 50.2976 272.954 50.3341 270.096C50.3745 264.399 50.2369 258.723 49.986 253.051C49.486 241.709 48.4301 230.403 46.9962 219.146C44.1581 196.6 39.1334 174.384 31.9933 152.811C28.3879 142.033 23.9461 131.554 18.7083 121.468C17.4377 118.93 16.0091 116.472 14.5964 114.012C13.1261 111.651 11.8817 109.157 10.8796 106.562C9.91953 103.953 9.2688 101.24 8.94075 98.4796C8.76978 97.1204 8.82181 95.7424 9.0948 94.4C9.20625 93.7438 9.48515 93.1274 9.9045 92.6105C10.3239 92.0935 10.8694 91.6936 11.4886 91.4492L11.5029 91.4441C11.554 91.4258 11.5959 91.3879 11.6191 91.3388C11.6423 91.2898 11.6451 91.2334 11.6268 91.1823C11.6086 91.1311 11.5707 91.0893 11.5216 91.0661C11.4725 91.0428 11.4162 91.0401 11.3651 91.0583C10.6418 91.2758 9.99341 91.6906 9.49287 92.2562C9.0097 92.8289 8.65497 93.4986 8.45259 94.2201C8.06696 95.628 7.92603 97.0917 8.03596 98.5473C8.23331 101.415 8.76772 104.249 9.62813 106.991C10.5292 109.717 11.6845 112.351 13.0788 114.861C14.3413 117.373 15.6942 119.832 16.8528 122.394C19.317 127.441 21.4236 132.655 23.4766 137.877C25.4325 143.141 27.2811 148.442 28.9454 153.804C32.2918 164.528 35.0615 175.423 37.2425 186.443C38.3611 191.947 39.3487 197.478 40.2771 203.017C41.1718 208.564 41.9658 214.125 42.6591 219.702C43.3389 225.279 43.9908 230.861 44.4858 236.458C44.9848 242.055 45.3958 247.658 45.7188 253.266C46.0362 258.873 46.2405 264.487 46.2697 270.084C46.2702 272.87 46.2541 275.697 46.0653 278.384C45.7009 281.462 45.9717 284.583 46.861 287.552C47.3938 289.111 48.2013 290.562 49.2454 291.836C50.3168 293.111 51.6267 294.165 53.1018 294.938C53.8452 295.329 54.6283 295.641 55.4377 295.866L55.7703 295.949C55.9024 295.981 56.0363 296.006 56.1713 296.023L56.7007 296.085L57.7594 296.208L61.9958 296.683C64.821 297.006 67.6435 297.314 70.4599 297.561C73.2789 297.817 76.094 298.114 78.9149 298.336L87.3763 299.004L95.8461 299.525C98.6684 299.708 101.494 299.832 104.318 299.966C107.142 300.1 109.965 300.244 112.791 300.334C124.087 300.832 135.391 301.014 146.687 301.228C157.985 301.409 169.283 301.516 180.581 301.549L197.531 301.571L201.77 301.566C203.245 301.614 204.722 301.511 206.176 301.259C209.177 300.652 211.92 299.142 214.039 296.931C216.722 294.129 218.254 290.42 218.33 286.54C218.354 285.795 218.34 285.117 218.348 284.403L218.361 280.167L218.4 263.226C218.366 251.933 218.247 240.641 218.042 229.35L217.734 212.413L217.347 195.478L217.139 187.01L217.106 185.94C217.08 185.551 217.075 185.161 217.02 184.775C216.937 184 216.795 183.233 216.595 182.48C215.795 179.462 214.1 176.756 211.733 174.719C211.152 174.227 210.54 173.773 209.901 173.359C209.306 172.971 208.742 172.584 208.089 172.186C205.538 170.637 202.711 169.598 199.764 169.128C198.309 168.899 196.835 168.806 195.363 168.85L191.128 168.907L182.659 169.047C177.012 169.134 171.366 169.226 165.718 169.382C165.665 169.384 165.614 169.406 165.577 169.444C165.54 169.481 165.519 169.532 165.518 169.585C165.518 169.639 165.538 169.69 165.574 169.728C165.611 169.767 165.661 169.79 165.714 169.792H165.714Z" fill="#121212"/>
<path d="M112.482 169.106C110.251 168.493 107.972 168.07 105.67 167.84C103.397 167.594 101.124 167.468 98.8495 167.446C96.5751 167.423 94.2997 167.508 92.0232 167.713C89.7167 167.9 87.4303 168.284 85.1891 168.86C87.4196 169.476 89.6987 169.901 92.0015 170.13C94.2738 170.376 96.5474 170.502 98.8218 170.52C101.096 170.539 103.372 170.454 105.648 170.249C107.954 170.061 110.24 169.678 112.482 169.106ZM53.4794 293.069C53.0881 296.272 52.9156 299.475 52.7876 302.679C52.6743 305.882 52.6095 309.085 52.7287 312.289C52.8756 315.492 53.1742 318.695 53.2495 321.899C53.2551 322.699 53.281 323.5 53.2699 324.301C53.2656 324.7 53.2565 325.095 53.2837 325.533C53.326 325.96 53.4156 326.381 53.5508 326.788C53.8341 327.622 54.3198 328.373 54.9644 328.973C55.609 329.573 56.3924 330.004 57.2444 330.227C58.6103 330.578 60.0595 330.381 61.2823 329.678C62.5051 328.975 63.4044 327.822 63.7882 326.465C63.922 326.005 63.9957 325.53 64.0073 325.051L64.0342 323.847C64.1051 320.644 64.1912 317.44 64.1633 314.237C64.0766 307.83 63.8193 301.424 63.1726 295.017C63.1701 294.992 63.1582 294.968 63.1393 294.951C63.1203 294.934 63.0957 294.924 63.0701 294.924C63.0446 294.924 63.0199 294.934 63.001 294.951C62.982 294.968 62.9701 294.992 62.9676 295.017C62.3209 301.424 62.0636 307.83 61.977 314.237C61.9492 317.44 62.0351 320.644 62.106 323.847L62.1313 325.045C62.1347 325.368 62.1016 325.69 62.0324 326.005C61.8883 326.647 61.5876 327.243 61.1573 327.74C60.7133 328.25 60.1541 328.646 59.5262 328.896C58.8703 329.139 58.1655 329.218 57.4721 329.128C56.7502 329.019 56.0691 328.723 55.496 328.271C54.923 327.819 54.4777 327.225 54.204 326.548C53.9393 325.83 53.8335 325.064 53.8938 324.301C53.8828 323.5 53.9086 322.699 53.9141 321.899C53.9895 318.695 54.2881 315.492 54.4349 312.289C54.5541 309.085 54.4894 305.882 54.3761 302.679C54.248 299.475 54.0755 296.272 53.6842 293.069C53.6812 293.044 53.6691 293.021 53.6502 293.004C53.6313 292.987 53.607 292.978 53.5817 292.978C53.5565 292.978 53.5322 292.987 53.5133 293.004C53.4944 293.021 53.4823 293.044 53.4793 293.069H53.4794ZM199.739 300.243C199.348 302.978 199.175 305.713 199.047 308.448C198.934 311.183 198.869 313.918 198.988 316.652C199.135 319.387 199.433 322.122 199.509 324.857C199.502 325.587 199.643 326.312 199.924 326.986C200.205 327.66 200.621 328.27 201.145 328.779C201.695 329.317 202.355 329.73 203.079 329.99C203.803 330.25 204.575 330.351 205.342 330.287C206.109 330.222 206.853 329.994 207.523 329.617C208.194 329.239 208.775 328.722 209.229 328.1C209.704 327.441 210.025 326.683 210.167 325.882C210.257 325.158 210.299 324.429 210.294 323.699C210.364 320.964 210.45 318.229 210.423 315.494C210.374 310.011 210.043 304.534 209.432 299.085C209.429 299.06 209.417 299.037 209.398 299.02C209.379 299.003 209.355 298.994 209.329 298.994C209.304 298.994 209.28 299.003 209.261 299.02C209.242 299.037 209.23 299.06 209.227 299.085C208.616 304.534 208.285 310.011 208.236 315.494C208.208 318.229 208.295 320.964 208.365 323.699C208.375 324.374 208.424 325.117 208.373 325.611C208.247 326.678 207.71 327.653 206.875 328.329C206.041 329.005 204.975 329.328 203.906 329.23C202.836 329.131 201.848 328.619 201.15 327.802C200.453 326.986 200.103 325.929 200.174 324.857C200.249 322.122 200.547 319.387 200.694 316.652C200.814 313.918 200.749 311.183 200.635 308.448C200.507 305.713 200.335 302.978 199.944 300.243C199.94 300.218 199.928 300.196 199.909 300.18C199.89 300.163 199.866 300.154 199.841 300.154C199.816 300.154 199.792 300.163 199.773 300.18C199.755 300.196 199.742 300.218 199.739 300.243L199.739 300.243ZM151.651 92.8081C149.617 93.0156 147.58 93.3393 145.622 93.4021L145.675 93.3999L144.445 93.3341C144.258 93.3232 144.073 93.387 143.933 93.5115C143.792 93.6361 143.707 93.8112 143.695 93.9986C143.684 94.186 143.747 94.3704 143.871 94.5114C143.995 94.6523 144.169 94.7385 144.357 94.7509C144.812 94.78 145.273 94.8023 145.736 94.8096C145.777 94.8103 145.818 94.8044 145.858 94.7919L145.917 94.7727C146.994 94.4341 148.093 94.1722 149.206 93.9889C150.314 93.8226 151.43 93.7233 152.55 93.6915C153.67 93.6595 154.791 93.6898 155.908 93.7822C157.049 93.9015 158.183 94.0836 159.304 94.3276L159.19 94.2833C159.355 94.3504 159.503 94.4527 159.624 94.5832C159.745 94.7137 159.836 94.8691 159.891 95.0386C159.967 95.3451 159.691 95.726 159.387 96.0543C158.632 96.6877 157.772 97.1841 156.845 97.5211C156.37 97.6891 155.905 97.8796 155.422 98.0293L153.962 98.4426C152.972 98.6615 151.981 98.8842 150.991 99.0613C150.914 99.0749 150.843 99.1086 150.784 99.1591L150.734 99.2021C149.608 100.145 148.416 101.008 147.169 101.784C145.953 102.565 144.673 103.243 143.344 103.809C142.082 104.36 140.725 104.657 139.349 104.684C138.074 104.702 136.827 104.3 135.803 103.539L135.772 103.516C135.6 103.388 135.392 103.317 135.177 103.312C134.962 103.308 134.752 103.37 134.574 103.491C133.364 104.318 132.138 105.122 130.94 105.968C129.736 106.805 128.54 107.654 127.351 108.515C126.16 109.372 124.996 110.271 123.817 111.146C122.645 112.033 121.49 112.944 120.351 113.881C120.331 113.897 120.319 113.919 120.315 113.944C120.311 113.968 120.317 113.993 120.33 114.014C120.343 114.035 120.364 114.05 120.388 114.056C120.412 114.063 120.437 114.06 120.459 114.049C121.779 113.39 123.082 112.705 124.368 111.994C125.647 111.273 126.941 110.575 128.209 109.835C129.48 109.102 130.742 108.355 131.995 107.593C133.255 106.842 134.488 106.049 135.736 105.279L134.507 105.232C135.901 106.302 137.628 106.845 139.384 106.764C141.02 106.666 142.62 106.245 144.092 105.526C145.508 104.862 146.844 104.039 148.075 103.075C149.289 102.124 150.427 101.079 151.476 99.9485L151.219 100.089C152.217 99.803 153.188 99.4593 154.169 99.149C155.144 98.8117 156.117 98.476 157.077 98.0864C158.067 97.7114 159.002 97.2025 159.854 96.5737C160.107 96.3878 160.316 96.1487 160.467 95.8732C160.617 95.5977 160.705 95.2925 160.725 94.9792C160.712 94.6318 160.591 94.297 160.38 94.0213C160.189 93.7619 159.951 93.5401 159.68 93.3672C159.666 93.3584 159.651 93.3512 159.635 93.3459L159.566 93.3228C158.444 92.9178 157.3 92.5787 156.138 92.3074C154.951 92.0395 153.736 91.9072 152.519 91.9131C150.089 91.9304 147.685 92.407 145.433 93.3178L145.614 93.2809C145.257 93.2883 144.898 93.3105 144.533 93.3397L144.445 94.7564L145.675 94.6906L145.728 94.6884C146.759 94.5283 147.778 94.2962 148.777 93.9937C149.767 93.705 150.74 93.3746 151.699 93.0025C151.721 92.9936 151.74 92.9768 151.751 92.9551C151.763 92.9334 151.766 92.9084 151.76 92.8846C151.754 92.8609 151.74 92.84 151.72 92.826C151.7 92.8119 151.676 92.8056 151.651 92.8082L151.651 92.8081ZM151.438 85.5581C147.494 85.8485 143.606 86.6601 139.876 87.9718C136.129 89.2022 132.462 90.6637 128.897 92.3479C125.342 94.0404 121.852 95.8597 118.471 97.8658C115.07 99.8409 111.793 102.022 108.658 104.398C112.211 102.707 115.712 100.969 119.213 99.2389C122.722 97.5254 126.216 95.7999 129.745 94.1578C133.255 92.4729 136.822 90.9271 140.41 89.432C143.998 87.904 147.682 86.6099 151.438 85.5581ZM301.715 206.405C300.535 207.675 299.345 208.955 298.145 210.205C297.705 208.545 297.215 206.895 296.755 205.225C298.405 205.645 300.058 206.038 301.715 206.405ZM297.385 211.005C296.115 212.345 294.835 213.695 293.535 215.015L293.155 215.395C292.815 213.595 292.445 211.795 292.065 209.995C293.845 210.335 295.605 210.665 297.385 211.005V211.005ZM292.455 216.105C290.715 217.855 288.965 219.585 287.175 221.275L286.685 217.675L286.265 214.205C288.335 214.825 290.385 215.485 292.455 216.105ZM286.845 221.595C286.135 222.255 285.415 222.925 284.675 223.575C283.505 224.655 282.295 225.705 281.075 226.725C280.955 224.195 280.815 221.672 280.655 219.155C282.725 219.965 284.785 220.765 286.845 221.595ZM274.055 224.305C276.125 225.345 278.205 226.355 280.275 227.395C278.619 228.76 276.893 230.039 275.105 231.225C274.745 231.475 274.385 231.705 274.015 231.925L274.055 224.305ZM266.775 226.985C268.885 228.805 271.035 230.575 273.165 232.375C273.182 232.388 273.203 232.395 273.225 232.395C272.107 233.053 270.932 233.608 269.715 234.055C268.7 234.462 267.618 234.679 266.525 234.695C265.796 234.697 265.071 234.571 264.385 234.325C265.205 231.875 265.995 229.435 266.775 226.985H266.775ZM301.715 206.405C300.535 207.675 299.345 208.955 298.145 210.205C297.705 208.545 297.215 206.895 296.755 205.225C298.405 205.645 300.058 206.038 301.715 206.405L301.715 206.405ZM297.385 211.005C296.115 212.345 294.835 213.695 293.535 215.015L293.155 215.395C292.815 213.595 292.445 211.795 292.065 209.995C293.845 210.335 295.605 210.665 297.385 211.005H297.385ZM292.455 216.105C290.715 217.855 288.965 219.585 287.175 221.275L286.685 217.675L286.265 214.205C288.335 214.825 290.385 215.485 292.455 216.105L292.455 216.105ZM286.845 221.595C286.135 222.255 285.415 222.925 284.675 223.575C283.505 224.655 282.295 225.705 281.075 226.725C280.955 224.195 280.815 221.672 280.655 219.155C282.725 219.965 284.785 220.765 286.845 221.595L286.845 221.595ZM274.055 224.305C276.125 225.345 278.205 226.355 280.275 227.395C278.619 228.76 276.893 230.039 275.105 231.225C274.745 231.475 274.385 231.705 274.015 231.925L274.055 224.305ZM266.775 226.985C268.885 228.805 271.035 230.575 273.165 232.375C273.183 232.388 273.203 232.395 273.225 232.395C272.107 233.053 270.932 233.608 269.715 234.055C268.7 234.462 267.619 234.679 266.525 234.695C265.796 234.697 265.072 234.572 264.385 234.325C265.205 231.875 265.995 229.435 266.775 226.985L266.775 226.985ZM301.715 206.405C300.535 207.675 299.345 208.955 298.145 210.205C297.705 208.545 297.215 206.895 296.755 205.225C298.405 205.645 300.058 206.038 301.715 206.405L301.715 206.405ZM297.385 211.005C296.115 212.345 294.835 213.695 293.535 215.015L293.155 215.395C292.815 213.595 292.445 211.795 292.065 209.995C293.845 210.335 295.605 210.665 297.385 211.005L297.385 211.005ZM292.455 216.105C290.715 217.855 288.965 219.585 287.175 221.275L286.685 217.675L286.265 214.205C288.335 214.825 290.385 215.485 292.455 216.105L292.455 216.105ZM286.845 221.595C286.135 222.255 285.415 222.925 284.675 223.575C283.505 224.655 282.295 225.705 281.075 226.725C280.955 224.195 280.815 221.672 280.655 219.155C282.725 219.965 284.785 220.765 286.845 221.595L286.845 221.595ZM274.055 224.305C276.125 225.345 278.205 226.355 280.275 227.395C278.619 228.76 276.893 230.039 275.105 231.225C274.745 231.475 274.385 231.705 274.015 231.925L274.055 224.305ZM266.775 226.985C268.885 228.805 271.035 230.575 273.165 232.375C273.183 232.388 273.203 232.395 273.225 232.395C272.107 233.053 270.933 233.608 269.715 234.055C268.7 234.462 267.619 234.679 266.525 234.695C265.796 234.697 265.072 234.572 264.385 234.325C265.205 231.875 265.995 229.435 266.775 226.985L266.775 226.985ZM301.715 206.405C300.535 207.675 299.345 208.955 298.145 210.205C297.705 208.545 297.215 206.895 296.755 205.225C298.405 205.645 300.058 206.038 301.715 206.405L301.715 206.405ZM297.385 211.005C296.115 212.345 294.835 213.695 293.535 215.015L293.155 215.395C292.815 213.595 292.445 211.795 292.065 209.995C293.845 210.335 295.605 210.665 297.385 211.005L297.385 211.005ZM292.455 216.105C290.715 217.855 288.965 219.585 287.175 221.275L286.685 217.675L286.265 214.205C288.335 214.825 290.385 215.485 292.455 216.105L292.455 216.105ZM286.845 221.595C286.135 222.255 285.415 222.925 284.675 223.575C283.505 224.655 282.295 225.705 281.075 226.725C280.955 224.195 280.815 221.672 280.655 219.155C282.725 219.965 284.785 220.765 286.845 221.595L286.845 221.595ZM274.055 224.305C276.125 225.345 278.205 226.355 280.275 227.395C278.619 228.76 276.894 230.039 275.105 231.225C274.745 231.475 274.385 231.705 274.015 231.925L274.055 224.305ZM266.775 226.985C268.885 228.805 271.035 230.575 273.165 232.375C273.183 232.388 273.204 232.395 273.225 232.395C272.107 233.053 270.933 233.609 269.715 234.055C268.7 234.462 267.619 234.679 266.525 234.695C265.796 234.697 265.072 234.572 264.385 234.325C265.205 231.875 265.995 229.435 266.775 226.985L266.775 226.985ZM301.715 206.405C300.535 207.675 299.345 208.955 298.145 210.205C297.705 208.545 297.215 206.895 296.755 205.225C298.405 205.645 300.058 206.038 301.715 206.405L301.715 206.405ZM297.385 211.005C296.115 212.345 294.835 213.695 293.535 215.015L293.155 215.395C292.815 213.595 292.445 211.795 292.065 209.995C293.845 210.335 295.605 210.665 297.385 211.005L297.385 211.005ZM292.455 216.105C290.715 217.855 288.965 219.586 287.175 221.275L286.685 217.675L286.265 214.205C288.335 214.825 290.385 215.485 292.455 216.105L292.455 216.105ZM286.845 221.595C286.135 222.255 285.415 222.925 284.675 223.575C283.505 224.655 282.295 225.705 281.075 226.725C280.955 224.195 280.815 221.672 280.655 219.155C282.725 219.965 284.785 220.765 286.845 221.595L286.845 221.595ZM274.055 224.305C276.125 225.345 278.205 226.355 280.275 227.395C278.619 228.76 276.894 230.039 275.105 231.225C274.745 231.475 274.385 231.705 274.015 231.925L274.055 224.305ZM266.775 226.985C268.885 228.805 271.035 230.575 273.165 232.375C273.183 232.388 273.204 232.395 273.225 232.395C272.107 233.053 270.933 233.609 269.715 234.055C268.7 234.462 267.619 234.679 266.525 234.695C265.796 234.697 265.072 234.572 264.385 234.325C265.205 231.875 265.995 229.435 266.775 226.985L266.775 226.985ZM301.715 206.405C300.535 207.675 299.345 208.955 298.145 210.205C297.705 208.545 297.215 206.895 296.755 205.225C298.405 205.645 300.058 206.038 301.715 206.405L301.715 206.405ZM297.385 211.005C296.115 212.345 294.835 213.695 293.535 215.015L293.155 215.395C292.815 213.595 292.445 211.796 292.065 209.995C293.845 210.335 295.605 210.665 297.385 211.005L297.385 211.005ZM292.455 216.105C290.715 217.855 288.965 219.586 287.175 221.275L286.685 217.675L286.265 214.205C288.335 214.825 290.385 215.485 292.455 216.105L292.455 216.105ZM286.845 221.595C286.135 222.256 285.415 222.925 284.675 223.575C283.505 224.655 282.295 225.705 281.075 226.725C280.955 224.195 280.815 221.672 280.655 219.155C282.725 219.965 284.785 220.765 286.845 221.595L286.845 221.595ZM274.055 224.305C276.125 225.345 278.205 226.355 280.275 227.395C278.619 228.761 276.894 230.039 275.105 231.225C274.745 231.475 274.385 231.705 274.015 231.925L274.055 224.305ZM266.775 226.986C268.885 228.805 271.035 230.575 273.165 232.375C273.183 232.388 273.204 232.395 273.225 232.395C272.107 233.053 270.933 233.609 269.715 234.055C268.7 234.462 267.619 234.679 266.525 234.695C265.796 234.697 265.072 234.572 264.385 234.325C265.205 231.875 265.995 229.435 266.775 226.985L266.775 226.986ZM301.715 206.405C300.535 207.675 299.345 208.955 298.145 210.205C297.705 208.546 297.215 206.895 296.755 205.225C298.405 205.645 300.058 206.038 301.715 206.405L301.715 206.405ZM297.385 211.006C296.115 212.345 294.835 213.695 293.535 215.016L293.155 215.395C292.815 213.595 292.445 211.796 292.065 209.995C293.845 210.335 295.605 210.665 297.385 211.005L297.385 211.006ZM292.455 216.105C290.715 217.855 288.965 219.586 287.175 221.276L286.685 217.675L286.265 214.205C288.335 214.825 290.385 215.485 292.455 216.105L292.455 216.105ZM286.845 221.595C286.135 222.256 285.415 222.925 284.675 223.575C283.505 224.655 282.295 225.706 281.075 226.726C280.955 224.196 280.815 221.672 280.655 219.155C282.725 219.965 284.785 220.765 286.845 221.595L286.845 221.595ZM274.055 224.305C276.125 225.345 278.205 226.355 280.275 227.395C278.619 228.761 276.894 230.039 275.105 231.226C274.745 231.476 274.385 231.706 274.015 231.926L274.055 224.305ZM266.775 226.986C268.885 228.805 271.035 230.575 273.165 232.375C273.183 232.388 273.204 232.395 273.225 232.395C272.108 233.053 270.933 233.609 269.715 234.055C268.7 234.462 267.619 234.679 266.525 234.695C265.796 234.697 265.072 234.572 264.385 234.325C265.205 231.875 265.995 229.435 266.775 226.985L266.775 226.986ZM301.715 206.405C300.535 207.675 299.345 208.955 298.145 210.205C297.705 208.546 297.215 206.895 296.755 205.225C298.405 205.645 300.058 206.038 301.715 206.405L301.715 206.405ZM297.385 211.006C296.115 212.345 294.835 213.696 293.535 215.016L293.155 215.395C292.815 213.595 292.445 211.796 292.065 209.996C293.845 210.335 295.605 210.665 297.385 211.005L297.385 211.006ZM292.455 216.105C290.715 217.855 288.965 219.586 287.175 221.276L286.685 217.675L286.265 214.205C288.335 214.825 290.385 215.485 292.455 216.105L292.455 216.105ZM286.845 221.595C286.135 222.256 285.415 222.925 284.675 223.575C283.505 224.656 282.295 225.706 281.075 226.726C280.955 224.196 280.815 221.672 280.655 219.155C282.725 219.965 284.785 220.765 286.845 221.595L286.845 221.595ZM274.055 224.305C276.126 225.345 278.205 226.355 280.275 227.395C278.619 228.761 276.894 230.039 275.106 231.226C274.745 231.476 274.385 231.706 274.015 231.926L274.055 224.305ZM266.775 226.986C268.885 228.805 271.035 230.575 273.165 232.375C273.183 232.388 273.204 232.395 273.225 232.395C272.108 233.053 270.933 233.609 269.715 234.055C268.7 234.462 267.619 234.679 266.525 234.696C265.796 234.697 265.072 234.572 264.385 234.325C265.205 231.875 265.995 229.435 266.775 226.985L266.775 226.986ZM262.955 255.075C264.145 256.516 265.325 257.946 266.525 259.365C264.685 259.845 262.846 260.285 260.975 260.655C261.655 258.805 262.305 256.945 262.955 255.075L262.955 255.075ZM254.825 258.586L256.005 255.526C257.295 257.316 258.596 259.095 259.895 260.885C257.935 261.296 255.975 261.655 253.995 261.956C253.816 261.976 253.635 261.996 253.446 262.026C253.915 260.885 254.385 259.735 254.825 258.585L254.825 258.586ZM249.135 255.345C250.285 257.595 251.376 259.885 252.485 262.165C250.116 262.506 247.725 262.785 245.346 262.976C246.585 260.425 247.835 257.865 249.135 255.345L249.135 255.345ZM240.235 256.426L244.645 263.046C243.376 263.135 242.106 263.216 240.835 263.246C239.525 263.296 238.215 263.296 236.905 263.285L240.235 256.426ZM231.745 256.176C233.035 258.546 234.346 260.896 235.655 263.246C232.98 263.168 230.31 262.954 227.655 262.605C227.581 262.596 227.508 262.583 227.435 262.566C228.905 260.445 230.305 258.305 231.745 256.175L231.745 256.176ZM222.935 254.345C224.075 257.035 225.245 259.696 226.405 262.375C224.65 262.101 222.915 261.703 221.215 261.185C219.653 260.797 218.124 260.282 216.645 259.646L216.635 258.586C218.745 257.185 220.845 255.772 222.935 254.345L222.935 254.345ZM170.895 151.746L211.475 122.805C215.97 119.794 221.091 117.848 226.451 117.113C231.81 116.378 237.267 116.875 242.405 118.566C249.925 121.135 257.835 126.656 263.866 137.805C263.866 137.805 290.396 188.115 302.036 206.055C301.955 206.135 301.866 206.236 301.796 206.316C301.794 206.316 301.793 206.315 301.792 206.315C301.79 206.314 301.789 206.314 301.788 206.313C301.787 206.312 301.787 206.311 301.786 206.309C301.786 206.308 301.785 206.307 301.786 206.305C300.006 205.706 298.222 205.132 296.436 204.586C296.401 204.573 296.364 204.567 296.327 204.569C296.29 204.571 296.254 204.581 296.221 204.598C296.188 204.615 296.159 204.639 296.135 204.667C296.112 204.696 296.095 204.73 296.086 204.766C296.075 204.812 296.075 204.859 296.086 204.905V204.926C296.485 206.656 296.866 208.396 297.296 210.136C295.376 209.726 293.462 209.326 291.556 208.935C291.432 208.911 291.305 208.937 291.2 209.006C291.095 209.075 291.022 209.183 290.995 209.305C290.985 209.372 290.985 209.439 290.995 209.506C291.436 211.446 291.856 213.385 292.336 215.325C290.265 214.796 288.166 214.296 286.086 213.746C286.061 213.739 286.035 213.737 286.009 213.74C285.983 213.743 285.958 213.752 285.936 213.765C285.914 213.778 285.894 213.795 285.879 213.816C285.863 213.837 285.852 213.86 285.846 213.885C285.837 213.908 285.834 213.932 285.836 213.956L286.366 217.716L286.785 221.145C284.645 220.216 282.522 219.269 280.415 218.305C280.332 218.267 280.237 218.264 280.15 218.296C280.064 218.328 279.994 218.392 279.955 218.476C279.936 218.52 279.926 218.567 279.925 218.615V218.635C279.955 221.155 280.009 223.669 280.085 226.175C277.975 225.086 275.865 223.975 273.755 222.905C273.622 222.838 273.469 222.826 273.326 222.871C273.184 222.915 273.066 223.014 272.995 223.145C272.956 223.226 272.935 223.315 272.935 223.405L272.975 230.905C270.925 229.305 268.885 227.695 266.825 226.125L266.805 226.115C266.77 226.087 266.73 226.067 266.686 226.054C266.643 226.042 266.598 226.039 266.553 226.044C266.508 226.05 266.465 226.065 266.426 226.087C266.387 226.11 266.353 226.14 266.325 226.175C266.303 226.213 266.286 226.253 266.275 226.296C265.586 228.945 264.922 231.606 264.285 234.276C264.125 234.217 263.968 234.151 263.815 234.075C265.575 235.256 267.905 235.135 269.876 234.555C271.864 233.914 273.766 233.027 275.535 231.915C279.039 229.697 282.336 227.166 285.385 224.355C288.415 221.535 291.356 218.625 294.126 215.566C296.795 212.615 299.366 209.586 301.775 206.405C301.795 206.395 301.815 206.395 301.815 206.375C301.815 206.365 301.805 206.366 301.805 206.356C301.876 206.256 301.965 206.166 302.035 206.055C304.305 209.566 306.005 211.836 306.835 212.256C306.835 212.256 284.225 242.656 264.615 246.176C263.975 238.456 263.175 230.736 262.035 223.055C260.935 215.376 259.595 207.716 257.935 200.126C256.347 192.502 254.232 184.997 251.605 177.666C250.286 173.977 248.636 170.416 246.675 167.026C245.661 165.333 244.427 163.783 243.005 162.416C242.279 161.732 241.431 161.189 240.505 160.816C240.051 160.617 239.555 160.528 239.06 160.558C238.564 160.588 238.083 160.734 237.655 160.986C238.088 160.787 238.561 160.692 239.037 160.709C239.513 160.727 239.978 160.856 240.395 161.086C241.234 161.524 241.988 162.106 242.625 162.805C243.89 164.232 244.957 165.823 245.795 167.535C247.517 170.967 248.959 174.532 250.105 178.196C251.295 181.845 252.345 185.566 253.285 189.296C254.255 193.035 255.155 196.785 255.935 200.566C257.615 208.105 259.045 215.706 260.455 223.305L264.615 246.176L267.005 259.255C266.885 259.285 266.765 259.305 266.645 259.335C265.475 257.675 264.285 256.025 263.075 254.365C263.032 254.31 262.969 254.274 262.9 254.265C262.831 254.255 262.761 254.274 262.705 254.315C262.662 254.346 262.627 254.387 262.605 254.435V254.445C261.855 256.315 261.085 258.195 260.345 260.075C258.985 258.135 257.635 256.185 256.255 254.265C256.183 254.163 256.073 254.092 255.949 254.07C255.826 254.047 255.699 254.074 255.595 254.145C255.524 254.207 255.467 254.282 255.425 254.365L253.995 258.275C253.615 259.325 253.255 260.385 252.885 261.455C251.685 259.255 250.465 257.055 249.305 254.835C249.283 254.791 249.245 254.756 249.198 254.739C249.152 254.722 249.1 254.724 249.055 254.745C249.025 254.775 248.995 254.805 248.965 254.835C247.685 257.505 246.345 260.125 244.985 262.755L240.515 255.405C240.46 255.314 240.371 255.249 240.268 255.222C240.166 255.196 240.056 255.212 239.965 255.265C239.91 255.311 239.863 255.365 239.825 255.425L239.815 255.435L236.295 262.265C234.965 259.795 233.645 257.305 232.275 254.845L232.265 254.835C232.231 254.772 232.185 254.716 232.129 254.671C232.073 254.626 232.009 254.592 231.94 254.573C231.871 254.553 231.798 254.548 231.727 254.557C231.656 254.566 231.587 254.589 231.525 254.625C231.444 254.663 231.377 254.726 231.335 254.805C229.895 256.985 228.445 259.155 227.025 261.345C225.815 258.795 224.635 256.235 223.395 253.705V253.675C223.35 253.598 223.278 253.541 223.192 253.514C223.107 253.488 223.015 253.496 222.935 253.535C222.92 253.547 222.903 253.558 222.885 253.565C220.785 255.135 218.705 256.725 216.625 258.325L216.515 250.225C216.704 250.308 216.909 250.349 217.115 250.345C217.526 250.329 217.915 250.155 218.2 249.858C218.486 249.562 218.645 249.167 218.645 248.755C218.645 248.344 218.486 247.948 218.2 247.652C217.915 247.355 217.526 247.181 217.115 247.165C216.894 247.158 216.675 247.202 216.475 247.295L215.635 186.075C215.635 186.075 216.195 174.735 202.175 170.825L158.285 171.195C158.285 171.195 165.735 160.555 170.895 151.745L170.895 151.746ZM296.156 201.796C296.568 201.783 296.958 201.611 297.246 201.315C297.533 201.019 297.693 200.623 297.693 200.211C297.693 199.798 297.533 199.402 297.246 199.106C296.958 198.811 296.568 198.638 296.156 198.625C295.744 198.639 295.355 198.812 295.069 199.108C294.783 199.404 294.623 199.799 294.623 200.21C294.623 200.621 294.782 201.017 295.068 201.312C295.354 201.608 295.744 201.781 296.155 201.795L296.156 201.796ZM292.096 207.135C292.507 207.12 292.896 206.945 293.181 206.649C293.466 206.352 293.626 205.957 293.626 205.546C293.626 205.134 293.466 204.739 293.181 204.442C292.896 204.146 292.507 203.971 292.096 203.956C291.685 203.972 291.297 204.147 291.013 204.443C290.728 204.74 290.569 205.134 290.569 205.545C290.569 205.956 290.728 206.351 291.012 206.647C291.297 206.943 291.685 207.118 292.095 207.135L292.096 207.135ZM285.866 211.836C286.276 211.821 286.665 211.648 286.951 211.352C287.236 211.056 287.395 210.662 287.395 210.251C287.395 209.84 287.236 209.445 286.951 209.149C286.665 208.853 286.276 208.68 285.866 208.666C285.456 208.681 285.068 208.855 284.783 209.15C284.499 209.446 284.34 209.84 284.34 210.25C284.34 210.66 284.498 211.055 284.783 211.35C285.067 211.646 285.455 211.82 285.865 211.835L285.866 211.836ZM280.015 216.415C280.428 216.402 280.819 216.228 281.106 215.931C281.393 215.635 281.553 215.238 281.553 214.826C281.553 214.413 281.393 214.016 281.106 213.72C280.819 213.423 280.428 213.249 280.015 213.236C279.604 213.25 279.214 213.424 278.928 213.721C278.642 214.017 278.482 214.413 278.482 214.825C278.482 215.237 278.642 215.633 278.928 215.929C279.214 216.226 279.603 216.4 280.015 216.415L280.015 216.415ZM273.665 220.476C274.076 220.461 274.465 220.288 274.751 219.992C275.036 219.696 275.196 219.301 275.196 218.89C275.196 218.48 275.036 218.085 274.751 217.789C274.465 217.493 274.076 217.32 273.665 217.305C273.256 217.321 272.868 217.495 272.583 217.79C272.299 218.086 272.14 218.48 272.14 218.89C272.139 219.3 272.298 219.695 272.583 219.99C272.867 220.286 273.255 220.46 273.665 220.475L273.665 220.476ZM266.165 223.785C266.578 223.772 266.969 223.598 267.256 223.301C267.542 223.005 267.703 222.608 267.703 222.195C267.703 221.783 267.542 221.386 267.256 221.09C266.969 220.793 266.578 220.619 266.165 220.605C265.754 220.62 265.364 220.794 265.078 221.091C264.792 221.387 264.632 221.783 264.632 222.195C264.632 222.607 264.792 223.003 265.078 223.299C265.364 223.596 265.753 223.77 266.165 223.785L266.165 223.785ZM303.255 212.476C303.653 212.461 304.03 212.294 304.306 212.007C304.583 211.721 304.737 211.338 304.737 210.941C304.737 210.543 304.583 210.16 304.306 209.874C304.03 209.588 303.653 209.42 303.255 209.405C302.859 209.421 302.483 209.589 302.207 209.875C301.932 210.161 301.778 210.543 301.778 210.94C301.778 211.337 301.932 211.719 302.207 212.005C302.482 212.292 302.858 212.46 303.255 212.475L303.255 212.476ZM297.846 218.625C298.244 218.612 298.621 218.445 298.899 218.158C299.176 217.872 299.331 217.489 299.331 217.09C299.331 216.692 299.176 216.309 298.899 216.023C298.621 215.736 298.244 215.569 297.846 215.555C297.448 215.57 297.072 215.738 296.795 216.024C296.519 216.31 296.365 216.692 296.365 217.09C296.365 217.488 296.519 217.87 296.795 218.156C297.071 218.443 297.447 218.611 297.845 218.625L297.846 218.625ZM292.186 224.526C292.583 224.512 292.96 224.344 293.236 224.057C293.513 223.771 293.667 223.389 293.667 222.991C293.667 222.593 293.513 222.21 293.236 221.924C292.96 221.638 292.583 221.47 292.186 221.456C291.789 221.471 291.413 221.639 291.137 221.925C290.862 222.211 290.708 222.593 290.708 222.99C290.708 223.387 290.862 223.769 291.137 224.055C291.412 224.342 291.788 224.51 292.185 224.525L292.186 224.526ZM286.036 231.176C286.435 231.162 286.814 230.994 287.091 230.707C287.369 230.419 287.524 230.035 287.524 229.635C287.524 229.236 287.369 228.852 287.091 228.564C286.814 228.277 286.435 228.109 286.036 228.095C285.637 228.11 285.26 228.279 284.983 228.566C284.706 228.853 284.551 229.236 284.551 229.635C284.551 230.034 284.705 230.417 284.982 230.704C285.259 230.992 285.636 231.16 286.035 231.175L286.036 231.176ZM279.886 236.586C280.285 236.572 280.664 236.404 280.941 236.117C281.219 235.829 281.374 235.445 281.374 235.046C281.374 234.646 281.219 234.262 280.941 233.975C280.664 233.687 280.285 233.519 279.886 233.506C279.487 233.52 279.11 233.689 278.833 233.976C278.556 234.263 278.401 234.646 278.401 235.045C278.401 235.444 278.555 235.827 278.832 236.115C279.109 236.402 279.486 236.571 279.885 236.585L279.886 236.586ZM273.246 240.516C273.645 240.503 274.023 240.336 274.301 240.05C274.579 239.763 274.734 239.38 274.734 238.981C274.734 238.581 274.579 238.198 274.301 237.911C274.023 237.625 273.645 237.458 273.246 237.446C272.847 237.459 272.47 237.626 272.193 237.913C271.916 238.199 271.761 238.582 271.761 238.98C271.761 239.378 271.916 239.761 272.192 240.048C272.469 240.334 272.847 240.502 273.245 240.515L273.246 240.516ZM266.606 243.476C267.005 243.462 267.384 243.294 267.661 243.007C267.939 242.719 268.095 242.335 268.095 241.936C268.095 241.536 267.939 241.152 267.661 240.865C267.384 240.577 267.005 240.409 266.606 240.396C266.207 240.41 265.83 240.579 265.553 240.866C265.276 241.153 265.122 241.536 265.122 241.935C265.121 242.334 265.276 242.717 265.553 243.004C265.829 243.292 266.206 243.46 266.605 243.475L266.606 243.476ZM262.356 250.345C262.767 250.33 263.156 250.155 263.441 249.859C263.726 249.562 263.886 249.167 263.886 248.756C263.886 248.344 263.726 247.949 263.441 247.652C263.156 247.356 262.767 247.181 262.356 247.166C261.945 247.182 261.557 247.357 261.273 247.653C260.989 247.95 260.83 248.344 260.83 248.755C260.83 249.166 260.988 249.56 261.273 249.857C261.557 250.153 261.945 250.328 262.355 250.345L262.356 250.345ZM254.226 251.865C254.636 251.851 255.025 251.677 255.31 251.382C255.595 251.086 255.754 250.691 255.754 250.281C255.754 249.87 255.595 249.475 255.31 249.18C255.025 248.884 254.636 248.71 254.226 248.696C253.816 248.711 253.428 248.885 253.143 249.18C252.859 249.476 252.7 249.87 252.7 250.28C252.7 250.69 252.859 251.084 253.143 251.38C253.427 251.675 253.815 251.849 254.225 251.865L254.226 251.865ZM244.816 252.885C245.228 252.872 245.619 252.698 245.906 252.401C246.193 252.105 246.353 251.708 246.353 251.296C246.353 250.883 246.193 250.486 245.906 250.19C245.619 249.893 245.228 249.719 244.816 249.706C244.404 249.72 244.014 249.894 243.728 250.191C243.442 250.487 243.282 250.883 243.282 251.295C243.282 251.707 243.442 252.103 243.728 252.399C244.014 252.696 244.403 252.87 244.815 252.885L244.816 252.885ZM234.396 252.756C234.808 252.743 235.199 252.571 235.486 252.275C235.773 251.979 235.933 251.583 235.933 251.171C235.933 250.758 235.773 250.362 235.486 250.067C235.199 249.771 234.808 249.598 234.396 249.586C233.984 249.599 233.595 249.772 233.308 250.068C233.022 250.363 232.862 250.759 232.862 251.17C232.862 251.582 233.022 251.977 233.308 252.273C233.594 252.568 233.984 252.742 234.395 252.755L234.396 252.756ZM224.996 251.615C225.407 251.6 225.796 251.425 226.081 251.129C226.366 250.832 226.526 250.437 226.526 250.025C226.526 249.614 226.366 249.219 226.081 248.922C225.796 248.626 225.407 248.451 224.996 248.436C224.585 248.452 224.197 248.627 223.913 248.923C223.628 249.219 223.469 249.614 223.469 250.025C223.469 250.436 223.628 250.831 223.912 251.127C224.197 251.423 224.584 251.598 224.995 251.615L224.996 251.615ZM226.406 262.375C224.65 262.101 222.916 261.703 221.216 261.186C219.653 260.798 218.124 260.282 216.646 259.646L216.636 258.586C218.746 257.186 220.846 255.772 222.936 254.345C224.075 257.035 225.245 259.695 226.405 262.375L226.406 262.375ZM235.656 263.246C232.98 263.168 230.31 262.954 227.656 262.605C227.582 262.596 227.508 262.583 227.436 262.566C228.906 260.446 230.306 258.305 231.746 256.176C233.035 258.545 234.345 260.895 235.655 263.245L235.656 263.246ZM244.646 263.046C243.376 263.135 242.106 263.215 240.836 263.246C239.526 263.296 238.216 263.296 236.906 263.285L240.236 256.426L244.646 263.046ZM252.486 262.165C250.116 262.506 247.726 262.785 245.346 262.975C246.586 260.426 247.836 257.865 249.136 255.345C250.285 257.595 251.375 259.885 252.485 262.165L252.486 262.165ZM256.006 255.526C257.296 257.316 258.596 259.095 259.896 260.885C257.936 261.296 255.976 261.655 253.996 261.955C253.816 261.975 253.636 261.995 253.446 262.026C253.916 260.885 254.386 259.736 254.826 258.586L256.006 255.526ZM266.526 259.365C264.686 259.845 262.846 260.285 260.976 260.655C261.656 258.805 262.306 256.945 262.956 255.075C264.145 256.515 265.325 257.945 266.525 259.365L266.526 259.365ZM266.526 234.695C265.796 234.697 265.072 234.572 264.386 234.325C265.206 231.875 265.996 229.435 266.776 226.986C268.886 228.805 271.036 230.575 273.166 232.375C273.183 232.388 273.204 232.395 273.226 232.395C272.108 233.053 270.933 233.609 269.716 234.055C268.7 234.462 267.619 234.679 266.525 234.695L266.526 234.695ZM274.016 231.925L274.056 224.305C276.126 225.345 278.206 226.355 280.276 227.395C278.62 228.761 276.894 230.039 275.106 231.226C274.745 231.475 274.385 231.705 274.015 231.925L274.016 231.925ZM284.676 223.575C283.506 224.655 282.296 225.706 281.076 226.726C280.956 224.196 280.816 221.672 280.656 219.155C282.726 219.966 284.786 220.766 286.846 221.595C286.135 222.255 285.415 222.925 284.675 223.575L284.676 223.575ZM287.176 221.276L286.686 217.675L286.266 214.205C288.336 214.825 290.386 215.485 292.456 216.105C290.715 217.855 288.965 219.585 287.175 221.275L287.176 221.276ZM293.536 215.016L293.156 215.395C292.816 213.595 292.446 211.796 292.066 209.996C293.846 210.336 295.606 210.665 297.386 211.006C296.115 212.345 294.835 213.695 293.535 215.015L293.536 215.016ZM296.756 205.226C298.406 205.646 300.059 206.039 301.716 206.406C300.536 207.676 299.346 208.956 298.146 210.206C297.705 208.545 297.215 206.895 296.755 205.225L296.756 205.226ZM222.936 254.345C224.076 257.035 225.246 259.696 226.406 262.375C224.65 262.101 222.916 261.703 221.216 261.186C219.653 260.798 218.124 260.282 216.646 259.646L216.636 258.586C218.745 257.185 220.845 255.772 222.935 254.345L222.936 254.345ZM221.056 261.676C223.17 262.403 225.332 262.984 227.526 263.416C231.934 264.132 236.401 264.43 240.866 264.305C245.321 264.113 249.757 263.591 254.136 262.746C256.226 262.345 258.296 261.865 260.356 261.325C260.411 261.339 260.469 261.342 260.526 261.334C260.582 261.325 260.637 261.305 260.686 261.276C260.696 261.266 260.696 261.256 260.706 261.246C262.686 260.716 264.636 260.099 266.556 259.396C266.586 259.436 266.616 259.436 266.636 259.406C266.64 259.402 266.642 259.397 266.644 259.392C266.646 259.386 266.646 259.381 266.646 259.376C266.766 259.336 266.886 259.296 267.006 259.256L268.886 269.555C268.886 269.555 240.066 280.855 216.786 269.555L216.646 259.845C218.065 260.57 219.539 261.182 221.055 261.675L221.056 261.676ZM260.916 268.426C260.968 268.478 261.025 268.525 261.086 268.566C261.166 268.621 261.253 268.664 261.346 268.696C261.398 268.726 261.456 268.746 261.516 268.756C261.566 268.766 261.616 268.776 261.676 268.785C261.758 268.798 261.842 268.804 261.926 268.805C262.325 268.793 262.703 268.626 262.981 268.34C263.259 268.053 263.414 267.67 263.414 267.27C263.414 266.871 263.259 266.488 262.981 266.201C262.703 265.915 262.325 265.748 261.926 265.736C261.702 265.734 261.481 265.778 261.276 265.865C261.209 265.896 261.145 265.933 261.086 265.976C261.025 266.017 260.968 266.064 260.916 266.115C260.656 266.389 260.495 266.741 260.459 267.116C260.423 267.491 260.513 267.868 260.716 268.186C260.771 268.274 260.838 268.355 260.915 268.425L260.916 268.426ZM253.806 271.256C254.205 271.243 254.583 271.076 254.861 270.79C255.139 270.503 255.295 270.12 255.295 269.721C255.295 269.321 255.139 268.938 254.861 268.651C254.583 268.365 254.205 268.198 253.806 268.186C253.408 268.199 253.03 268.366 252.753 268.653C252.476 268.939 252.321 269.322 252.321 269.72C252.321 270.118 252.476 270.501 252.753 270.788C253.029 271.074 253.407 271.242 253.805 271.255L253.806 271.256ZM245.946 272.246C246.345 272.233 246.723 272.066 247.001 271.78C247.279 271.493 247.435 271.11 247.435 270.711C247.435 270.311 247.279 269.928 247.001 269.641C246.723 269.355 246.345 269.188 245.946 269.176C245.548 269.189 245.17 269.356 244.893 269.643C244.616 269.929 244.461 270.312 244.461 270.71C244.461 271.108 244.616 271.491 244.893 271.778C245.169 272.064 245.547 272.232 245.945 272.245L245.946 272.246ZM237.336 272.006C237.735 271.993 238.113 271.826 238.391 271.54C238.669 271.253 238.825 270.87 238.825 270.471C238.825 270.071 238.669 269.688 238.391 269.401C238.113 269.115 237.735 268.948 237.336 268.936C236.938 268.949 236.56 269.116 236.283 269.403C236.006 269.689 235.851 270.072 235.851 270.47C235.851 270.868 236.006 271.251 236.283 271.538C236.559 271.824 236.937 271.992 237.335 272.005L237.336 272.006ZM228.726 270.776C229.125 270.763 229.503 270.596 229.781 270.31C230.059 270.023 230.214 269.64 230.214 269.241C230.214 268.841 230.059 268.458 229.781 268.171C229.503 267.885 229.125 267.718 228.726 267.706C228.327 267.719 227.95 267.886 227.673 268.173C227.396 268.459 227.241 268.842 227.241 269.24C227.241 269.638 227.396 270.021 227.672 270.308C227.949 270.594 228.327 270.762 228.725 270.775L228.726 270.776ZM221.336 268.805C221.735 268.793 222.113 268.626 222.391 268.34C222.669 268.053 222.824 267.67 222.824 267.27C222.824 266.871 222.669 266.488 222.391 266.201C222.113 265.915 221.735 265.748 221.336 265.736C220.938 265.749 220.56 265.916 220.283 266.203C220.006 266.489 219.851 266.872 219.851 267.27C219.851 267.668 220.006 268.051 220.283 268.337C220.56 268.624 220.937 268.792 221.335 268.805L221.336 268.805ZM231.746 256.176C233.036 258.546 234.346 260.896 235.656 263.246C232.98 263.168 230.31 262.954 227.656 262.605C227.582 262.596 227.508 262.583 227.436 262.566C228.905 260.445 230.305 258.305 231.745 256.175L231.746 256.176ZM240.236 256.426L244.646 263.046C243.376 263.135 242.106 263.216 240.836 263.246C239.526 263.296 238.216 263.296 236.906 263.285L240.236 256.426ZM249.136 255.345C250.286 257.595 251.376 259.885 252.486 262.165C250.116 262.506 247.726 262.785 245.346 262.976C246.585 260.425 247.835 257.865 249.135 255.345L249.136 255.345ZM254.826 258.586L256.006 255.526C257.296 257.316 258.596 259.095 259.896 260.885C257.936 261.296 255.976 261.655 253.996 261.956C253.816 261.976 253.636 261.996 253.446 262.026C253.915 260.885 254.385 259.735 254.825 258.585L254.826 258.586ZM262.956 255.075C264.146 256.516 265.326 257.946 266.526 259.365C264.686 259.845 262.846 260.285 260.976 260.655C261.655 258.805 262.305 256.945 262.955 255.075L262.956 255.075ZM266.775 226.985C268.885 228.805 271.035 230.575 273.165 232.375C273.182 232.388 273.203 232.395 273.225 232.395C272.107 233.053 270.932 233.608 269.715 234.055C268.7 234.462 267.618 234.679 266.525 234.695C265.796 234.697 265.071 234.571 264.385 234.325C265.205 231.875 265.995 229.435 266.775 226.985ZM274.055 224.305C276.125 225.345 278.205 226.355 280.275 227.395C278.619 228.76 276.893 230.039 275.105 231.225C274.745 231.475 274.385 231.705 274.015 231.925L274.055 224.305ZM286.845 221.595C286.135 222.255 285.415 222.925 284.675 223.575C283.505 224.655 282.295 225.705 281.075 226.725C280.955 224.195 280.815 221.672 280.655 219.155C282.725 219.965 284.785 220.765 286.845 221.595H286.845ZM292.455 216.105C290.715 217.855 288.965 219.585 287.175 221.275L286.685 217.675L286.265 214.205C288.335 214.825 290.385 215.485 292.455 216.105H292.455ZM297.385 211.005C296.115 212.345 294.835 213.695 293.535 215.015L293.155 215.395C292.815 213.595 292.445 211.795 292.065 209.995C293.845 210.335 295.605 210.665 297.385 211.005ZM301.715 206.405C300.535 207.675 299.345 208.955 298.145 210.205C297.705 208.545 297.215 206.895 296.755 205.225C298.405 205.645 300.058 206.038 301.715 206.405V206.405ZM266.775 226.985C268.885 228.805 271.035 230.575 273.165 232.375C273.182 232.388 273.203 232.395 273.225 232.395C272.107 233.053 270.932 233.608 269.715 234.055C268.7 234.462 267.618 234.679 266.525 234.695C265.796 234.697 265.071 234.571 264.385 234.325C265.205 231.875 265.995 229.435 266.775 226.985ZM274.055 224.305C276.125 225.345 278.205 226.355 280.275 227.395C278.619 228.76 276.893 230.039 275.105 231.225C274.745 231.475 274.385 231.705 274.015 231.925L274.055 224.305ZM286.845 221.595C286.135 222.255 285.415 222.925 284.675 223.575C283.505 224.655 282.295 225.705 281.075 226.725C280.955 224.195 280.815 221.672 280.655 219.155C282.725 219.965 284.785 220.765 286.845 221.595H286.845ZM292.455 216.105C290.715 217.855 288.965 219.585 287.175 221.275L286.685 217.675L286.265 214.205C288.335 214.825 290.385 215.485 292.455 216.105H292.455ZM297.385 211.005C296.115 212.345 294.835 213.695 293.535 215.015L293.155 215.395C292.815 213.595 292.445 211.795 292.065 209.995C293.845 210.335 295.605 210.665 297.385 211.005ZM301.715 206.405C300.535 207.675 299.345 208.955 298.145 210.205C297.705 208.545 297.215 206.895 296.755 205.225C298.405 205.645 300.058 206.038 301.715 206.405V206.405ZM266.775 226.985C268.885 228.805 271.035 230.575 273.165 232.375C273.182 232.388 273.203 232.395 273.225 232.395C272.107 233.053 270.932 233.608 269.715 234.055C268.7 234.462 267.618 234.679 266.525 234.695C265.796 234.697 265.071 234.571 264.385 234.325C265.205 231.875 265.995 229.435 266.775 226.985ZM274.055 224.305C276.125 225.345 278.205 226.355 280.275 227.395C278.619 228.76 276.893 230.039 275.105 231.225C274.745 231.475 274.385 231.705 274.015 231.925L274.055 224.305ZM286.845 221.595C286.135 222.255 285.415 222.925 284.675 223.575C283.505 224.655 282.295 225.705 281.075 226.725C280.955 224.195 280.815 221.672 280.655 219.155C282.725 219.965 284.785 220.765 286.845 221.595H286.845ZM292.455 216.105C290.715 217.855 288.965 219.585 287.175 221.275L286.685 217.675L286.265 214.205C288.335 214.825 290.385 215.485 292.455 216.105H292.455ZM297.385 211.005C296.115 212.345 294.835 213.695 293.535 215.015L293.155 215.395C292.815 213.595 292.445 211.795 292.065 209.995C293.845 210.335 295.605 210.665 297.385 211.005ZM301.715 206.405C300.535 207.675 299.345 208.955 298.145 210.205C297.705 208.545 297.215 206.895 296.755 205.225C298.405 205.645 300.058 206.038 301.715 206.405V206.405ZM266.775 226.985C268.885 228.805 271.035 230.575 273.165 232.375C273.182 232.388 273.203 232.395 273.225 232.395C272.107 233.053 270.932 233.608 269.715 234.055C268.7 234.462 267.618 234.679 266.525 234.695C265.796 234.697 265.071 234.571 264.385 234.325C265.205 231.875 265.995 229.435 266.775 226.985ZM274.055 224.305C276.125 225.345 278.205 226.355 280.275 227.395C278.619 228.76 276.893 230.039 275.105 231.225C274.745 231.475 274.385 231.705 274.015 231.925L274.055 224.305ZM286.845 221.595C286.135 222.255 285.415 222.925 284.675 223.575C283.505 224.655 282.295 225.705 281.075 226.725C280.955 224.195 280.815 221.672 280.655 219.155C282.725 219.965 284.785 220.765 286.845 221.595H286.845ZM292.455 216.105C290.715 217.855 288.965 219.585 287.175 221.275L286.685 217.675L286.265 214.205C288.335 214.825 290.385 215.485 292.455 216.105H292.455ZM297.385 211.005C296.115 212.345 294.835 213.695 293.535 215.015L293.155 215.395C292.815 213.595 292.445 211.795 292.065 209.995C293.845 210.335 295.605 210.665 297.385 211.005ZM301.715 206.405C300.535 207.675 299.345 208.955 298.145 210.205C297.705 208.545 297.215 206.895 296.755 205.225C298.405 205.645 300.058 206.038 301.715 206.405V206.405ZM266.775 226.985C268.885 228.805 271.035 230.575 273.165 232.375C273.182 232.388 273.203 232.395 273.225 232.395C272.107 233.053 270.932 233.608 269.715 234.055C268.7 234.462 267.618 234.679 266.525 234.695C265.796 234.697 265.071 234.571 264.385 234.325C265.205 231.875 265.995 229.435 266.775 226.985ZM274.055 224.305C276.125 225.345 278.205 226.355 280.275 227.395C278.619 228.76 276.893 230.039 275.105 231.225C274.745 231.475 274.385 231.705 274.015 231.925L274.055 224.305ZM286.845 221.595C286.135 222.255 285.415 222.925 284.675 223.575C283.505 224.655 282.295 225.705 281.075 226.725C280.955 224.195 280.815 221.672 280.655 219.155C282.725 219.965 284.785 220.765 286.845 221.595H286.845ZM292.455 216.105C290.715 217.855 288.965 219.585 287.175 221.275L286.685 217.675L286.265 214.205C288.335 214.825 290.385 215.485 292.455 216.105H292.455ZM297.385 211.005C296.115 212.345 294.835 213.695 293.535 215.015L293.155 215.395C292.815 213.595 292.445 211.795 292.065 209.995C293.845 210.335 295.605 210.665 297.385 211.005ZM301.715 206.405C300.535 207.675 299.345 208.955 298.145 210.205C297.705 208.545 297.215 206.895 296.755 205.225C298.405 205.645 300.058 206.038 301.715 206.405V206.405ZM266.775 226.985C268.885 228.805 271.035 230.575 273.165 232.375C273.182 232.388 273.203 232.395 273.225 232.395C272.107 233.053 270.932 233.608 269.715 234.055C268.7 234.462 267.618 234.679 266.525 234.695C265.796 234.697 265.071 234.571 264.385 234.325C265.205 231.875 265.995 229.435 266.775 226.985ZM274.055 224.305C276.125 225.345 278.205 226.355 280.275 227.395C278.619 228.76 276.893 230.039 275.105 231.225C274.745 231.475 274.385 231.705 274.015 231.925L274.055 224.305ZM286.845 221.595C286.135 222.255 285.415 222.925 284.675 223.575C283.505 224.655 282.295 225.705 281.075 226.725C280.955 224.195 280.815 221.672 280.655 219.155C282.725 219.965 284.785 220.765 286.845 221.595H286.845ZM292.455 216.105C290.715 217.855 288.965 219.585 287.175 221.275L286.685 217.675L286.265 214.205C288.335 214.825 290.385 215.485 292.455 216.105H292.455ZM297.385 211.005C296.115 212.345 294.835 213.695 293.535 215.015L293.155 215.395C292.815 213.595 292.445 211.795 292.065 209.995C293.845 210.335 295.605 210.665 297.385 211.005ZM301.715 206.405C300.535 207.675 299.345 208.955 298.145 210.205C297.705 208.545 297.215 206.895 296.755 205.225C298.405 205.645 300.058 206.038 301.715 206.405V206.405ZM266.775 226.985C268.885 228.805 271.035 230.575 273.165 232.375C273.182 232.388 273.203 232.395 273.225 232.395C272.107 233.053 270.932 233.608 269.715 234.055C268.7 234.462 267.618 234.679 266.525 234.695C265.796 234.697 265.071 234.571 264.385 234.325C265.205 231.875 265.995 229.435 266.775 226.985ZM274.055 224.305C276.125 225.345 278.205 226.355 280.275 227.395C278.619 228.76 276.893 230.039 275.105 231.225C274.745 231.475 274.385 231.705 274.015 231.925L274.055 224.305ZM286.845 221.595C286.135 222.255 285.415 222.925 284.675 223.575C283.505 224.655 282.295 225.705 281.075 226.725C280.955 224.195 280.815 221.672 280.655 219.155C282.725 219.965 284.785 220.765 286.845 221.595H286.845ZM292.455 216.105C290.715 217.855 288.965 219.585 287.175 221.275L286.685 217.675L286.265 214.205C288.335 214.825 290.385 215.485 292.455 216.105H292.455ZM297.385 211.005C296.115 212.345 294.835 213.695 293.535 215.015L293.155 215.395C292.815 213.595 292.445 211.795 292.065 209.995C293.845 210.335 295.605 210.665 297.385 211.005ZM301.715 206.405C300.535 207.675 299.345 208.955 298.145 210.205C297.705 208.545 297.215 206.895 296.755 205.225C298.405 205.645 300.058 206.038 301.715 206.405V206.405Z" fill="#121212"/>
<path d="M111.321 61.8773C110.922 61.8635 110.545 61.6955 110.267 61.4087C109.99 61.1219 109.836 60.7387 109.836 60.34C109.836 59.9412 109.99 59.558 110.267 59.2712C110.545 58.9844 110.922 58.8164 111.321 58.8026C111.719 58.8164 112.097 58.9844 112.374 59.2712C112.651 59.558 112.806 59.9412 112.806 60.34C112.806 60.7387 112.651 61.1219 112.374 61.4087C112.097 61.6955 111.719 61.8635 111.321 61.8773ZM86.9361 63.7864C86.5376 63.7726 86.16 63.6046 85.8829 63.3178C85.6059 63.031 85.451 62.6478 85.451 62.2491C85.451 61.8503 85.6059 61.4671 85.8829 61.1803C86.16 60.8935 86.5376 60.7255 86.9361 60.7117C87.3346 60.7255 87.7122 60.8935 87.9893 61.1803C88.2663 61.4671 88.4212 61.8503 88.4212 62.2491C88.4212 62.6478 88.2663 63.031 87.9893 63.3178C87.7122 63.6046 87.3346 63.7726 86.9361 63.7864ZM106.942 72.9052C106.915 73.475 107.025 74.043 107.261 74.5622C107.489 75.0889 107.809 75.5701 108.208 75.9827C108.611 76.4015 109.098 76.7305 109.637 76.9483C110.168 77.1747 110.749 77.2538 111.321 77.1774C110.855 76.8304 110.419 76.5772 110.032 76.2525C109.644 75.952 109.279 75.6225 108.941 75.2669C108.245 74.5707 107.655 73.7818 106.942 72.9052ZM114.131 55.5652C113.866 55.0784 113.442 54.6969 112.93 54.4844C112.426 54.2528 111.857 54.2029 111.321 54.3432C111.585 54.8308 112.009 55.2125 112.522 55.424C113.027 55.6526 113.594 55.7024 114.131 55.5652ZM85.3552 65.335C85.514 65.611 85.745 65.8386 86.0233 65.9933C86.3017 66.148 86.6169 66.224 86.9352 66.2132C87.2555 66.2132 87.5707 66.1334 87.8524 65.981C88.1324 65.8353 88.3634 65.6107 88.517 65.335C87.8795 65.3779 87.4175 65.4529 86.9343 65.445C86.4062 65.4395 85.8789 65.4028 85.3552 65.335Z" fill="#121212"/>
<path d="M133.814 165.111C133.511 161.768 133.899 158.398 134.953 155.211C135.969 152.036 137.561 149.076 139.649 146.477C140.685 145.187 141.836 143.994 143.086 142.911L146.835 139.496C149.325 137.199 151.86 134.986 154.315 132.616C159.065 127.73 163.246 122.321 166.776 116.493C170.383 110.724 173.501 104.664 176.097 98.3753C176.116 98.3271 176.131 98.2771 176.141 98.226L176.145 98.2052C176.349 97.0983 176.578 95.996 176.888 94.9164C177.19 93.8368 177.554 92.7756 177.979 91.7381C178.408 90.7085 178.906 89.7089 179.469 88.7462C180.013 87.8089 180.649 86.9284 181.369 86.1181L181.237 86.2212C184.045 84.405 186.891 82.6481 189.806 81.0298C192.669 79.3611 195.695 77.9882 198.836 76.9321C199.599 76.7 200.385 76.5515 201.18 76.4893C201.522 76.4339 201.871 76.4511 202.206 76.5398C202.54 76.6285 202.852 76.7868 203.121 77.0042C203.328 77.2247 203.455 77.5083 203.482 77.8095C203.466 78.1494 203.37 78.4807 203.201 78.7764C202.808 79.4671 202.323 80.1008 201.758 80.6601C199.34 82.9443 196.666 84.9414 193.789 86.6115C193.719 86.6551 193.666 86.7211 193.638 86.7988C193.61 86.8766 193.609 86.9614 193.636 87.0397C193.662 87.1179 193.714 87.1848 193.784 87.2297C193.853 87.2745 193.936 87.2946 194.018 87.2867C195.202 87.1891 196.394 87.2534 197.561 87.4779C198.728 87.6849 199.846 88.1087 200.857 88.7272C201.861 89.3417 202.689 90.2053 203.261 91.2342C203.825 92.2782 204.172 93.4258 204.28 94.6075C204.287 94.6748 204.316 94.7378 204.363 94.7867L204.373 94.7967C205.364 95.7629 206.04 97.0069 206.312 98.3647C206.4 99.0202 206.281 99.6869 205.972 100.272C205.643 100.86 205.19 101.368 204.643 101.762L204.635 101.77C204.578 101.817 204.537 101.881 204.519 101.953C204.501 102.024 204.506 102.1 204.533 102.169C204.899 103.087 205.171 104.039 205.346 105.011C205.536 105.963 205.546 106.941 205.376 107.896C205.301 108.345 205.13 108.773 204.875 109.15C204.619 109.527 204.285 109.844 203.896 110.08C203.05 110.501 202.108 110.692 201.165 110.633L201.51 111.224L203.13 108.25C203.179 108.161 203.195 108.059 203.176 107.959C203.157 107.86 203.104 107.77 203.026 107.706C202.948 107.641 202.85 107.606 202.749 107.605C202.648 107.605 202.55 107.64 202.472 107.704C200.667 109.11 199.045 110.737 197.645 112.547C197.292 113.026 196.987 113.538 196.734 114.076C196.603 114.361 196.499 114.658 196.424 114.963C196.399 115.093 196.365 115.222 196.324 115.349C196.3 115.46 196.261 115.566 196.208 115.666C195.708 116.546 194.962 117.26 194.061 117.719C193.128 118.238 192.132 118.636 191.099 118.903C190.104 119.189 189.062 119.271 188.035 119.144C187.664 119.112 187.291 119.157 186.938 119.275C186.586 119.393 186.261 119.582 185.984 119.83C185.509 120.216 185.077 120.652 184.695 121.13C183.973 122.039 183.326 123.005 182.761 124.019C181.649 126.013 180.696 128.09 179.91 130.233C179.508 131.297 179.178 132.425 178.809 133.394C178.398 134.417 177.972 135.438 177.514 136.454C175.704 140.518 173.703 144.516 171.608 148.452C167.508 156.356 162.68 163.86 157.187 170.866C155.807 172.598 154.307 174.211 152.791 175.797L150.398 178.03C149.599 178.702 148.731 179.287 147.809 179.776C145.958 180.745 143.907 181.269 141.818 181.305C139.729 181.34 137.661 180.887 135.778 179.982L136.059 180.181L136.019 180.151L135.814 179.998C135.79 179.98 135.765 179.965 135.739 179.952C133.652 178.937 131.722 177.626 130.009 176.06C129.156 175.291 128.342 174.416 127.486 173.548L124.955 170.956L114.769 160.648L114.764 160.644C114.731 160.61 114.694 160.579 114.656 160.551C110.704 157.657 106.838 154.579 103.086 151.4C99.3319 148.216 95.6591 144.932 92.1852 141.449C88.6833 138 85.4726 134.267 82.5861 130.288C81.1636 128.293 79.9538 126.154 78.9765 123.906C77.9517 121.676 77.5299 119.216 77.7532 116.772C77.7575 116.746 77.7513 116.719 77.7359 116.697C77.7205 116.676 77.6971 116.661 77.6709 116.657C77.6449 116.653 77.6186 116.66 77.5972 116.675C77.5759 116.69 77.5611 116.713 77.5559 116.739C77.2342 119.229 77.5714 121.761 78.5337 124.08C79.4423 126.403 80.5915 128.624 81.9625 130.708C84.7358 134.835 87.8741 138.705 91.3397 142.271C94.7608 145.867 98.3537 149.294 102.083 152.563C105.818 155.83 109.638 158.973 113.613 161.979L113.501 161.882L123.523 172.348L126.044 174.95C126.881 175.804 127.71 176.704 128.647 177.557C130.5 179.262 132.589 180.69 134.85 181.798L134.57 181.599L134.61 181.629L134.807 181.778C134.834 181.797 134.862 181.814 134.891 181.829C137.062 182.874 139.444 183.405 141.854 183.379C144.266 183.348 146.638 182.75 148.777 181.632C149.837 181.075 150.836 180.407 151.756 179.639L154.285 177.296C155.884 175.673 157.395 173.965 158.81 172.18C164.323 165.025 169.156 157.37 173.245 149.316C175.335 145.328 177.29 141.276 179.058 137.124C179.505 136.089 179.927 135.036 180.335 133.973C180.742 132.84 181.021 131.809 181.396 130.771C182.126 128.694 183.011 126.675 184.044 124.732C184.548 123.775 185.128 122.861 185.779 121.999C186.087 121.593 186.437 121.22 186.823 120.888C187.092 120.617 187.453 120.457 187.834 120.439C189.04 120.568 190.26 120.45 191.419 120.093C192.55 119.773 193.636 119.309 194.649 118.712C195.739 118.114 196.625 117.205 197.195 116.1C197.267 115.949 197.321 115.791 197.356 115.627C197.402 115.458 197.443 115.296 197.459 115.199C197.513 114.958 197.59 114.723 197.689 114.498C197.905 114.017 198.166 113.559 198.47 113.129C199.784 111.366 201.311 109.773 203.018 108.386L202.359 107.84L200.799 110.846L200.783 110.877C200.76 110.922 200.746 110.971 200.742 111.021C200.737 111.071 200.743 111.122 200.758 111.17C200.773 111.218 200.798 111.262 200.83 111.301C200.863 111.34 200.903 111.371 200.947 111.395C201.008 111.426 201.076 111.441 201.145 111.437C202.234 111.48 203.315 111.233 204.277 110.721C204.752 110.43 205.159 110.04 205.471 109.578C205.782 109.116 205.992 108.593 206.084 108.043C206.266 106.998 206.25 105.927 206.036 104.887C205.845 103.865 205.55 102.865 205.157 101.901L205.046 102.308C205.673 101.849 206.19 101.257 206.561 100.574C206.926 99.8683 207.062 99.0667 206.952 98.2799C206.828 97.5232 206.562 96.7969 206.168 96.1396C205.789 95.4881 205.328 94.8878 204.797 94.3535L204.89 94.5423C204.757 93.2816 204.388 92.0573 203.801 90.9336C203.188 89.8064 202.295 88.8562 201.208 88.1744C200.133 87.5007 198.941 87.0343 197.695 86.7993C196.457 86.5477 195.191 86.4683 193.932 86.5633L194.16 87.2383C197.104 85.5488 199.859 83.5505 202.379 81.2771C203.023 80.669 203.579 79.9744 204.032 79.2131C204.286 78.7812 204.43 78.2936 204.452 77.7931C204.434 77.2499 204.224 76.7306 203.86 76.3274C203.499 75.9894 203.069 75.7336 202.6 75.5777C202.13 75.4219 201.633 75.3696 201.141 75.4245C200.26 75.4681 199.386 75.6087 198.536 75.8435C195.28 76.8422 192.136 78.1737 189.153 79.8169C186.158 81.3852 183.245 83.0875 180.372 84.8486L180.364 84.8534C180.319 84.8812 180.278 84.9143 180.241 84.9519C179.396 85.8434 178.658 86.8296 178.04 87.8908C177.428 88.9171 176.887 89.9836 176.419 91.083C175.959 92.1797 175.564 93.302 175.235 94.4444C174.899 95.5833 174.648 96.7417 174.425 97.9046L174.473 97.7349C171.863 103.905 168.815 109.881 165.351 115.616C161.929 121.371 157.88 126.729 153.278 131.593C150.933 133.966 148.435 136.254 146.019 138.59L142.366 142.079C141.09 143.236 139.922 144.506 138.875 145.873C136.807 148.616 135.273 151.722 134.353 155.031C133.385 158.309 133.134 161.756 133.616 165.139C133.619 165.165 133.633 165.188 133.654 165.204C133.676 165.22 133.702 165.227 133.728 165.223C133.754 165.22 133.778 165.206 133.794 165.185C133.81 165.164 133.817 165.137 133.814 165.111L133.814 165.111Z" fill="#121212"/>
<path d="M204.834 101.505L202.529 102.118L204.872 102.563C205.013 102.589 205.159 102.558 205.277 102.477C205.395 102.396 205.477 102.271 205.503 102.13C205.53 101.989 205.5 101.844 205.42 101.725C205.34 101.606 205.216 101.524 205.075 101.496C204.995 101.481 204.913 101.484 204.834 101.505ZM204.636 94.0453L200.124 94.1264L204.531 95.0991C204.599 95.1142 204.67 95.1157 204.739 95.1035C204.808 95.0913 204.874 95.0656 204.933 95.0279C204.992 94.9902 205.043 94.9413 205.083 94.8839C205.123 94.8265 205.151 94.7617 205.166 94.6934C205.181 94.625 205.183 94.5543 205.171 94.4854C205.158 94.4164 205.133 94.3505 205.095 94.2915C205.057 94.2325 205.008 94.1815 204.951 94.1414C204.894 94.1013 204.829 94.0728 204.761 94.0577C204.72 94.049 204.678 94.0449 204.636 94.0453ZM199.782 113.916C207.664 116.57 215.718 118.682 223.888 120.238C227.985 121.013 232.125 121.535 236.286 121.803C238.367 121.944 240.453 122.029 242.54 122.028C243.583 122.045 244.626 122.034 245.669 121.994C246.715 121.975 247.758 121.903 248.795 121.801L248.768 121.802L248.778 121.802H248.783L248.808 121.801C250.019 121.694 251.22 121.502 252.403 121.225C253.617 120.959 254.779 120.494 255.841 119.849C255.921 119.797 255.98 119.718 256.006 119.627C256.032 119.535 256.025 119.437 255.984 119.351C255.944 119.264 255.874 119.196 255.786 119.157C255.699 119.119 255.601 119.113 255.51 119.142L255.488 119.149C250.073 120.849 244.363 121.34 238.713 121.68C233.044 122.013 227.351 121.918 221.663 121.738C218.809 121.623 215.995 121.542 213.104 121.375C210.281 121.249 207.432 121.064 204.581 120.893L187.463 119.702C187.437 119.701 187.41 119.709 187.389 119.726C187.368 119.743 187.354 119.767 187.351 119.794C187.347 119.821 187.354 119.848 187.37 119.87C187.385 119.892 187.409 119.907 187.435 119.912C193.056 121.053 198.725 121.936 204.42 122.638C207.267 122.99 210.121 123.266 213.008 123.505C215.826 123.715 218.726 123.928 221.591 123.999C227.348 124.182 233.112 124.023 238.85 123.521C244.619 123.059 250.301 121.839 255.751 119.894L255.398 119.194C254.431 119.831 253.362 120.298 252.237 120.573C251.092 120.862 249.925 121.058 248.748 121.16L248.778 121.159L248.768 121.159L248.74 121.16C244.623 121.418 240.49 121.19 236.427 120.48C232.347 119.874 228.299 119.075 224.233 118.368C216.101 116.922 208.012 115.193 199.835 113.711C199.808 113.706 199.781 113.711 199.759 113.726C199.736 113.74 199.72 113.762 199.713 113.788C199.706 113.814 199.71 113.842 199.722 113.866C199.735 113.889 199.756 113.907 199.782 113.916V113.916ZM165.845 116.418C164.76 115.987 163.663 115.631 162.566 115.282C161.466 114.949 160.366 114.617 159.258 114.334C158.155 114.03 157.043 113.768 155.931 113.509C154.823 113.232 153.7 113.03 152.585 112.789L153.411 113.779C153.397 112.503 153.305 111.229 153.256 109.954C153.174 108.68 153.089 107.406 152.968 106.134C152.85 104.861 152.705 103.589 152.531 102.318C152.341 101.048 152.155 99.7772 151.866 98.5101C151.659 99.7933 151.557 101.073 151.45 102.353C151.359 103.633 151.297 104.912 151.262 106.189C151.223 107.467 151.221 108.744 151.221 110.02C151.256 111.296 151.247 112.573 151.316 113.847L151.32 113.914C151.332 114.139 151.42 114.352 151.57 114.52C151.719 114.687 151.921 114.799 152.142 114.837C153.274 115.031 154.397 115.263 155.536 115.42C156.671 115.595 157.807 115.767 158.95 115.897C160.089 116.049 161.237 116.151 162.383 116.252C163.533 116.337 164.683 116.416 165.845 116.418ZM200.995 27.8089C204.535 26.8764 208.237 26.7318 211.839 27.3852C217.039 28.5608 225.712 25.1825 225.712 25.1825C225.712 25.1825 228.709 23.4138 228.106 28.3066C228.106 28.3066 226.083 41.1526 227.481 49.2332C228.889 57.3241 227.852 57.7055 226.231 56.9536C224.622 56.1909 217.113 56.8688 209.371 56.964C201.64 57.0594 201.926 55.5026 202.477 51.2665C203.038 47.0303 200.995 27.8089 200.995 27.8089ZM204.362 49.6779C203.896 53.247 203.652 54.5708 210.187 54.486C216.721 54.4012 223.065 53.8293 224.42 54.4754C225.786 55.1107 226.665 54.7826 225.479 47.9622C224.293 41.1314 225.998 30.2869 225.998 30.2869C226.517 26.1568 223.975 27.6499 223.975 27.6499C223.975 27.6499 216.657 30.4989 212.273 29.5032C209.23 28.955 206.103 29.0779 203.113 29.8634C203.113 29.8634 204.839 46.0985 204.362 49.6779L204.362 49.6779Z" fill="#121212"/>
<path d="M207.898 46.6927C207.593 49.0279 207.434 49.894 211.709 49.8385C215.985 49.783 220.135 49.4088 221.022 49.8316C221.916 50.2472 222.491 50.0326 221.715 45.5701C220.939 41.1009 222.054 34.0056 222.054 34.0056C222.394 31.3033 220.731 32.2802 220.731 32.2802C220.731 32.2802 215.943 34.1442 213.074 33.4928C211.083 33.1341 209.038 33.2145 207.081 33.7285C207.081 33.7285 208.21 44.3508 207.898 46.6927ZM251.59 27.1351C249.019 26.8601 246.431 26.784 243.848 26.9073C241.264 26.9831 238.689 27.2606 236.148 27.7371C238.719 28.0144 241.307 28.0905 243.89 27.9649C246.474 27.8868 249.048 27.6093 251.59 27.1351ZM247.499 57.3513C244.928 57.0764 242.34 57.0003 239.757 57.1236C237.173 57.1993 234.598 57.4767 232.057 57.9533C234.628 58.2306 237.216 58.3068 239.799 58.1811C242.383 58.103 244.957 57.8255 247.499 57.3513ZM250.165 47.6818C247.594 47.4069 245.006 47.3307 242.423 47.454C239.839 47.5298 237.264 47.8072 234.723 48.2838C237.294 48.5611 239.882 48.6373 242.464 48.5115C245.049 48.4334 247.623 48.156 250.165 47.6818ZM245.644 67.5865C240.309 67.2705 234.981 67.2751 229.653 67.3583C224.326 67.4736 219.001 67.6693 213.682 68.1885C219.017 68.507 224.346 68.502 229.673 68.4165C235 68.2991 240.325 68.1031 245.644 67.5865ZM246.225 109.726C240.973 108.802 235.691 108.198 230.401 107.672C225.108 107.178 219.807 106.764 214.476 106.672C219.727 107.598 225.009 108.202 230.3 108.725C235.593 109.217 240.893 109.631 246.225 109.726ZM249.844 33.0611C247.736 32.6087 245.592 32.3526 243.437 32.2958C241.284 32.1918 239.126 32.2897 236.991 32.5883C239.098 33.0429 241.243 33.2991 243.398 33.3536C245.551 33.4553 247.709 33.3574 249.844 33.0611ZM249.268 38.7836C247.161 38.3313 245.016 38.0751 242.861 38.0184C240.708 37.9143 238.55 38.0122 236.416 38.3109C238.523 38.7655 240.668 39.0217 242.822 39.0761C244.975 39.1778 247.133 39.0799 249.268 38.7836ZM246.952 53.1557C244.845 52.7033 242.7 52.4472 240.545 52.3904C238.392 52.2864 236.234 52.3843 234.1 52.6829C236.207 53.1375 238.351 53.3937 240.506 53.4482C242.659 53.5499 244.817 53.452 246.952 53.1557ZM246.663 43.5056C244.555 43.0532 242.41 42.7971 240.256 42.7403C238.103 42.6362 235.945 42.7342 233.81 43.0328C235.917 43.4874 238.062 43.7436 240.217 43.798C242.37 43.8997 244.528 43.8018 246.663 43.5056ZM247.62 88.1379C242.285 87.8219 236.956 87.8265 231.628 87.9097C226.302 88.025 220.976 88.2206 215.657 88.7398C220.992 89.0584 226.321 89.0534 231.648 88.968C236.975 88.8505 242.301 88.6545 247.62 88.1379ZM246.956 73.5172C242.529 73.022 238.097 72.8475 233.664 72.7517C229.23 72.6877 224.794 72.7043 220.353 73.0444C224.779 73.5421 229.211 73.7161 233.645 73.8099C238.079 73.8715 242.515 73.8547 246.956 73.5172ZM245.764 79.2397C241.338 78.7446 236.906 78.5701 232.472 78.4742C228.038 78.4102 223.602 78.4268 219.161 78.7669C223.588 79.2646 228.02 79.4388 232.453 79.5324C236.887 79.5942 241.323 79.5772 245.764 79.2397ZM241.69 98.4666C237.264 97.9715 232.832 97.7971 228.398 97.7011C223.964 97.6373 219.528 97.6537 215.087 97.9938C219.514 98.4915 223.946 98.6657 228.379 98.7593C232.814 98.8211 237.249 98.8043 241.69 98.4666ZM240.499 104.189C236.072 103.694 231.64 103.52 227.207 103.424C222.772 103.36 218.337 103.376 213.896 103.716C218.322 104.214 222.754 104.388 227.188 104.482C231.622 104.544 236.057 104.527 240.499 104.189ZM240.97 93.6118C236.544 93.1166 232.111 92.9421 227.678 92.8463C223.244 92.7822 218.808 92.7989 214.367 93.139C218.793 93.6367 223.225 93.8107 227.659 93.9045C232.093 93.9661 236.529 93.9493 240.97 93.6118ZM240.371 83.9616C235.944 83.4665 231.512 83.2919 227.079 83.1961C222.644 83.1321 218.209 83.1487 213.768 83.4888C218.194 83.9865 222.626 84.1606 227.06 84.2543C231.494 84.316 235.929 84.2991 240.371 83.9616ZM200.189 113.528C200.286 113.528 200.379 113.493 200.453 113.43C200.526 113.367 200.574 113.279 200.588 113.184C200.602 113.088 200.581 112.991 200.529 112.909C200.477 112.827 200.398 112.767 200.306 112.739C200.255 112.719 200.201 112.71 200.146 112.711C200.092 112.713 200.039 112.725 199.989 112.748C199.94 112.771 199.896 112.803 199.859 112.844C199.823 112.884 199.795 112.931 199.777 112.983C199.759 113.034 199.752 113.089 199.756 113.143C199.76 113.197 199.774 113.25 199.799 113.298C199.824 113.347 199.858 113.39 199.9 113.424C199.942 113.459 199.99 113.485 200.042 113.501C200.09 113.518 200.139 113.527 200.189 113.528Z" fill="#121212"/>
<path d="M223.611 268.678C223.386 271.08 223.125 273.478 222.735 275.848C222.392 278.206 221.858 280.531 221.139 282.802C220.953 283.348 220.733 283.883 220.48 284.401C220.358 284.662 220.22 284.891 220.077 285.142C219.922 285.418 219.751 285.689 219.613 285.973C219.033 287.092 218.579 288.272 218.257 289.49C217.585 291.916 217.339 294.441 217.531 296.951C217.625 298.231 217.88 299.495 218.291 300.711C218.7 302.002 219.412 303.176 220.369 304.135C220.875 304.635 221.469 305.038 222.121 305.324C222.446 305.471 222.784 305.586 223.131 305.668L224.053 305.85C225.17 306.127 226.257 306.516 227.297 307.01C229.632 307.871 232.075 308.401 234.557 308.586C236.993 308.827 239.424 308.898 241.849 308.908C246.698 308.915 251.528 308.75 256.36 308.606C258.775 308.53 261.19 308.431 263.603 308.309C266.019 308.231 268.433 308.111 270.848 308C280.509 307.576 290.15 306.811 299.772 305.9L299.81 305.896C300.031 305.875 300.238 305.779 300.396 305.623C300.554 305.468 300.654 305.263 300.678 305.043C300.71 304.788 300.707 304.53 300.671 304.276C300.647 304.07 300.608 303.866 300.555 303.665C300.457 303.291 300.321 302.928 300.15 302.581C299.997 302.245 299.815 301.923 299.605 301.62C299.415 301.316 299.202 301.028 298.968 300.756C298.087 299.698 297.069 298.762 295.94 297.974C293.762 296.462 291.429 295.186 288.98 294.17C287.768 293.679 286.55 293.202 285.322 292.771C284.091 292.368 282.846 291.926 281.627 291.556C279.182 290.786 276.73 290.042 274.303 289.235C269.44 287.717 264.711 285.801 260.164 283.506C257.928 282.349 255.894 280.837 254.141 279.03C252.394 277.189 251.364 274.784 251.238 272.249C251.237 272.236 251.234 272.222 251.229 272.21C251.223 272.198 251.215 272.187 251.205 272.178C251.195 272.169 251.184 272.161 251.171 272.157C251.158 272.152 251.145 272.15 251.131 272.15C251.106 272.152 251.082 272.163 251.063 272.181C251.045 272.199 251.034 272.223 251.033 272.249C250.941 274.906 251.83 277.503 253.531 279.546C255.231 281.556 257.265 283.258 259.544 284.576C264.043 287.163 268.782 289.307 273.694 290.98C276.119 291.862 278.548 292.722 280.993 293.527C282.227 293.922 283.396 294.361 284.6 294.775C285.788 295.212 286.957 295.692 288.117 296.182C290.415 297.138 292.609 298.33 294.661 299.74C295.646 300.415 296.544 301.21 297.332 302.107C297.523 302.317 297.697 302.543 297.851 302.781C298.013 303.002 298.154 303.237 298.271 303.484C298.39 303.71 298.486 303.948 298.557 304.193C298.588 304.302 298.612 304.414 298.629 304.526C298.65 304.611 298.644 304.778 298.655 304.719L299.562 303.862C289.969 304.926 280.372 305.942 270.77 306.909C268.367 307.125 265.964 307.35 263.558 307.533C261.152 307.704 258.743 307.835 256.334 307.953C251.519 308.207 246.694 308.205 241.879 307.948C239.478 307.81 237.081 307.604 234.725 307.245C232.396 306.944 230.117 306.333 227.949 305.428C226.821 304.857 225.638 304.402 224.417 304.072L223.93 303.979L223.564 303.9C223.324 303.842 223.09 303.76 222.866 303.657C222.41 303.455 221.996 303.169 221.645 302.814C220.205 301.129 219.375 299.007 219.29 296.792C219.081 294.479 219.252 292.147 219.796 289.888C220.066 288.764 220.441 287.667 220.914 286.611C221.026 286.345 221.167 286.098 221.294 285.84C221.436 285.56 221.593 285.262 221.713 284.969C221.96 284.388 222.17 283.793 222.342 283.186C222.985 280.82 223.397 278.397 223.572 275.951C223.778 273.534 223.859 271.108 223.816 268.683C223.815 268.656 223.803 268.63 223.784 268.611C223.764 268.593 223.738 268.582 223.71 268.583C223.685 268.584 223.661 268.594 223.643 268.612C223.624 268.629 223.613 268.653 223.611 268.678Z" fill="#121212"/>
<path d="M230.793 282.005C230.392 282.789 230.184 283.658 230.186 284.538C230.173 285.445 230.372 286.342 230.769 287.157C231.167 287.98 231.778 288.682 232.538 289.19C233.264 289.691 234.1 290.011 234.975 290.122C234.292 289.657 233.647 289.139 233.046 288.572C232.483 288.037 232.023 287.404 231.688 286.704C231.031 285.228 230.724 283.62 230.793 282.005ZM220.834 303.105C220.834 303.105 215.009 305.127 218.228 315.704C218.228 315.704 217.756 319.64 231.777 318.902L302.373 318.994C302.373 318.994 307.598 307.444 296.745 305.178L279.023 306.819C279.023 306.819 283.432 296.272 282.202 292.828C280.314 289.747 277.457 287.38 274.079 286.096C270.7 284.813 266.992 284.686 263.534 285.735C263.534 285.735 264.263 302.659 251.218 308.443C251.218 308.443 232.029 307.477 220.834 303.105ZM273.405 233.41C274.242 235.677 275.061 237.95 275.76 240.255C276.498 242.528 277.078 244.85 277.495 247.204C277.587 247.778 277.647 248.357 277.676 248.937C277.702 249.487 277.685 250.097 277.687 250.725C277.69 251.971 277.789 253.214 277.984 254.444C278.321 256.984 279.258 259.408 280.717 261.514C282.275 263.637 284.485 265.19 287.011 265.935C287.626 266.118 288.252 266.266 288.884 266.38L290.672 266.645C291.905 266.934 293.165 267.089 294.431 267.108C296.941 266.861 299.388 266.167 301.654 265.059C303.893 264.065 306.053 262.947 308.183 261.782C316.669 257.08 324.98 252.144 333.365 247.298C341.748 242.452 349.985 237.366 358.167 232.198L358.2 232.178C358.387 232.059 358.528 231.88 358.599 231.67C358.67 231.46 358.666 231.232 358.588 231.024C358.499 230.777 358.377 230.542 358.226 230.327C358.106 230.151 357.975 229.984 357.834 229.825C357.568 229.531 357.273 229.264 356.954 229.028C356.357 228.579 355.706 228.208 355.016 227.923C353.712 227.378 352.341 227.009 350.94 226.826C348.239 226.48 345.508 226.418 342.794 226.64C340.125 226.873 337.439 227.277 334.857 227.703C332.264 228.126 329.666 228.512 327.059 228.81C324.454 229.11 321.84 229.337 319.226 229.431C316.617 229.553 314.003 229.514 311.398 229.315C308.807 229.128 306.253 228.586 303.809 227.707C301.336 226.861 299.251 225.154 297.935 222.896C297.922 222.873 297.901 222.856 297.876 222.847C297.851 222.839 297.824 222.841 297.8 222.852C297.776 222.864 297.758 222.884 297.748 222.908C297.739 222.933 297.74 222.96 297.75 222.985C298.928 225.447 300.975 227.388 303.497 228.432C305.967 229.511 308.584 230.218 311.261 230.532C316.568 231.149 321.927 231.183 327.241 230.634C329.892 230.406 332.536 230.117 335.166 229.742C337.803 229.344 340.351 229.007 342.95 228.817C345.505 228.619 348.074 228.674 350.618 228.983C351.84 229.134 353.038 229.435 354.187 229.878C354.724 230.085 355.232 230.36 355.7 230.695C355.916 230.846 356.117 231.019 356.299 231.21C356.379 231.296 356.453 231.387 356.522 231.482C356.581 231.551 356.655 231.706 356.638 231.65L357.059 230.475L332.788 246.36L326.679 250.267C324.628 251.546 322.555 252.789 320.482 254.031C316.335 256.512 312.099 258.85 307.754 260.945C305.58 261.987 303.381 262.974 301.15 263.828C299.011 264.74 296.73 265.275 294.409 265.41C293.256 265.352 292.113 265.173 290.999 264.874C290.692 264.807 290.368 264.762 290.05 264.715L289.202 264.585C288.645 264.481 288.094 264.346 287.551 264.182C285.398 263.547 283.502 262.244 282.139 260.46C280.813 258.587 279.929 256.437 279.554 254.172C279.346 253.017 279.207 251.85 279.139 250.678C279.107 250.097 279.095 249.498 279.032 248.841C278.969 248.216 278.872 247.595 278.741 246.981C278.212 244.588 277.482 242.245 276.559 239.975C275.657 237.716 274.694 235.489 273.592 233.326C273.58 233.302 273.558 233.283 273.532 233.275C273.506 233.267 273.478 233.269 273.454 233.281C273.432 233.293 273.414 233.312 273.405 233.336C273.396 233.36 273.396 233.386 273.405 233.41Z" fill="#121212"/>
<path d="M285.836 242.055C285.833 242.936 286.039 243.804 286.439 244.589C286.837 245.404 287.42 246.114 288.142 246.662C288.869 247.216 289.732 247.566 290.639 247.676C291.514 247.795 292.403 247.702 293.234 247.406C292.415 247.3 291.605 247.129 290.813 246.895C290.07 246.672 289.373 246.316 288.758 245.843C287.504 244.823 286.504 243.526 285.836 242.055ZM286.487 265.378C286.487 265.378 282.205 269.814 289.855 277.795C289.855 277.795 291.214 281.519 303.387 274.525L366.405 242.704C366.405 242.704 365.847 230.039 355.141 232.923L340.073 242.395C340.073 242.395 339.241 230.994 336.587 228.478C333.51 226.583 329.891 225.762 326.298 226.144C322.704 226.525 319.339 228.088 316.728 230.587C316.728 230.587 325.026 245.354 316.003 256.41C316.003 256.41 298.45 264.219 286.487 265.378Z" fill="#121212"/>
<path d="M71.4301 69.764L70.3264 77.0244C69.9439 79.436 69.5415 81.8403 69.0707 84.2275C68.6302 86.6219 68.06 88.9845 67.3987 91.3159C66.8022 93.6757 65.8429 95.9286 64.5551 97.994C66.2016 96.1323 67.4379 93.9451 68.1838 91.5743C69.01 89.2466 69.6538 86.8582 70.1094 84.4306C71.0507 79.5999 71.4932 74.6852 71.4301 69.764ZM69.9051 34.3522C69.9051 34.3522 55.0362 20.6838 36.7361 51.2872C18.4359 81.8906 18.6661 94.6065 11.4223 93.3754C11.4223 93.3754 29.552 107.461 52.0459 83.9617C74.5399 60.4621 69.9051 34.3522 69.9051 34.3522Z" fill="#121212"/>
<path d="M70.0106 83.9701C70.1286 82.8701 70.0814 81.7586 69.8704 80.6726C69.6191 79.5817 69.1878 78.5404 68.5942 77.5913C67.3642 75.7154 65.7247 74.1431 63.799 72.9926C61.9009 71.8472 59.8811 70.9168 57.777 70.2186C55.6794 69.5015 53.5259 68.9594 51.3388 68.5979L51.489 68.6321C49.6878 68.0773 47.8061 67.8295 45.9226 67.8992C44.0289 67.9376 42.1591 68.3295 40.4093 69.0548C39.9817 69.2621 39.5419 69.448 39.1256 69.6773C38.7199 69.9253 38.3059 70.1627 37.9085 70.4234L36.7737 71.2875C36.428 71.5629 36.1121 71.8324 35.76 72.0939C34.3839 73.148 32.9019 74.1212 31.419 75.0851L22.4183 80.8447C19.3696 82.7663 16.4542 84.8918 13.6923 87.2068C12.9876 87.8209 12.3383 88.4958 11.7519 89.2236C11.4305 89.6203 11.1702 90.0627 10.9795 90.5361C10.9268 90.6707 10.8879 90.8104 10.8637 90.9529L10.8188 91.1694C10.8102 91.2785 10.8119 91.3881 10.8239 91.4968C10.8976 91.8698 11.1111 92.2006 11.4207 92.4213C12.262 92.9314 13.1997 93.2617 14.175 93.3915C15.0762 93.5606 15.9734 93.6721 16.8699 93.76C20.4552 94.0874 24.0254 94.1647 27.5971 94.2149C31.1678 94.2532 34.7364 94.2475 38.3049 94.2298L43.6568 94.1553L46.3325 94.1046C47.2211 94.1011 48.1337 94.0516 48.9656 94.1111C50.6584 94.2401 52.2837 94.829 53.6662 95.8142C55.0487 96.7994 56.1359 98.1436 56.8102 99.7015C58.3112 102.932 59.7451 106.193 61.211 109.438C64.1049 115.946 66.9191 122.487 69.6534 129.059C75.0117 142.245 80.1037 155.543 84.2498 169.131L84.2629 169.174C84.2734 169.207 84.2866 169.24 84.3025 169.271C85.1231 170.876 86.1169 172.386 87.266 173.774C88.404 175.187 89.7465 176.423 91.249 177.44C92.7897 178.496 94.5783 179.133 96.4395 179.29C98.2293 179.362 99.9119 179.264 101.653 179.26L112.012 179.086L122.362 178.825C122.39 178.825 122.417 178.813 122.436 178.793C122.455 178.772 122.466 178.745 122.465 178.717C122.464 178.69 122.453 178.664 122.434 178.645C122.415 178.626 122.389 178.615 122.362 178.614L112.028 178.236L101.702 177.946C99.9979 177.88 98.2246 177.898 96.5786 177.764C94.9951 177.565 93.4868 176.972 92.1915 176.04C89.563 174.047 87.463 171.441 86.0751 168.449L86.1274 168.589C82.1962 154.829 77.3294 141.354 71.5609 128.258C68.7542 121.687 65.8037 115.183 62.7093 108.745C61.1787 105.519 59.5723 102.329 57.9586 99.1448C57.1327 97.4397 55.8685 95.9848 54.2955 94.929C52.7278 93.8832 50.9031 93.288 49.0203 93.2081C45.3764 93.3084 41.8758 93.47 38.2949 93.5271C34.733 93.6105 31.1694 93.6293 27.61 93.535C24.0576 93.48 20.5108 93.2326 16.9851 92.7939C16.1116 92.6718 15.2427 92.526 14.3986 92.3311C13.6068 92.1926 12.8484 91.9058 12.1631 91.4856C12.0492 91.3903 12.0235 91.3099 12.034 91.3249C12.0403 91.3212 12.0396 91.3326 12.0387 91.3191L12.0725 91.2107C12.0872 91.1339 12.1114 91.0592 12.1447 90.9883C12.3072 90.6423 12.5189 90.3215 12.7732 90.0361C13.334 89.3984 13.9488 88.8105 14.611 88.279C17.4185 86.1385 20.3473 84.1621 23.3829 82.3595C26.4086 80.4917 29.4504 78.6322 32.4596 76.6791C33.955 75.6844 35.4476 74.6846 36.8919 73.5556C37.253 73.2818 37.6133 72.9699 37.9616 72.6861L38.9466 71.9197C39.292 71.6897 39.6514 71.4807 40.0021 71.2581C40.3635 71.054 40.7472 70.8908 41.1179 70.7027C44.2509 69.4016 47.7293 69.1867 50.9987 70.0921L51.0744 70.112C51.0991 70.1182 51.1242 70.123 51.1494 70.1264C53.2602 70.3949 55.3453 70.8363 57.3838 71.4462C59.4295 72.0382 61.403 72.8561 63.2678 73.8846C65.139 74.8744 66.7688 76.2649 68.041 77.957C68.6539 78.8173 69.1192 79.7737 69.4177 80.787C69.6994 81.8182 69.828 82.8851 69.7994 83.9537C69.7986 83.9676 69.8005 83.9815 69.8051 83.9946C69.8097 84.0078 69.8168 84.0199 69.826 84.0303C69.8353 84.0407 69.8465 84.0491 69.859 84.0552C69.8715 84.0613 69.8851 84.0648 69.899 84.0656C69.9261 84.0662 69.9525 84.0568 69.973 84.0392C69.9936 84.0215 70.007 83.997 70.0106 83.9701Z" fill="#121212"/>
<path d="M142.705 142.513L131.98 129.845C131.094 128.787 130.214 127.723 129.353 126.65L128.081 125.038C127.68 124.54 127.315 124.014 126.988 123.463C125.885 120.886 124.565 118.407 123.044 116.052C119.99 111.218 115.8 107.205 110.84 104.361C108.345 102.951 105.663 101.9 102.875 101.237C100.066 100.54 97.1624 100.296 94.2756 100.515L95.0981 100.789L88.7051 94.7454L88.687 94.7281C88.5577 94.6054 88.3932 94.5262 88.2166 94.5016C82.9375 93.6468 77.5499 93.7175 72.2952 94.7107C69.6735 95.2473 67.1497 96.183 64.8118 97.4851C62.4564 98.7337 60.4573 100.561 59.0026 102.795C60.6383 100.758 62.7312 99.1351 65.1115 98.0582C67.4611 96.9797 69.9514 96.2391 72.5085 95.8584C77.6398 95.1709 82.8484 95.3174 87.9329 96.2925L87.4447 96.049L93.7004 102.235C93.7991 102.333 93.9176 102.408 94.0479 102.456C94.1782 102.505 94.3174 102.525 94.456 102.515L94.5233 102.51C97.1672 102.357 99.8189 102.611 102.386 103.263C107.606 104.566 112.393 107.213 116.274 110.939C118.235 112.793 119.99 114.852 121.511 117.081C123.044 119.342 124.405 121.715 125.582 124.18C125.974 124.813 126.417 125.412 126.905 125.973C127.354 126.515 127.806 127.045 128.27 127.564C129.195 128.604 130.133 129.626 131.076 130.642C132.955 132.681 134.894 134.66 136.83 136.64C138.766 138.62 140.713 140.588 142.705 142.513Z" fill="#121212"/>
<path d="M62.6416 110.562L76.1924 142.513C76.1924 142.513 71.4301 104.512 92.5565 102.852L94.3994 101.512L88.7683 96.0674C88.7683 96.0674 60.9697 97.2962 62.6416 110.562Z" fill="#121212"/>
<path d="M257.095 15.145C256.585 23.8376 256.203 32.532 255.949 41.2281C255.666 49.924 255.501 58.6213 255.358 67.3191C255.252 76.0173 255.172 84.7159 255.208 93.4163C255.216 102.116 255.353 110.818 255.619 119.521C256.131 110.829 256.514 102.135 256.769 93.4384C257.05 84.7426 257.216 76.0452 257.356 67.3473C257.459 58.6491 257.54 49.9504 257.503 41.2501C257.495 32.5503 257.358 23.8486 257.095 15.145Z" fill="#121212"/>
</svg>
